<?xml version='1.0' encoding='utf-8'?>
<svg xmlns="http://www.w3.org/2000/svg" version="1.1" width="600px" height="976px" viewBox="0 0 600 976"> <g id="layer1"> <g style="fill:rgb(255,209,159); fill-opacity:1.0; stroke-linejoin: miter"> <path d="M204.86438,291.12894L177.8915,286.4074Q168.997,310.40485,166.56921,321.28827Q165.06828,327.77283,165.90044,330.69894Q166.33723,332.23273,167.28076,333.01334Q167.50955,333.45386,171.17964,334.97305Q171.9944,335.51587,172.29616,336.30115Q172.70837,337.2091,172.81561,339.01996Q172.90604,339.2765,172.76497,345.07297Q172.77554,346.30463,172.9127,347.1928Q173.15387,349.00006,174.33151,349.8547Q176.25455,351.06854,179.12985,349.73895Q181.80183,348.41714,182.89825,345.6695Q183.74405,343.60153,183.68875,340.64017Q183.66055,339.4453,183.47485,338.0243Q182.39938,331.25183,182.41153,330.54715Q182.20158,328.15564,182.46674,326.29553Q183.49306,320.31842,186.55106,319.22824Q189.71303,319.09412,191.55486,324.33737Q191.8393,325.33688,191.77429,326.66528L190.98026,331.90884Q190.82095,333.52158,190.9451,335.158Q191.31653,339.55963,192.79613,342.40118Q195.57373,347.2729,199.9851,344.7512Q201.51997,343.55695,201.72842,340.836Q201.9609,340.73413,201.48807,331.06866Q201.46353,329.42957,201.57765,327.29407Q201.69476,325.09723,202.01025,322.1663Q202.16556,320.5144,203.15894,313.1738Q203.34221,311.6805,203.3771,310.7074L202.92346,305.79257Q202.83005,303.89914,202.9508,302.01923Q203.1215,298.59048,204.86337,291.13345"/> </g> <g style="fill:rgb(229,57,45); fill-opacity:1.0; stroke-linejoin: miter"> <path d="M178.22632,361.50446L167.6275,386.56592L123.76449,559.26025L123.90124,559.30457L176.5556,568.9585L192.94843,399.92694L200.3736,368.03745L178.3601,361.5438"/> </g> <g style="fill:rgb(71,108,189); fill-opacity:1.0; stroke-linejoin: miter"> <path d="M229.43106,368.4218L194.00117,373.346L184.4871,391.6602L180.82516,566.263L225.12454,565.93787L244.53654,535.3539L229.45572,368.69434"/> </g> <g style="fill:rgb(71,108,189); fill-opacity:1.0; stroke-linejoin: miter"> <path d="M189.5597,327.9849Q186.43755,334.11047,187.19362,348.7162Q187.70444,358.01913,189.4806,370.38568Q191.33545,382.82397,192.50725,385.03525Q193.10583,386.1945,193.32495,382.0185L193.64618,363.44888Q193.7643,358.99158,194.01775,356.2075Q194.51903,350.77423,195.59361,350.72583Q196.63133,350.53046,198.334,353.7114Q199.06647,355.0449,200.13191,357.38348Q205.52203,369.86246,206.16524,370.91486Q208.02368,374.68304,209.76685,376.6202Q213.53874,381.21582,219.31194,377.2255L189.56007,327.98553"/> </g> <g style="fill:rgb(229,57,45); fill-opacity:1.0; stroke-linejoin: miter"> <path d="M183.31041,324.17056Q178.92134,324.16766,179.0721,368.81912L184.43831,369.09235Q182.40637,361.52716,181.86526,353.00482Q181.50209,345.60123,183.19778,345.5694Q184.2175,345.62997,186.32986,349.3658Q187.40332,351.2562,188.78714,354.07648Q195.00171,367.1957,194.96423,366.91656Q196.63982,370.13947,197.16833,370.1001Q198.09464,370.094,196.23427,361.00552Q194.18217,351.25455,191.1943,341.2473Q186.07527,324.44577,183.34258,324.17117 M184.44502,369.11612Q186.2696,375.7343,188.92033,375.80328Q191.17474,376.1436,195.83562,369.74536L184.44916,369.11624"/> </g> <g style="fill:rgb(0,0,2); fill-opacity:0.41960785; stroke-linejoin: miter"> <path d="M224.88599,372.96036L198.6447,373.9161L191.44098,388.6577L205.36853,388.80286L224.84995,372.9897"/> </g> <g style="fill:rgb(0,0,2); fill-opacity:0.38431373; stroke-linejoin: miter"> <path d="M182.38483,365.80637L175.335,376.81277L169.91898,389.54987L183.95772,388.63977L191.33836,371.53043L188.64401,368.9558L182.43074,365.82947"/> </g> <g style="fill:rgb(37,58,113); fill-opacity:1.0; stroke-linejoin: miter"> <path d="M419.24194,-33.6608L409.99344,-37.389717L389.39148,-50.83448L398.7871,-50.561295L391.72525,-58.143154L361.35873,-55.87526L389.60495,-38.09292L419.13626,-33.676605"/> </g> <g style="fill:rgb(250,239,113); fill-opacity:1.0; stroke-linejoin: miter"> <path d="M417.6894,-54.56169L385.88947,-48.503304L371.99057,-49.265533L399.39642,-58.727364L372.06296,-59.834972L362.00677,-56.006626L360.74652,-49.67559L361.49042,-42.671272L379.93353,-35.92312L417.68515,-54.559597"/> </g> <g style="fill:rgb(250,239,113); fill-opacity:1.0; stroke-linejoin: miter"> <path d="M350.12814,-108.61309L354.82336,-95.951775L339.73013,-87.54059Q421.2303,-38.45421,464.76007,-14.653297Q504.83295,7.4668274,558.68445,32.469017L580.2821,-11.633675L580.0098,-11.840431Q548.6944,-33.149475,507.53275,-50.126873Q468.97345,-66.63402,350.30417,-108.550476"/> </g> <g style="fill:rgb(37,58,113); fill-opacity:1.0; stroke-linejoin: miter"> <path d="M400.80344,-43.35396L385.57294,71.46701L448.63513,115.671555L518.366,75.011986L519.52515,74.09423L477.20874,-16.39273L400.9075,-43.317265"/> </g> <g style="fill:rgb(229,57,45); fill-opacity:1.0; stroke-linejoin: miter"> <path d="M400.79773,-52.036663L502.24542,99.67053L552.0531,131.86592L600.4988,62.37485L513.55164,-45.05458L401.13715,-52.016518"/> </g> <g style="fill:rgb(142,62,29); fill-opacity:1.0; stroke-linejoin: miter"> <path d="M290.69324,-200.76823Q282.56647,-200.69025,278.43707,-199.32057Q276.71347,-199.09497,268.06403,-193.2417Q252.86395,-182.97618,250.32611,-172.58243Q248.99849,-167.81447,248.8624,-160.37665Q248.4443,-128.20224,249.29955,-128.36496Q249.59236,-121.58984,261.84174,-95.56208L336.15833,-109.982796Q338.68372,-114.88163,340.9418,-123.09313Q346.27606,-143.15053,346.67957,-156.61789Q346.965,-167.51788,341.71725,-175.44989Q333.1909,-187.59833,318.33224,-196.22437Q316.139,-197.324,314.1388,-197.64969L309.0376,-198.12206Q299.45016,-200.208,297.8176,-200.3246Q294.7334,-200.74863,290.87277,-200.76799"/> </g> <g style="fill:rgb(255,209,159); fill-opacity:1.0; stroke-linejoin: miter"> <path d="M313.61652,-158.38193Q300.55328,-158.1883,290.06253,-148.73668Q274.97205,-150.41275,267.3322,-151.88803Q264.4584,-151.9672,260.835,-149.51369Q254.81291,-145.50925,254.22151,-137.5109Q254.1155,-135.77325,254.82231,-132.88301L259.05856,-116.444626L258.5841,-106.837814Q256.0348,-117.98329,253.95639,-118.60944Q249.35019,-119.27474,247.9493,-113.3344Q247.87535,-111.786934,248.6358,-109.95549Q249.48451,-107.74589,252.52065,-103.068016Q253.6019,-97.55684,254.6319,-96.17842Q254.33249,-94.62084,262.01498,-91.373634L266.17502,-71.792786Q266.3673,-70.82695,267.0304,-69.52691Q267.95987,-67.25088,275.67023,-60.062164L264.61346,-2.8249664L287.41837,44.149612L309.72495,53.93181Q328.09634,20.903229,332.48557,-1.4877319Q335.86658,-17.691391,335.7809,-38.72316Q335.26904,-66.713066,332.1863,-69.86716L339.38562,-103.569695Q339.4773,-104.10184,340.0096,-105.00036Q343.89133,-109.55118,345.7917,-113.45351Q346.5866,-115.6868,346.79633,-120.92846Q347.0264,-129.15117,342.8548,-129.32489Q337.88318,-129.1743,334.5789,-121.54752L335.515,-144.27065Q335.61456,-144.5597,335.18378,-145.16383Q329.5034,-158.3219,313.6317,-158.38193"/> </g> <g style="fill:rgb(242,244,240); fill-opacity:1.0; stroke-linejoin: miter"> <path d="M335.76025,-68.51027L308.87238,-33.085106L309.2423,-15.090019L299.01498,-6.2815475L288.46738,37.319466L276.20004,6.9444275L274.39203,-7.7392693L280.95035,-35.913513L275.72116,-59.25191L244.7936,-23.192722L263.08347,5.4633865L256.49655,38.870293L254.48607,84.27275L270.0316,149.13043L251.87067,254.80421L254.64035,298.3576L355.1441,293.44513L360.2967,202.4564L341.24475,-6.090496L344.0776,-48.763073L335.76373,-68.50198"/> </g> <g style="fill:rgb(0,0,0); fill-opacity:1.0; stroke-linejoin: miter"> <path d="M315.14752,247.95293L263.12735,251.74727L261.5567,265.8012Q256.23154,276.87762,251.17397,285.6749Q243.04791,292.19763,235.25934,291.6066Q230.7894,291.61267,227.82722,288.92734Q229.33853,324.3205,229.84303,327.4356Q236.39235,367.61475,236.03423,371.02274Q245.07272,391.83212,253.1655,415.9219L258.9393,434.79675Q264.42435,454.46722,273.91592,493.6461L277.96246,500.98895Q280.836,516.23724,284.95938,522.2727L284.82492,553.64954L290.72278,569.3217L297.76422,633.43414Q298.59555,639.2374,299.19196,658.7033L306.5224,678.1088L308.8786,707.6662L318.36877,733.9949L356.51007,734.8502L367.00247,710.46594L365.09888,687.73413L361.82642,676.2199L365.185,662.6836L367.20322,644.68854L363.55243,529.1584L369.70935,395.36682L387.158,310.5222L389.23853,279.0225L374.56097,285.2266Q363.97955,285.11633,350.34546,280.18518L333.76,268.54736L315.40335,248.236"/> </g> <g style="fill:rgb(190,230,255); fill-opacity:1.0; stroke-linejoin: miter"> <path d="M340.64178,-52.4613Q334.50702,-41.82773,328.19867,-28.20214L300.81696,76.18886L288.07028,110.04172L259.6315,71.54033L258.589,53.119923L266.9959,3.302452L248.49083,-15.296547L241.60089,-12.509296L213.15088,8.154278Q212.0767,24.231121,212.45776,33.332027L215.34941,67.46695Q215.4769,75.00894,214.20935,82.46564Q212.6879,92.22592,207.00136,110.92888L196.96562,160.489L174.13446,250.0386Q169.9287,268.07538,168.0266,288.9837L207.14044,297.48047L233.23444,195.42627Q212.66245,274.42358,218.32346,285.31497Q220.65494,294.28732,229.94104,294.80762L254.79611,292.45346Q257.33203,292.20526,259.5083,288.95135Q261.7151,285.33478,263.75607,276.16666L268.16876,252.46475L287.68542,165.35619Q301.7744,220.05542,310.97482,240.37671Q320.38934,262.67062,334.89407,274.5792Q349.52136,286.61514,368.35428,287.73386Q371.29657,288.78543,403.04477,283.2604L423.14703,277.4077L407.65344,196.60355Q403.17847,169.4732,402.30762,150.49107Q400.38983,108.678116,414.19144,78.30412Q417.7888,70.93512,420.62555,72.48361L447.4055,93.272125L489.62042,114.721634L498.02942,112.44266Q503.58777,108.949326,510.01846,100.55856L513.38983,87.34308L512.5409,75.07309L507.44388,58.779934L416.05035,-17.964008L412.86206,-35.229588L396.39392,-38.775192L397.96228,-6.023594L374.98642,20.52811L353.43213,5.2709427Q351.26843,-2.0449333,345.8531,-7.4727554L337.98438,-24.799332L339.98853,-32.040516L344.45123,-32.891056Q350.08588,-26.837414,356.16333,-14.608421L360.7177,-15.643929Q364.57404,-19.848007,368.55576,-25.83543Q371.80618,-32.791435,368.89435,-41.180794Q359.84262,-51.002544,355.22263,-46.70331L350.61353,-51.69615L341.21674,-52.42046"/> </g> <g style="fill:rgb(255,209,159); fill-opacity:1.0; stroke-linejoin: miter"> <path d="M340.42075,-33.79884L337.84534,-24.774794L349.36734,6.1066704L379.49078,27.301636Q388.51334,28.780807,391.99164,26.749313Q395.99542,24.773415,397.607,18.004566Q399.29916,11.991711,400.09534,-5.0254593L398.0912,-13.796667L397.72412,-43.243443L393.52963,-45.468567L368.9065,-43.396328L368.80045,-36.48694L365.7012,-24.48665L356.263,-15.3841L351.01624,-30.044973L340.5292,-33.760414"/> </g> <g style="fill:rgb(255,209,159); fill-opacity:1.0; stroke-linejoin: miter"> <path d="M380.7562,-60.194675L371.49298,-63.79937L359.57285,-64.500305L351.0583,-58.53408L347.09387,-52.452732L351.53757,-47.862274L359.396,-44.420715L362.99115,-47.226814L371.7025,-49.994545L387.05844,-52.62372L380.7859,-60.159016"/> </g> <g style="fill:rgb(142,62,29); fill-opacity:0.3137255; stroke-linejoin: miter"> <path d="M329.73895,-71.91311L320.33658,-65.34126Q314.17786,-60.184082,310.84662,-58.080727Q306.2095,-55.08149,302.16156,-54.09896Q297.66132,-52.95411,291.8329,-54.046696Q286.84125,-54.87771,276.5863,-58.84016L306.66235,-42.227318L329.70932,-71.874985"/> </g> <g style="fill:rgb(0,0,0); fill-opacity:1.0; stroke-linejoin: miter"> <path d="M363.597,711.62915L315.13318,721.2184Q317.45447,739.1768,314.97345,749.3002Q314.0718,753.6151,311.82245,759.26013Q311.5769,760.2839,303.69604,777.54297Q302.00473,781.48035,300.96243,784.5386Q298.49686,791.7504,298.3042,797.9371Q297.9955,816.4635,313.81625,819.9827Q329.80182,822.38,342.294,805.9866Q352.45654,792.33636,357.2788,771.05786Q361.61716,753.01855,363.59143,711.7926"/> </g> <g style="fill:rgb(0,0,0); fill-opacity:1.0; stroke-linejoin: miter"> <path d="M319.38947,652.434Q312.43066,653.1121,305.2719,658.5468Q301.07666,661.6434,295.46945,666.7269Q274.59467,686.7961,274.8128,686.11584Q268.46164,691.44586,262.66373,694.233Q257.11716,696.9717,249.58763,698.1866Q246.49359,698.7018,242.40044,699.07245Q225.60188,700.21893,224.84486,700.4251Q219.97784,700.9769,215.84094,701.9923Q204.7022,704.8133,204.14822,708.5246Q202.8234,712.61743,233.3432,719.03125L281.1657,718.7138L320.10458,710.0577L319.38947,652.4364"/> </g> <g style="fill:rgb(229,57,45); fill-opacity:1.0; stroke-linejoin: miter"> <path d="M417.51483,-36.600403L383.06265,-51.355064L410.6901,-46.36199L378.62277,-57.728672L363.25854,-54.529175L386.07974,-40.803368L417.45584,-36.60828"/> </g> <g style="fill:rgb(0,0,2); fill-opacity:0.2901961; stroke-linejoin: miter"> <path d="M404.0871,-49.916138L435.93723,-4.4357834L465.40448,6.221573L505.24994,-44.398922L404.14642,-49.912903"/> </g> <g style="fill:rgb(0,0,2); fill-opacity:0.28235295; stroke-linejoin: miter"> <path d="M359.49887,-103.55555L364.8691,-91.658585L350.42297,-83.735L402.96042,-55.772453L483.88672,-53.35641L359.7527,-103.45309"/> </g> <g style="fill:rgb(0,0,2); fill-opacity:0.14117648; stroke-linejoin: miter"> <path d="M220.49536,27.146387L241.0053,125.50131L234.8985,166.33255L231.90837,186.88998Q229.15791,206.37918,229.47621,207.39722Q230.14584,209.86345,246.98729,122.3447Q237.17448,88.72882,234.79123,80.16348Q230.3739,64.494774,227.26941,50.44562L220.5196,27.225893"/> </g> <g style="fill:rgb(0,0,2); fill-opacity:0.13333334; stroke-linejoin: miter"> <path d="M266.00018,4.667195L258.21606,53.382324L259.05698,73.65385L288.33456,110.613945Q271.6572,72.94156,267.99695,55.687946Q265.70844,45.265472,265.7633,35.26015Q265.69537,26.120436,268.17395,10.669749L266.05402,4.8138967"/> </g> <g style="fill:rgb(84,84,91); fill-opacity:0.41568628; stroke-linejoin: miter"> <path d="M290.6406,298.18427L278.53052,385.31998L280.53424,406.83307L308.02933,683.32294L292.00482,490.19073L284.73914,385.20236L284.72385,384.54767L290.60394,298.71875"/> </g> <g style="fill:rgb(0,0,0); fill-opacity:0.07058824; stroke-linejoin: miter"> <path d="M400.082,-1.5474528L396.2936,17.926344L391.03845,25.182962L371.18713,21.009981L383.4941,34.830364Q404.6145,66.29646,463.04874,107.26708L463.04877,107.26708L468.59,104.036026L489.62042,114.721634L498.02942,112.44266Q502.63535,109.54791,507.84027,103.29029L507.84534,103.29029L552.0531,131.86592L553.85205,129.28546L553.8576,129.28546Q553.0713,128.04678,552.22217,126.7549Q531.6505,97.0932,497.79303,68.705666Q468.264,43.304493,400.3457,-1.374406L400.082,-1.5474528L400.082,-1.5474528 Z"/> </g> </g> </svg>