<?xml version="1.0" encoding="UTF-8"?>
<svg viewBox="0 0 221.73087 303.85831" xmlns="http://www.w3.org/2000/svg" xmlns:xlink="http://www.w3.org/1999/xlink">
 <defs>
  <linearGradient id="a">
   <stop stop-color="#fff9ff" offset="0"/>
   <stop stop-color="#fff9ff" stop-opacity="0" offset="1"/>
  </linearGradient>
  <linearGradient id="ai" x1="-532.5" x2="-429.9" y1="18.799" y2="-54.923" gradientUnits="userSpaceOnUse">
   <stop offset="0"/>
   <stop stop-color="#af5605" offset="1"/>
  </linearGradient>
  <linearGradient id="aj" x1="-642.14" x2="-641.66" y1="-221.09" y2="-213.67" gradientUnits="userSpaceOnUse">
   <stop stop-color="#db9f00" offset="0"/>
   <stop stop-color="#f5f2de" offset="1"/>
  </linearGradient>
  <linearGradient id="b">
   <stop stop-color="#f5ff82" offset="0"/>
   <stop stop-color="#f59f00" offset="1"/>
  </linearGradient>
  <linearGradient id="v" x1="-491.42" x2="-485.43" y1="7.7312" y2="-3.6656" gradientUnits="userSpaceOnUse" xlink:href="#a"/>
  <linearGradient id="w" x1="-494.73" x2="-489.14" y1="9.3331" y2="1.0521" gradientUnits="userSpaceOnUse" xlink:href="#a"/>
  <linearGradient id="x" x1="-507.25" x2="-503.01" y1="7.985" y2="1.8224" gradientUnits="userSpaceOnUse" xlink:href="#a"/>
  <linearGradient id="y" x1="-512.64" x2="-508.6" y1="7.2147" y2="1.8224" gradientUnits="userSpaceOnUse" xlink:href="#a"/>
  <linearGradient id="z" x1="-514.37" x2="-511.48" y1="8.5627" y2="4.7111" gradientUnits="userSpaceOnUse" xlink:href="#a"/>
  <linearGradient id="aa" x1="-516.49" x2="-513.02" y1="11.451" y2="6.8295" gradientUnits="userSpaceOnUse" xlink:href="#a"/>
  <linearGradient id="ab" x1="-526.31" x2="-523.62" y1="5.0963" y2="1.6298" gradientUnits="userSpaceOnUse" xlink:href="#a"/>
  <linearGradient id="ac" x1="-488.14" x2="-490.08" y1="18.015" y2="9.268" gradientUnits="userSpaceOnUse" xlink:href="#a"/>
  <linearGradient id="ad" x1="-494.39" x2="-492.67" y1="19.733" y2="12.002" gradientUnits="userSpaceOnUse" xlink:href="#a"/>
  <linearGradient id="ae" x1="-499.23" x2="-498.45" y1="18.176" y2="14.578" gradientUnits="userSpaceOnUse" xlink:href="#a"/>
  <linearGradient id="af" x1="-502.24" x2="-498.39" y1="6.8295" y2="1.4372" gradientUnits="userSpaceOnUse" xlink:href="#a"/>
  <linearGradient id="ag" x1="-503.6" x2="-521.53" y1="28.011" y2="-30.092" gradientUnits="userSpaceOnUse" xlink:href="#a"/>
  <linearGradient id="ah" x1="-485.56" x2="-491.78" y1="-17.441" y2="-13.302" gradientUnits="userSpaceOnUse" xlink:href="#a"/>
  <linearGradient id="ak" x1="-627.72" x2="-638.72" y1="-170.7" y2="-221.69" gradientUnits="userSpaceOnUse" xlink:href="#b"/>
  <linearGradient id="al" x1="-633.66" x2="-632.15" gradientUnits="userSpaceOnUse" xlink:href="#b"/>
  <radialGradient id="c" cx="281.37" cy="263.67" r="8.8756" gradientTransform="matrix(1.5216 1.657 -.86753 .79666 -777.13 -715.37)" gradientUnits="userSpaceOnUse" xlink:href="#a"/>
  <radialGradient id="d" cx="284.06" cy="282.8" r="13.719" gradientTransform="matrix(1.1096 .9795 -.41194 .46662 -774.39 -440.22)" gradientUnits="userSpaceOnUse" xlink:href="#a"/>
  <radialGradient id="e" cx="349.07" cy="251.74" r="8.2767" gradientTransform="matrix(-1.4936 .55551 -1.2338 -3.3171 325.59 591.97)" gradientUnits="userSpaceOnUse" xlink:href="#a"/>
  <radialGradient id="f" cx="342.17" cy="263.08" r="12.046" gradientTransform="matrix(1.7173 1.421 -.36866 .44553 -1007.5 -643.1)" gradientUnits="userSpaceOnUse" xlink:href="#a"/>
  <radialGradient id="g" cx="349.06" cy="283.81" r="22.394" gradientTransform="matrix(1.6426 .99316 -.17411 .28797 -1034.5 -450.28)" gradientUnits="userSpaceOnUse" xlink:href="#a"/>
  <radialGradient id="h" cx="251.46" cy="237.81" r="18.814" gradientTransform="matrix(1.3528 .73055 -.36871 .68278 -860.66 -410.19)" gradientUnits="userSpaceOnUse" xlink:href="#a"/>
  <radialGradient id="i" cx="267.89" cy="241.49" r="10.281" gradientTransform="matrix(1.265 1.3384 -.53016 .50109 -802.47 -538.55)" gradientUnits="userSpaceOnUse" xlink:href="#a"/>
  <radialGradient id="j" cx="278.31" cy="245.57" r="10.774" gradientTransform="matrix(1.2768 1.1379 -.52178 .58547 -807.99 -517.63)" gradientUnits="userSpaceOnUse" xlink:href="#a"/>
  <radialGradient id="k" cx="286.43" cy="247.95" r="11.863" gradientTransform="matrix(1.138 1.1608 -.53455 .52407 -766.45 -519.45)" gradientUnits="userSpaceOnUse" xlink:href="#a"/>
  <radialGradient id="l" cx="296.15" cy="247.42" r="8.0484" gradientTransform="matrix(-.42565 .47809 -1.2314 -1.0963 -133.93 75.125)" gradientUnits="userSpaceOnUse" xlink:href="#a"/>
  <radialGradient id="m" cx="301.14" cy="249.25" r="10.649" gradientTransform="matrix(.97712 .89935 -.6296 .68404 -695.46 -496.07)" gradientUnits="userSpaceOnUse" xlink:href="#a"/>
  <radialGradient id="n" cx="311.27" cy="250.01" r="6.4844" gradientTransform="matrix(1.2042 1.8274 -.76305 .50283 -731.88 -747.25)" gradientUnits="userSpaceOnUse" xlink:href="#a"/>
  <radialGradient id="o" cx="323.82" cy="250.63" r="6.7623" gradientTransform="matrix(1.127 .48505 -.4711 1.0946 -782.16 -483.53)" gradientUnits="userSpaceOnUse" xlink:href="#a"/>
  <radialGradient id="p" cx="321.69" cy="252.17" r="5.1562" gradientTransform="matrix(.98788 1.1904 -.92535 .76793 -621.85 -627.16)" gradientUnits="userSpaceOnUse" xlink:href="#a"/>
  <radialGradient id="q" cx="319.73" cy="253.68" r="3.7969" gradientTransform="matrix(1 0 0 1.2564 -859.09 -367.79)" gradientUnits="userSpaceOnUse" xlink:href="#a"/>
  <radialGradient id="r" cx="252.76" cy="199.46" r="29.439" gradientTransform="matrix(-2.5304 .86187 -.84293 -2.475 199.85 122.24)" gradientUnits="userSpaceOnUse" xlink:href="#b"/>
  <radialGradient id="s" cx="442.68" cy="209.34" r="126.26" gradientTransform="matrix(-.51768 -3.7963 1.4664 -.19999 -586.12 1779.2)" gradientUnits="userSpaceOnUse" xlink:href="#b"/>
  <radialGradient id="t" cx="416.86" cy="177.97" r="126.26" gradientTransform="matrix(.29458 -.24279 .51204 .62126 -738.16 33.162)" gradientUnits="userSpaceOnUse" xlink:href="#b"/>
  <radialGradient id="u" cx="282.92" cy="217.64" r="74.818" gradientTransform="matrix(1.8148 1.8509 -1.664 1.6315 -814.82 -961.31)" gradientUnits="userSpaceOnUse" xlink:href="#b"/>
 </defs>
 <g transform="matrix(.7142 0 0 .7142 499.84 196.56)" fill-rule="evenodd">
  <path d="m-587.52988,25.68924c-.34598.99325-1.1217,3.3093-1,4.34375 .15619,1.32762 1.73458,1.59404 2.28125,2.375s-.0985.9222-.90625,1.78125c-1.03872,1.10469-5.07881.7031-6.875.625s-4.38946-1.79079-5.8125-3.3125c-1.32849-1.42063.13843-.43013-.03125-2.53125-3.10557,1.4051-6.31939,2.74299-9.59375,4 .55639,2.9592.47858,3.45746 1.40625,3.65625 .54667.11714 2.10249.31107 3,1.125 .49774.45137.34331.40677 1.53125.71875s2.933,1.47262 4.5625,1.59375c6.41142.47659 8.60948-1.68768 8.84375-2.15625s2.48199.15558 5.34375-1.75c2.35125-1.56563 2.2818-2.77991 3.46875-3 2.32582-.43128 1.89059-3.94336 1.78125-4.65625-.81829.02205-1.92506-.06043-3.4375-.3125-1.76863-.29477-3.2308-1.29265-4.5625-2.5zm-12.65625,6.53125c.04349.02164.2185.21382.625.6875 2.73906,3.19174 5.98619,3.42645 5.84375,3.21875 0,0-.59617.80922.6875,1.75 .05522.11045.42075.25658-.59375.34375-5.45545.46874-7.47882-.41048-7.21875-1.25s.05705-.73633-.03125-1.5c-.08573-.74155.23958-.72942.75-1.125 .82426-.6388-.19298-2.18992-.0625-2.125z" fill="#ad6700" fill-opacity=".92353" stroke="#000" stroke-width=".1"/>
  <path d="m-602.81 17.72c0.46259-0.14067 0.91754-0.26476 1.3438-0.375-2.0702-1.5817-5.6627-4.2942-5.5938-4.1562 0.18067 0.36134 2.2797 2.7643 4.25 4.5312z" fill="#000100" fill-opacity=".21176" stroke="#000" stroke-width=".2"/>
  <path d="m-603.21738,18.18924c-.17175-.11063-.1834-.09019-.375-.21875-1.01307.34698-2.02631.7701-2.90625,1.28125-1.21739.70718-2.19476,1.0276-3.0625,1.28125s-1.62586.44051-2.34375.9375-.38213.26696-.59375.15625-.97062-.10208-3.9375.8125c-.85255.26281-1.02489.37097-1.0625.75s.0595,1.02891-.28125,2.34375c-.28854,1.1134-.07308,1.72187.09375,2.4375 .08341.35781.16425.72835.15625,1.21875s-.10749,1.09733-.34375,1.875c-.30827,1.01469-.3793,1.92322-.28125,2.71875s.36519,1.47806.6875,2.09375c4.56562-1.56728 9.12895-3.2759 13.53125-5.125s8.64355-3.83868 12.53125-5.96875c-2.74268-1.78982-6.34529-4.59754-10.0625-7.4375-.42621.11024-.88116.23433-1.34375.375 .43855.39329.8791.90599 1.28125,1.1875 .59161.41413.63611.55955.34375.46875-.02538-.00788-.12452-.08155-.15625-.09375-.32468-.12484-.91407-.46842-1.875-1.09375zm10.28125,2.53125c-.11841.17227 1.57895,2.1192 2.5625,3.5 .28824-.16236.55971-.33605.84375-.5-.90608-.94611-1.78755-1.87744-2.71875-2.59375-.44868-.34514-.65171-.45832-.6875-.40625z" fill="#ff0" fill-opacity=".62941" stroke="#000" stroke-width=".2"/>
  <path d="m-615.49863,8.53299c-7.55921,2.44203-7.28125,4.46875-7.28125,4.46875s-.15649,1.71875-.78125,1.71875-1.87542.62518-2.96875,1.09375-4.68762-.46851-5,.15625-.00053-.93762-1.40625-1.25-4.37535-.46816-5.3125,1.09375-.62565,2.34387-2.34375,2.65625-3.92736-.04757-4.6875.3125c-2.96763,1.40572-5.00047,1.40625-6.25,1.40625s-2.93773,1.40672-3.5625,2.65625c-.61629,1.23257-.7703,3.06971.125,4.46875-.15396.05932-.48859.28665-.6875.375 .50862-.21063 1.34375-.625 1.34375-.625s7.41269-1.72195 14-3.46875c.14201.05027 1.65496.57953 3.375.9375 .86002.17898 1.78013.3011 2.59375.3125s1.52671-.08706 2-.40625c.34368-.23178.66344-.34822.96875-.375s.60297.02832.875.15625c.54406.25585 1.0272.77083 1.46875,1.34375s.83891,1.19986 1.21875,1.6875 .73481.84375 1.09375.84375 .52223.35519.59375.90625 .0473,1.29821 0,2.125-.09624,1.73533-.09375,2.5625 .06036,1.57278.28125,2.125c.42682,1.06707.90064,1.81915 1.375,2.40625 1.07448,1.33842 2.13307,1.67591 2.59375,1.90625 .66267.33133 1.10443,4.29367 0,4.625-.33451.10036-1.33306.13314-2.4375.90625s-1.19391,2.2102-.53125,3.09375c1.23262,1.6435-.79794.88314-.6875,1.65625s-3.53257-.66825-6.625-2.65625c-2.17144-1.39593-3.10422-4.81734-3.40625-6.25-.23034-.48408-.41263-.86979-.46875-.9375s.01393.18259.28125,1c-.14018,1.63563-.15905,5.88685 3.28125,9.0625 .06085.05617.12588.10142.1875.15625-7.21241,1.85942-9.76971-2.00654-9.3125-2.9375 .28782-.58607-1.54661-1.15672-.84375-2.40625s1.5625-.23488 1.5625-1.5625c0-.34206.01521-.62986.03125-.9375 1.65281-.44056 3.3404-.88492 5.09375-1.375-4.77823,1.33557-9.25774,2.47038-13.125,3.4375 .22672.70167.68905,1.44162 1.65625,1.53125 1.39448.12921 1.99577,4.50079 8.0625,6.3125 2.29885.68651 5.42481-.64395 7.34375-1.6875 2.58316,2.10825 5.60786,3.13116 6.625,3.53125 1.55139.61024 3.3014-1.31892 6.0625-.65625 1.62517.39004 1.43826-1.72309 2.21875-1.75 3.20287-.11046 3.54857-1.55532 3.1875-2.21875-1.21854-2.239.99399-4.51629 0-6.0625-1.56311-2.4315-.88101-4.09548-1.875-5.53125-.46457-.67105-1.22057-1.5117-1.78125-2.59375-.32231-.61569-.58945-1.29822-.6875-2.09375s-.02702-1.70406.28125-2.71875c.23626-.77767.33575-1.3846.34375-1.875s-.07284-.86094-.15625-1.21875c-.16683-.71563-.38229-1.3241-.09375-2.4375 .34075-1.31484.24364-1.96472.28125-2.34375s.20995-.48719 1.0625-.75c2.96688-.91458 3.72588-.92321 3.9375-.8125s-.12413.34074.59375-.15625 1.47601-.68385 2.34375-.9375 1.84511-.57407 3.0625-1.28125c.87994-.51115 1.89318-.93427 2.90625-1.28125 .1916.12856.20325.10812.375.21875-1.90266-1.23816-4.91057-3.44185-9-7.15625l-1.375,1.875c0,0-.31787-1.5717-1.90625-4.375z" fill="#ad6700" fill-opacity=".92353" stroke="#000" stroke-width=".2"/>
  <path d="m-640.31113,23.59549c-6.58731,1.7468-14,3.46875-14,3.46875s-.83513.41437-1.34375.625c-.47954.213-1.0202.4914-1.65625.90625-.43228.29001-.87022.63414-1.3125,1.03125-.19809.1783-.39999.32872-.59375.53125-.67346.70168-1.30549,1.51723-1.8125,2.53125-2.18668,4.37336 1.40625,9.21876 1.40625,9.21875 3.74859,5.15431 8.40707,3.67166 10.59375,3.125 .02014-.00503.04233-.02621.0625-.03125 2.44004-.6102 5.18249-1.31048 8.03125-2.0625 1.66628-.43987 3.33034-.88211 5.09375-1.375-.06911-.21131-.04284-.54658.1875-.0625 3.55459-.99542 7.29038-2.08375 11.09375-3.28125-.47436-.5871-.94818-1.33918-1.375-2.40625-.22089-.55222-.27876-1.29783-.28125-2.125s.04645-1.73571.09375-2.5625 .07152-1.57394 0-2.125-.23481-.90625-.59375-.90625-.71391-.35611-1.09375-.84375-.7772-1.11458-1.21875-1.6875-.92469-1.0879-1.46875-1.34375c-.27203-.12793-.56969-.18303-.875-.15625s-.62507.14322-.96875.375c-.11832.0798-.26013.13356-.40625.1875-.29224.10788-.62267.19352-1,.21875-.18866.01261-.39034.00285-.59375,0-.81362-.0114-1.73373-.13352-2.59375-.3125-1.72004-.35797-3.23299-.88723-3.375-.9375z" fill="#ff0" fill-opacity=".62941" stroke="#0000bc" stroke-width=".2"/>
  <path d="m-632.31113-180.06076c-.54141.13017-1.2921.33322-1.25.34375 .73945.18487 1.12251.15196 1.28125,0 .07937-.07598-.01292-.22391-.03125-.34375z" fill="url(#al)" stroke="#000" stroke-opacity=".15882" stroke-width=".2"/>
  <path d="m-650.46738-219.71701h-.03125c-.69399-.26735-1.2327-.70146-1.46875-.9375-.50361-.50361-1.03238-.73537-1.625-.84375-.32034-.05859-.68012-.08531-1.0625-.09375-.70287.84241.34857,1.05495.8125,1.625 .2149.26404-3.01459.11163-2.5.71875 1.46471,1.72808-.99269.77865.09375,2.125 .51311.63585.61826,1.45038-.625,1.625-1.44938.20357-1.86803-1.37247-1.9375-.53125-.07079.85733 1.62925,2.86831 1.40625,2.71875-2.55627-1.71439-.97229-.0513.28125,1.8125-.1153-.0976-.25124-.18662-.375-.28125 .88134.67481 1.56837,1.41285 1.6875,2.21875 .52801,3.57198-.98212,1.94438-.71875,5.53125 .39425,5.36941 1.33929,4.90179-.625,7.9375s2.32557,2.09557-.8125,7.84375c-2.17627,3.9864.60285,5.98609-2.28125,8.15625 0,0-1.45859,1.27108-1.84375,1.65625s2.70782-.20275 1.9375.375c-.17246.12934-1.26821,1.88589-1.90625,2.75-.14164.35695-.30619.71483-.3125.96875-.00851.34275.08778.57958.25.75 .32444.34085.9217.36727 1.40625.125s1.23247-.77638 1.8125-.9375c.29002-.08056.52466-.05373.65625.125s.18073.5271.03125,1.125c-.10704.42815-.13089.56871-.0625.53125s.215-.25192.375-.53125c.32-.55866.75391-1.37891.9375-1.5625 .23283-.23283.36969-.1942.46875.03125s.13891.63282.1875,1.09375c.09718.92185.19861,2.09815.59375,2.625 .17463.23283.299.1991.4375.03125s.28721-.49139.40625-.875c.23809-.76721.45843-1.76061.71875-2.28125 .24015-.48029.43825-.67394.625-.65625s.35294.23127.5.53125c.29412.59996.53248,1.56496.75,2 .19322.38644.30235.5127.375.46875s.08168-.26343.09375-.5625c.02414-.59814-.01675-1.52677.125-2.09375 .0625-.25001.17631-.25188.3125-.09375s.30672.47666.5.8125 .42246.68562.65625.96875 .46105.5.71875.5c.21558,0 .51278-.85538.75-1.75s.41494-1.82989.5-2c.16789-.3358.53395.57327.625.9375 .07943.31771.28421-.58255.5625-1.1875 .13914-.30247.30011-.53028.46875-.5s.34659.32384.53125,1.0625c.27081,1.08324.49579,1.34011.6875,1.125s.35061-.90243.5625-1.75c.13184-.52737.31363-.87224.5-1.0625s.40367-.23064.59375-.21875c.38015.02377.69124.32125.78125.34375 .56628.14157.8681.08943 1.03125-.03125s.18979-.31559.21875-.5 .05504-.35663.21875-.40625 .46384.0288 1.03125.3125c.79155.39577 1.03443.78555 1.1875.84375s.21703-.2153.6875-1.15625c.25078-.50155.41675-1.04186.625-1.5625 .09954-.24885.20663-.25144.3125-.09375s.22077.47749.34375.84375c.24595.73253.52722,1.68347.90625,2.0625 .24.24.45.20214.625,0s.31542-.57048.46875-1c.30667-.85905.61374-1.9575 1.09375-2.4375 .26547-.26547.4571-.6017.625-.9375 .12862-.25723.88118.32778 1.21875.875 .08439.1368.01292.22391.03125.34375 .40875-.09827.56226-.09363.9375-.28125 .39729-.19865.57732-.3813.625-.5625s-.03549-.37203-.1875-.53125c-.30402-.31843-.85924-.57798-1.0625-.78125 .83302-.41651 1.84144-.59144 2.5-1.25 .19826-.19826.31662.33571.40625.84375s.15075.99075.21875.71875c.17602-.70407.36359-1.12094.53125-1.34375s.32694-.24402.46875-.1875c.28363.11304.48713.57491.5625.59375 .31946.07986-.20838.62512-.3125.9375-.10048.30145.00134.32454.1875.1875s.45155-.4261.75-.8125c.59691-.7728 1.25-1.86448 1.25-2.5 0-.50855.1107-.79367.28125-.90625s.41049-.06648.6875.0625c.55403.25795 1.24841.85858 1.84375,1.15625 .19894.09947.36045.05446.46875-.09375s.16483-.40419.21875-.6875c.10785-.56661.14211-1.2872.25-1.71875 .068-.272.32161-.13044.625.09375s.65713.53125.9375.53125c.25029,0 .21379-.64338.4375-1.125 .11186-.24081.27164-.44632.59375-.5s.79179.03652 1.46875.375c.16239.08119.21745.03066.25-.09375s.05457-.33678.09375-.5625 .09897-.46476.28125-.6875 .47564-.41578.9375-.53125c1.17713-.29428 1.66241.10629 2.5-.3125 .72466-.36233.73221-.68445.90625-.90625s.51563-.34375 1.90625-.34375c1.15374,0 1.7343-.03256 2.09375-.28125s.49887-.71423.71875-1.59375c.05436-.21745.18909-.14011.375.0625s.43555.53218.65625.78125 .43502.42183.59375.34375 .25-.40867.25-1.1875c0-.4217-.10274-.76141-.25-1.03125s-.35098-.46847-.5625-.625c-.42305-.31306-.88041-.4402-1.0625-.53125-.58903-.29452.12576-.20709 1.09375.0625s2.19058.72183 2.65625,1.1875c.22393.22394.53322.22367.875.125s.71674-.29587 1-.4375c.20879-.10439.24193-.25301.21875-.40625s-.10104-.3098-.125-.40625c-.04793-.19291.1327-.16803 1.46875.5 1.08298.54149 1.82182.68621 2.125.5 .15159-.09311.21658-.28999.125-.53125s-.3206-.53935-.6875-.90625c-.49391-.49392-.62512-1.25024-.9375-1.875-.10478-.20955-.03591-.26248.15625-.25s.50754.0937.84375.1875 .70387.18433 1.03125.21875 .61559.00942.78125-.15625c.41651-.41651.67856-1.10714 1.25-1.25 .28572-.07143.32583-.21379.21875-.40625s-.36259-.43715-.6875-.6875c-.64982-.5007-1.56002-1.05283-2.03125-1.40625-.36377-.27283-.48541-.40073-.4375-.4375s.2537.02967.53125.125c.5551.19067 1.39982.52965 1.78125.625 1.03312.25828 1.60711.27257 2.0625.375s.79349.29349 1.375.875c.39134.39135.10402-.15471-.40625-.84375s-1.24433-1.52202-1.78125-1.65625c-.4354-.10885-.83504-.65137-1.15625-1.25s-.56471-1.25442-.71875-1.5625c-.36723-.73448-1.99817-1.68567-2.5-2.1875-.95768-.95768-1.7341-1.3358-2.8125-1.875-.63373-.31686-1.04354-.53243-1.5625-.6875s-1.14848-.25-2.1875-.25c-1.78062,0-2.89646-.25536-4.375-.625-.41376-.10344-.80591-.53343-1.21875-1s-.84732-.97054-1.28125-1.1875c-.64654-.32327-1.1348-.56528-1.6875-.71875s-1.17123-.21875-2.0625-.21875c-.64901,0-2.9876-1.22507-3.4375-1.5625-1.14424-.85818-2.30573-1.27956-3.4375-1.5625-.76006-.19002-1.02984-.64143-1.375-1.0625-.17258-.21054-.35874-.41648-.625-.5625s-.63344-.25-1.125-.25c-.76621,0-1.37732-.148-1.96875-.34375-.17743-.05872-.35544-.12384-.53125-.1875-.26666.20218-.32105.32245-.53125.375-.34077.08519-.68653.21802-.9375.40625-.28082.21061-.55864.38966-.875.46875-.36705.09176-.59821.15625-1,.15625-.22142,0-.71122.15625-1.09375.15625-.41812,0-.68243.08362-.875.46875-.11355.22711-.06057.38106-.0625.5s-.05894.1875-.40625.1875c-.20216,0-.61995.3881-.78125.46875-.27984.13992-.53056.3434-.78125.46875-.29753.14877-.73989.15625-1.09375.15625-.38483,0-.84771.0713-.9375.09375-.34055.08513-.80314,0-1.15625,0-.23133,0-.90168.37272-1.09375.46875-.37684.18841-.75346.15625-1.1875.15625h-1.25-1.15625c-.37306,0-.83888-.03003-1.09375-.09375-.33414-.08354-.64346-.48721-.78125-.625-.24147-.24146-.44555-.33215-.71875-.46875-.24345-.12172-.37216-.4659-.53125-.625-.23658-.23658-.57732-.26483-.78125-.46875-.23901-.23901-.40728-.37707-.5625-.6875-.15371-.30746-.33614-.4299-.53125-.625l-.71875-.71875c-.07082-.07082-.03107-.35987-.03125-.625z" fill="url(#ak)"/>
  <path d="m-636.34238-221.62326c-.01441.07862-.00952.17904-.03125.25-.37666,1.23001-2.70309,3.39427-7.09375,3.59375-2.32567.10566-3.41478-1.22963-4.03125-2.375-.18727.13048-.41674.27087-.75.4375-.3683.18415-.7414.26645-1.125.25-.37345-.01601-.75354-.12164-1.09375-.25 .00018.26513-.03957.55418.03125.625l.71875.71875c.19511.1951.37754.31754.53125.625 .15522.31043.32349.44849.5625.6875 .20393.20392.54467.23217.78125.46875 .15909.1591.2878.50328.53125.625 .2732.1366.47728.22729.71875.46875 .13779.13779.44711.54146.78125.625 .25487.06372.72069.09375 1.09375.09375h1.15625 1.25c.43404,0 .81066.03216 1.1875-.15625 .19207-.09603.86242-.46875 1.09375-.46875 .35311,0 .8157.08513 1.15625,0 .08979-.02245.55267-.09375.9375-.09375 .35386,0 .79622-.00748 1.09375-.15625 .25069-.12535.50141-.32883.78125-.46875 .1613-.08065.57909-.46875.78125-.46875 .34731,0 .40432-.06856.40625-.1875s-.05105-.27289.0625-.5c.19257-.38513.45688-.46875.875-.46875 .38253,0 .87233-.15625 1.09375-.15625 .40179,0 .63295-.06449 1-.15625 .31636-.07909.59418-.25814.875-.46875 .25097-.18823.59673-.32106.9375-.40625 .2102-.05255.26459-.17282.53125-.375-.41022-.14854-.81835-.29834-1.25-.40625-1.2955-.32387-2.73828-.99707-3.75-1.25-.78801-.197-1.31682-.42157-1.84375-.65625z" fill="url(#aj)" stroke="#000" stroke-opacity=".15882" stroke-width=".2"/>
  <path d="m-534.06113,30.62674c-.11024-.09519-.23068-.19943-.34375-.3125-.58839-.58839-.84781-1.03532-1.34375-1.53125-.80002-.80002-1.41527-1.19652-1.9375-1.71875-.76755-.76755-1.18213-1.21338-1.71875-1.75-.61754-.61754-.90372-1.28827-1.53125-2.125-.44399-.59198-1.26029-1.12495-1.9375-1.53125-.62411-.37447-.91461-1.10211-1.34375-1.53125-.58838-.58839-1.03532-.8478-1.53125-1.34375-.58839-.58838-.87906-1.06655-1.375-1.5625-.58839-.58839-1.0353-.84781-1.53125-1.34375-.58838-.58839-.84782-1.03531-1.34375-1.53125-.58839-.58839-.66031-1.25408-1.15625-1.75-.33431-.33431-.77575-1.52028-.96875-1.90625-.36164-.72328-.65635-1.50019-.96875-2.125-.38967-.77936-.60868-1.27988-.9375-1.9375-.42479-.84957-.84246-.9987-1.375-1.53125-.45024-.45024-.60522-1.46041-.9375-2.125-.3475-.695-.85769-1.12164-1.15625-1.71875l-.96875-1.9375c-.40805-.8161-.80535-1.01695-1.15625-1.71875-.34102-.68204-.82917-1.09586-1.15625-1.75-.37483-.74966-.68227-1.33329-.96875-1.90625-.34522-.69042-.58341-1.33365-.78125-2.125-.22472-.89889-.54658-1.68633-.75-2.5s-.59053-1.54962-.78125-2.3125c-.1925-.76998-.77169-1.14921-.96875-1.9375-.1925-.76998-.77167-1.14923-.96875-1.9375-.15521-.62084-.99807-1.18557-1.34375-1.53125-.43199-.43199-.76104-1.37931-1.15625-1.90625-.60619-.80825-.82193-1.45633-1.15625-2.125-.37342-.74684-.6815-1.27525-1.15625-1.75-.37848-.37847-.79865-1.35088-.9375-1.90625-.11813-.47253-.62325-.84023-.78125-1.15625l-61.4375-129.125c.11446.07632.1875.09426.1875-.09375 0-1.05588.18768-1.62572.40625-2.5 .06123-.24493.12751-.59763.09375-.90625s-.16757-.57314-.5-.65625c-.28772-.07193-.56989-.28324-.8125-.5625s-.44568-.62646-.53125-.96875c-.09571-.38284-.375-1.02551-.375-2.125 0-.49685-.16406-.71746-.3125-1s-.28126-.627-.28125-1.3125c0-.36596-.44531-.88281-.875-1.21875-.21484-.16797-.40137-.27801-.5625-.3125s-.28125.00452-.28125.1875c0,1.05478.1875,1.56684.1875,2.6875 0,.34986-.0463.63886-.09375.90625-.21155.09036-.41345.19089-.625.28125-.25235.10779-.37844-.13502-.46875-.46875s-.15854-.75457-.28125-1c-.25272-.50544-.39124-1.21998-.59375-1.625-.27257-.54517-.70812-.67622-.875-1.34375-.18344-.73376-.19295-1.26089-.4375-1.75-.0279-.05579-.4375,1.40032-.4375,1.75 1e-005,.24484-.65065,1.27004-.75,1.46875-.2332.4664-.438,1.00197-.59375,1.625-.04495.17977-.49432-.91479-.59375-1.3125-.15571-.62285-.01219-1.61126-.125-2.0625-.19537-.78152.125-1.31241.125-2.0625 0-.62898-.03869-.80392-.15625-.75s-.29647.32771-.5625.59375c-.36698.36698-.8941.61285-1.3125,1.03125-.24896.24896-.34316.21586-.34375,0s.08342-.61493.1875-1.03125c.18944-.75774-.14317-1.56759-.3125-1.90625-.00859-.01717-1.74695.15625-2.0625.15625-.04872,0-.15265.08627-.21875.03125s-.07212-.27401.09375-.9375c.1545-.61805.8611-.63187 1.03125-1.3125 .16114-.64455.26865-1.1958.53125-1.625-.03445-.02857-.06002-.21269-.09375-.21875-.16864-.03028-.32961.19753-.46875.5-.27829.60495-.48307,1.50521-.5625,1.1875-.09105-.36423-.45711-1.2733-.625-.9375-.08506.17011-.26278,1.10538-.5,2s-.53442,1.75-.75,1.75c-.2577,0-.48496-.21687-.71875-.5s-.46297-.63291-.65625-.96875-.36381-.65437-.5-.8125-.25-.15626-.3125.09375c-.14175.56698-.10086,1.49561-.125,2.09375-.01207.29907-.0211.51855-.09375.5625s-.18178-.08231-.375-.46875c-.21752-.43504-.45588-1.40004-.75-2-.14706-.29998-.31325-.51356-.5-.53125s-.38485.17596-.625.65625c-.26032.52064-.48066,1.51404-.71875,2.28125-.11904.38361-.26775.70715-.40625.875s-.26287.20158-.4375-.03125c-.39514-.52685-.49657-1.70315-.59375-2.625-.04859-.46093-.08844-.8683-.1875-1.09375s-.23592-.26408-.46875-.03125c-.18359.18359-.6175,1.00384-.9375,1.5625-.16.27933-.30661.49379-.375.53125s-.04454-.1031.0625-.53125c.14948-.5979.10034-.94627-.03125-1.125s-.36623-.20556-.65625-.125c-.58003.16112-1.33462.69856-1.8125.9375s-1.08181.21585-1.40625-.125c-.16222-.17042-.25851-.40725-.25-.75 .00631-.25392.17086-.6118.3125-.96875-2.21189,2.99561-5.98355,8.7658-8.375,16.6875-3.0813,10.20679-6.99565,30.48407-5.90625,40.09375 .86772,7.65421 13.23044,52.78431 15.15625,57.40625s18.72776,40.83664 36.625,58.40625c9.77255,9.59366 10.96875,15.625 10.96875,15.625l1.375-1.875c8.68196,7.88577 12.89637,9.42122 10.6875,7.875s-5.31036-5.27698-5.53125-5.71875 15.01201,11.68109 17,12.34375-5.05904-6.61513-2.1875-4.40625 5.30527,6.39984 9.28125,7.0625 5.28125,0 5.28125,0-5.09029-2.19605-2.21875-1.3125 16.15116,5.94177 19.90625,5.5-.44656.69259-5.96875-3.0625 7.7385,1.74572 12.15625,2.1875 5.2786,1.32186-.90625-2.875 8.18241,2.88915 11.9375,4.65625 2.43831,1.09457-.875-2.21875 1.75906-2.6592 7.28125.875 9.28125,4.65625 9.28125,4.65625-9.84504-7.11403-6.96875-5.96875z" fill="url(#u)"/>
  <path d="m-502.62363-38.49826h-6.59375-41.53125-21.1875c-1.16186,0-3.61921.05221-5.875.15625l5.28125,11.09375c.158.31602.66312.68372.78125,1.15625 .13885.55537.55902,1.52778.9375,1.90625 .47475.47475.78283,1.00316 1.15625,1.75 .33432.66867.55006,1.31675 1.15625,2.125 .39521.52694.72426,1.47426 1.15625,1.90625 .34568.34568 1.18854.91041 1.34375,1.53125 .19708.78827.77625,1.16752.96875,1.9375 .19706.78829.77625,1.16752.96875,1.9375 .19072.76288.5782,1.50032.78125,2.3125s.52528,1.60111.75,2.5c.19784.79135.43603,1.43458.78125,2.125 .28648.57296.59392,1.15659.96875,1.90625 .32708.65414.81523,1.06796 1.15625,1.75 .3509.7018.7482.90265 1.15625,1.71875l.96875,1.9375c.29856.59711.80875,1.02375 1.15625,1.71875 .33228.66459.48726,1.67476.9375,2.125 .53254.53255.95021.68168 1.375,1.53125 .32882.65762.54783,1.15814.9375,1.9375 .3124.62481.60711,1.40172.96875,2.125 .193.38597.63444,1.57194.96875,1.90625 .49594.49592.56786,1.16161 1.15625,1.75 .49593.49594.75537.94286 1.34375,1.53125 .49595.49594.94286.75536 1.53125,1.34375 .49594.49595.78661.97412 1.375,1.5625 .49593.49595.94287.75536 1.53125,1.34375 .42914.42914.71964,1.15678 1.34375,1.53125 .67721.4063 1.49351.93927 1.9375,1.53125 .62753.83673.91371,1.50746 1.53125,2.125 .53662.53662.9512.98245 1.71875,1.75 .52223.52223 1.13748.91873 1.9375,1.71875 .49594.49593.75536.94286 1.34375,1.53125 .11307.11307.23351.21731.34375.3125 .26655.10613.49419.17523 1,.4375 5.96397,3.09244 20.75693,11.72221 26.5,14.59375s7.52799,7.7043 20.78125,15.65625 14.34375,8.40625 14.34375,8.40625 8.61564,9.926 12.8125,14.34375 17.03125,20.0625 17.03125,20.0625 10.9405,13.84516 18.90625,17.59375 9.22058.78066 14.0625-.78125 .78084-7.81326-.3125-9.84375 .62452-2.96946-.625-4.84375-11.03125-12.75-11.03125-12.75h.1875c1e-005,0-8.26677-10.99137-10-13.6875s-7.16057-8.9059-7.65625-12.03125c-.69926-4.40896-1.20587-5.17076-1.84375-6.6875-1.01951-2.42419-2.17046-1.42177-3.9375-5.53125-1.40412-3.26542-7.22843-6.43868-7.53125-8.1875-.61505-3.55191-15.70086-20.23404-19.28125-23.59375-2.66503-2.50077-1.87069-2.16363-3.21875-5.4375s-6.07728-5.2744-5.375-6.09375c1.80342-2.10407-1.08323-3.45213 1.34375-5.40625 .77033-1.73322-2.17379-7.53431-5.0625-12.15625s-8.29218-11.55818-9.0625-12.90625-6.16641-6.52693-5.78125-7.875-2.90117-5.59528-3.09375-7.90625c-.10729-1.28739-.96028-2.92538-1.71875-4.5z" fill="url(#t)"/>
  <path d="m-625.87363-249.99826c-3.79991-.06511-7.71193.21018-11.5,1.0625-9.63716,2.16836-19.07064,8.86644-18.4375,12 .2427,1.20116.36871,1.69873.21875,1.90625 .18466,1.09986-.0015,1.64156.25,2.21875 1.10048,2.52562-.80616.60324-1,.84375-.23246.28842 1.02254,1.65808.34375,1.46875-2.82058-.78672-2.63721-1.51484-.5,1.96875 .16939.27609-2.30015.04241-1.625.625 2.10497,1.81639-1.66365,2.68461-.125,2.40625 1.39496-.25237 2.92819.04651-.15625,1.90625-.67636.40781 2.28674-.53467 2.15625-.375-3.17844,3.88941 4.36078-.94134 1.59375,2.375 .38238.00844.74216.03516 1.0625.09375 .59262.10838 1.12139.34014 1.625.84375 .23605.23604.77476.67015 1.46875.9375 .34699.13367.7414.23355 1.125.25s.7567-.06585 1.125-.25c.33326-.16663.56273-.30702.75-.4375-.46026-.85514-.67193-1.59137-.875-1.5625-1.12596-1.6446.67532-5.60221 3-7.03125 1.87653-1.15356 3.76618.81197 6.40625,1.84375 1.76946.69153 2.91404,3.70465 2.625,5.28125 .52693.23468 1.05574.45925 1.84375.65625 1.01172.25293 2.4545.92613 3.75,1.25 .61664.15416 1.18982.398 1.78125.59375s1.20254.34375 1.96875.34375c.49156,0 .85874.10397 1.125.25s.45242.35196.625.5625c.34516.42107.61494.87248 1.375,1.0625 1.13177.28294 2.29326.70432 3.4375,1.5625 .4499.33743 2.78849,1.5625 3.4375,1.5625 .89127,0 1.5098.06528 2.0625.21875s1.04096.39548 1.6875.71875c.43393.21696.86841.72093 1.28125,1.1875s.80499.89656 1.21875,1c1.47854.36964 2.59438.625 4.375.625 1.03902,0 1.66854.09493 2.1875.25s.92877.37064 1.5625.6875c1.0784.5392 1.85482.91732 2.8125,1.875 .50183.50183 2.13277,1.45302 2.5,2.1875 .15404.30808.39754.96387.71875,1.5625s.72085,1.14115 1.15625,1.25c.53692.13423 1.27098.96721 1.78125,1.65625s.79759,1.2351.40625.84375c-.58151-.58151-.91961-.77257-1.375-.875s-1.02938-.11672-2.0625-.375c-.38143-.09535-1.22615-.43433-1.78125-.625-.27755-.09533-.48334-.16177-.53125-.125s.07373.16467.4375.4375c.47123.35342 1.38143.90555 2.03125,1.40625 .32491.25035.58042.49504.6875.6875s.06697.33482-.21875.40625c-.57144.14286-.83349.83349-1.25,1.25-.16566.16567-.45387.19067-.78125.15625s-.69504-.12495-1.03125-.21875-.65159-.17502-.84375-.1875-.26103.04045-.15625.25c.31238.62476.44359,1.38108.9375,1.875 .3669.3669.59592.66499.6875.90625s.02659.43814-.125.53125c-.30318.18621-1.04202.04149-2.125-.5-1.33605-.66803-1.51668-.69291-1.46875-.5 .02396.09645.10182.25301.125.40625s-.00996.30186-.21875.40625c-.28326.14163-.65822.33883-1,.4375s-.65107.09894-.875-.125c-.46567-.46567-1.68826-.91791-2.65625-1.1875s-1.68278-.35702-1.09375-.0625c.18209.09105.63945.21819 1.0625.53125 .21152.15653.41524.35516.5625.625s.25.60955.25,1.03125c0,.77883-.09127,1.10942-.25,1.1875s-.37305-.09468-.59375-.34375-.47034-.57864-.65625-.78125-.32064-.27995-.375-.0625c-.21988.87952-.3593,1.34506-.71875,1.59375s-.94001.28125-2.09375.28125c-1.39062,0-1.73221.12195-1.90625.34375s-.18159.54392-.90625.90625c-.83759.41879-1.32287.01822-2.5.3125-.46186.11547-.75522.30851-.9375.53125s-.24207.46178-.28125.6875-.0612.43809-.09375.5625-.08761.17494-.25.09375c-.67696-.33848-1.14664-.42868-1.46875-.375s-.48189.25919-.59375.5c-.22371.48162-.18721,1.125-.4375,1.125-.28037,0-.63411-.30706-.9375-.53125s-.557-.36575-.625-.09375c-.10789.43155-.14215,1.15214-.25,1.71875-.05392.28331-.11045.53929-.21875.6875s-.26981.19322-.46875.09375c-.59534-.29767-1.28972-.8983-1.84375-1.15625-.27701-.12898-.51695-.17508-.6875-.0625s-.28125.3977-.28125.90625c0,.63552-.65309,1.7272-1.25,2.5-.29845.3864-.56384.67546-.75.8125s-.28798.11395-.1875-.1875c.10412-.31238.63196-.85764.3125-.9375-.07537-.01884-.27887-.48071-.5625-.59375-.14181-.05652-.30109-.03531-.46875.1875s-.35523.63968-.53125,1.34375c-.068.272-.12912-.21071-.21875-.71875s-.20799-1.04201-.40625-.84375c-.65856.65856-1.66698.83349-2.5,1.25 .20326.20327.75848.46282 1.0625.78125 .15201.15922.23518.35005.1875.53125s-.22771.36385-.625.5625c-.37524.18762-.52875.18298-.9375.28125 .01833.11984.11062.26777.03125.34375-.15874.15196-.5418.18487-1.28125,0-.0421-.01053.70859-.21358 1.25-.34375-.01833-.11984.05314-.20695-.03125-.34375-.33757-.54722-1.09013-1.13223-1.21875-.875-.1679.3358-.35953.67203-.625.9375-.48001.48-.78708,1.57845-1.09375,2.4375-.15333.42952-.29375.79786-.46875,1s-.385.24-.625,0c-.37903-.37903-.6603-1.32997-.90625-2.0625-.12298-.36626-.23788-.68606-.34375-.84375s-.21296-.1551-.3125.09375c-.20825.52064-.37422,1.06095-.625,1.5625-.47047.94095-.53443,1.21445-.6875,1.15625s-.39595-.44798-1.1875-.84375c-.56741-.2837-.86754-.36212-1.03125-.3125s-.18979.22184-.21875.40625-.0556.37932-.21875.5-.46497.17282-1.03125.03125c-.09001-.0225-.4011-.31998-.78125-.34375-.19008-.01189-.40738.02849-.59375.21875s-.36816.53513-.5,1.0625c-.21189.84757-.37079,1.53489-.5625,1.75s-.41669-.04176-.6875-1.125c-.14773-.59093-.29969-.72946-.4375-.84375-.2626.4292-.37011.98045-.53125,1.625-.17015.68063-.87675.69445-1.03125,1.3125-.16587.66349-.15985.88248-.09375.9375s.17003-.03125.21875-.03125c.31555,0 2.05391-.17342 2.0625-.15625 .16933.33866.50194,1.14851.3125,1.90625-.10408.41632-.18809.81539-.1875,1.03125s.09479.24896.34375,0c.4184-.4184.94552-.66427 1.3125-1.03125 .26603-.26604.44494-.53983.5625-.59375s.15625.12102.15625.75c0,.75009-.32037,1.28098-.125,2.0625 .11281.45124-.03071,1.43965.125,2.0625 .09943.39771.5488,1.49227.59375,1.3125 .15575-.62303.36055-1.1586.59375-1.625 .09935-.19871.75001-1.22391.75-1.46875 0-.34968.4096-1.80579.4375-1.75 .24455.48911.25406,1.01624.4375,1.75 .16688.66753.60243.79858.875,1.34375 .20251.40502.34103,1.11956.59375,1.625 .12271.24543.19094.66627.28125,1s.2164.57654.46875.46875c.21155-.09036.41345-.19089.625-.28125 .04745-.26739.09375-.55639.09375-.90625 0-1.12066-.1875-1.63272-.1875-2.6875 0-.18298.12012-.22199.28125-.1875s.34766.14453.5625.3125c.42969.33594.875.85279.875,1.21875-1e-005,.6855.13281,1.02996.28125,1.3125s.3125.50315.3125,1c0,1.09949.27929,1.74216.375,2.125 .08557.34229.28864.68949.53125.96875s.52478.49057.8125.5625c.33243.08311.46624.34763.5.65625s-.03252.66132-.09375.90625c-.21857.87428-.40625,1.44412-.40625,2.5 0,.18801-.07304.17007-.1875.09375l56.15625,118.03125c2.25579-.10404 4.71314-.15625 5.875-.15625h21.1875 41.53125 6.59375c-.60304-1.25195-1.15625-2.46797-1.15625-3.40625 0-2.11839-4.79737-13.93346-6.3125-16.25-.67497-1.03198-5.28388-5.04067-5.0625-7.15625 .56617-5.41057-10.40255-23.47441-15.3125-33.34375-4.72097-9.48949-1.43259-2.61168-15.09375-35.09375-1.84398-4.38441-2.12068-6.94996-3.46875-10.03125s-1.54725-4.22613-2.125-7.5-2.125-1.93395-2.125-4.4375-.00077-2.89254-1.15625-5.78125-.3656-4.6156-1.90625-6.15625 .56173-6.16209-.59375-7.125-2.5-6.34375-2.5-6.34375 1.72306-1.15193.375-2.5-1.15625-5.96875-1.15625-5.96875 2.52032-.016 1.75-.59375-3.484-4.79649-2.90625-4.21875 2.96875-1.21875 2.96875-1.21875c-3.40993-2.40518-4.53413-16.95744-16.59375-31.3125-5.76978-6.86801-21.07932-16.79727-25.625-18.3125-3.40926-1.13642-13.85027-4.55468-25.25-4.75z" fill="url(#s)"/>
  <path d="m-638.75-153.56 0.15625 1.25c-9.6e-4 0.01468 9.9e-4 0.01634 0 0.03125-0.08657 1.2984-0.50105 9.7695-0.78633 9.1989-2.8296-5.6591-3.4564-6.1342-3.5574-5.7302-0.5579 2.2316-0.06712 9.1066-0.625 6.875-0.56471-2.2588-3.6897-8.5088-3.125-6.25 0.36771 1.4708 0.88229 2.9042 1.25 4.375 1.3187 5.2748-3.8893 0.06774-3.75 0.625l0.625 2.5c1.0554 4.2214 4.92 5.745 5.8719 7.6489 0.62477 1.2495-5.6606-0.89687-4.6728 0.09097 1.3576 1.3577 7.2106 7.6489 5.2906 7.6489-0.62477 0-5.1078-3.1097-4.9563-2.5036 0.40722 1.6289 4.4647 3.239 5.9665 3.9898 1.9801 0.99003 5.9404 6.5654 4.375 5-1.397-1.397-7.3921-2.7586-5.625-1.875 0.33507 0.16753 2.8094 2.1844 4.375 3.75 2.0934 2.0934 4.062 1.2519 3.125 5-0.3745 1.498-0.43744 5.0992 2.2188 6.6875l0.375 3.0625c0 1.2258 0.11674 1.375-1.1562 1.375-1.1766 0-0.78124 1.0502-0.78125 2.0938 0 1.1242 0.15355 1.6454 0.375 2.5312 0.19644 0.78573 0.40625 1.337 0.40625 2.5 0 1.4131 0.34616 1.5024 1.1562 2.3125 0.4474 0.4474 1.1403 0.93686 1.5312 1.7188 0.52964 1.0593 1.1026 2.0668 1.7188 3.0938 0.65703 1.095 1.3183 2.4433 2.125 3.25 0.51045 0.51046 2.0786 2.1095 3.0938 2.3125 1.9589 0.39179 3.9617 2.184 5.7812 3.0938 2.2933 1.1467 4.322 1.9375 6.9062 1.9375 1.6455 0 3.7527 0.61073 5.2188 1.3438 1.401 0.70051 3.4193 1.4546 5 1.9062 1.7138 0.48966 4.2453 2.7188 5.9688 2.7188 1.6571 0 2.3904-0.5497 3.2812-1.1562l1.1562-0.78125c-1.4245-1.4096-1.25-6.4721-1.25-10 0-3.1238-1e-5 -6.2512 0-9.375 0-2.4628-0.73933-6.0823-1.25-8.125-0.81392-3.2557-2.5-2.8193-2.5-6.875 0-1.0692-2.0382-5.0277-2.5-6.875-0.50353-2.0141-3.2535-3.8785-4.375-5-1.3083-1.3083-2.9293-3.9837-3.75-5.625-1.0531-2.1063-3.0129-3.6379-4.375-5-1.8906-1.8906-1.8661-4.3393-2.5-6.875-0.97134-3.8854-0.91457-4.0396-3.125-6.25l-5-5c-1.8239-1.8239-3.63-2.7525-5.625-3.75-2.7306-1.3653-4.8928-1.5089-6.875-2.5-1.0114-0.50572-4.003-0.375-5.1875-0.375z" fill="url(#r)"/>
  <path d="m-648.59-110.25c-0.31384 0.50742 7.0778 11.716 8.7188 13.812 0.62263 0.79537-6.8784-3.698-8.4062-4.875-0.57432-0.44243 6.1329 5.8074 6.0938 6.6875-0.06902 1.5525-4.625-1.3612-4.625-1.9375-1.047-0.57619 4.727 5.766 4.6562 6.4688-0.1024 1.0176-2.9109-0.41361-4-1.1875 1.4857 2.0761 6.4563 7.9962 1.7188 4.4062-2.0988-1.5904-0.17638-0.27902-2.0625-1.8125-0.10147-0.01128 3.4899 8.7421 7.0312 12.312 1.9171 1.9328 8.8307 9.8108 13.906 11.531 2.484 0.842-2.3815 2.4489 38.094 34.875 25.15 20.148 31.381 20.107 30.75 19.531-0.69959-0.63868 40.098 30.884 43.531 33.875 4.8005 4.1817 11.789 6.0409 13.996 7.1386s3.9074 3.3712 7.4416 5.5801 16.784 9.5464 18.594 10.812c3.1845 2.2275 8.6922 5.7939 12.531 8.3125 3.301 3.5686 9.8064 9.2348 12.25 10.719 2.5869 1.5709 8.1132 2.4833 10.25 1.4062-0.66258-4.0173-1.1655-4.8485-1.7812-6.3125-1.0195-2.4242-2.1705-1.4218-3.9375-5.5312-1.4041-3.2654-7.2284-6.4387-7.5312-8.1875-0.61505-3.5519-15.701-20.234-19.281-23.594-2.665-2.5008-1.8707-2.1636-3.2188-5.4375s-6.0773-5.2744-5.375-6.0938c1.8034-2.1041-1.0832-3.4521 1.3438-5.4062 0.77033-1.7332-2.1738-7.5343-5.0625-12.156s-8.2922-11.558-9.0625-12.906-6.1664-6.5269-5.7812-7.875-2.9012-5.5953-3.0938-7.9062-2.875-5.7879-2.875-7.9062-4.7974-13.933-6.3125-16.25c-0.67497-1.032-5.2839-5.0407-5.0625-7.1562 0.00311-0.02973-0.00242-0.06325 0-0.09375-0.43773 0.32276-0.93732 0.52504-1.5312 0.40625-1.9258-0.38516-2.8793-3.268-1.5312 0.96875s-4.2485-2.5231-1.9375 1.9062-2.3117-1.1598-1.1562 1.3438 1.3641 5.2188 0.59375 5.2188-1.8363-3.5173-5.0312-6.75c-7.3548-7.4417 1.1658 0.77901-1.9375 4.0312-0.93813 0.98313-8.9071-4.0911-4.4375-0.5625-0.30639-1.397 4.108 3.7236-1.6562 1.875-2.7175-0.87146-4.8304-2.8791-6.9375-4.25-3.2486-2.1135-8.2307-8.6389-7.1562-6.2812 1.7332 3.8032-4.587-0.26838-3 0.875 2.229 1.6059 0.50981 3.4809-2.9688 1.25-0.7728-0.49562-0.92826 1.184-3.1875 0-1.3035-0.68311-0.6474 0.96071-4.625-1.375-2.0535-1.2059-3.9552-1.8206-4.125-3.25-0.0564-0.47468-0.94834 2.7622-2.3125 2.0938-2.101-1.0296-1.5958 3.5441-3.875 0.78125-3.2305-3.9161-4.1487-5.8973-4.3125-6.0625 0.01126 0.24216 0.27217 1.3563 0.28125 3.3125 0.00967 2.083-5.1561 2.9614-6.4688-0.0625-1.9221-4.428-2.5942-5.9976-2.7188-6.125 0.00286 0.44676 1.5143 5.499-0.4375 5.9688-3.2049 0.77127-6.421-8.491-6.1875-5.9688 0.41459 4.4784-2.25 1.9992-2.25 0.84375s-2.725-4.0224-1.5938-1.1562c1.5152 3.8389-2.0258 3.8785-4.9688 1.5938-1.9432-1.5086-0.39086-6.072-0.96875-4.625-1.0164 2.545-0.98804 4.4211-2.9062 1.6875-0.9894-1.41-0.39609-5.8379-0.78125-4.875s-1.6518 4.9685-2.5312 4.0312c-4.7075-5.017-0.91905-2.0037-3.4375-10.125-1.2736-4.1071-0.11005 1.1884-0.46875 3.8125-0.57832 4.2308-2.6363-0.58904-4.0625-2.7188-0.29372-0.43862-0.43597-1.6403-0.46875-2-0.12192 0.04321-0.42296 0.02568-1.1562-0.21875-1.7332-0.57775-3.1403-5.3036-3.2812-4.0938-0.18607 1.5969-0.09873 2.6937-1.3438 2.7188-1.5317 0.0308-2.4114-7.4964-2.4062-5.7188 0.00504 1.7368 0.47128 2.5633-0.125 3.7188-0.59242 1.148-0.7246 1.609-1.6875 1.0312-0.88467-0.5308-1.0514-5.1059-1.1562-5.4062-0.09479 0.48295-1.1641 4.2422-1.9375 3.4688 0 0-0.19258-4.032 0-5.1875s-4.0523-7.9055-4.4375-6.75 0.40549 4.4207-0.75 2.6875-3.0938-3.25-3.0938-3.25 1.3328 2.0988 0.5625 1.9062-4.5938-4.2231-4.5938-2.875 5.5566 7.1352 4.5938 6.75-11.531-9.4375-11.531-9.4375zm32.344 20.656c0.16625-0.05892-0.03125-0.25-0.03125-0.25s0.02621 0.19473 0.03125 0.25zm-30.25-2.125c-0.21187-0.00784-0.04597 0.18053 0.3125 0.4375-0.08442-0.11822-0.2546-0.34805-0.3125-0.4375z" fill="url(#ai)" stroke="#000" stroke-opacity=".94118" stroke-width=".2"/>
  <path d="m-505.06 28.22c4.3714 6.2165 10.092 13.759 17.625 22.969 6.707 8.1999 13.157 14.406 16.5 19.094 0.80428 0.92695 8.3304 9.5896 12.312 13.781 4.1969 4.4178 17.031 20.062 17.031 20.062s10.94 13.845 18.906 17.594 9.2206 0.78066 14.062-0.78125 0.78084-7.8133-0.3125-9.8438 0.62452-2.9695-0.625-4.8438-11.031-12.75-11.031-12.75h0.1875c1e-5 0-8.2668-10.991-10-13.688s-7.1606-8.9059-7.6562-12.031l-0.0625-0.375c-2.1368 1.0771-7.6631 0.16467-10.25-1.4062-2.4436-1.4839-8.949-7.1501-12.25-10.719-3.839-2.5186-9.3467-6.085-12.531-8.3125-1.81-1.2661-15.06-8.6036-18.594-10.812s-5.2263-4.494-7.4375-5.5938c-1.0811-0.53768-3.3189-1.2573-5.875-2.3438z" fill="#1f1f1c" fill-opacity=".9" stroke="#000" stroke-opacity=".94706" stroke-width=".2"/>
  <path d="m-655.59-235.03c-0.15313 0.20478-0.57589 0.125-1.4688 0.125-6.566 0-21.719 8.2188-21.719 8.2188s10.763-0.65625 11.656 0.59375 0.36607 1.942 1.4375 2.6562 6.4286 1.6205 0 0.90625-11.094-0.25-11.094-0.25 9.264 2.9872 15.156 8.3438c0.72571 0.65972 3.0109 1.677 4.5 2.9375-1.2535-1.8638-2.8375-3.5269-0.28125-1.8125 0.223 0.14956-1.477-1.8614-1.4062-2.7188 0.06947-0.84122 0.48812 0.73482 1.9375 0.53125 1.2433-0.17462 1.1381-0.98915 0.625-1.625-1.0864-1.3464 1.371-0.39692-0.09375-2.125-0.51459-0.60712 2.7149-0.45471 2.5-0.71875-0.46393-0.57005-1.5154-0.78259-0.8125-1.625 2.767-3.3163-4.7722 1.5144-1.5938-2.375 0.13049-0.15967-2.8326 0.78281-2.1562 0.375 3.0844-1.8597 1.5512-2.1586 0.15625-1.9062-1.5386 0.27836 2.23-0.58986 0.125-2.4062-0.67515-0.58259 1.7944-0.34891 1.625-0.625-2.1372-3.4836-2.3206-2.7555 0.5-1.9688 0.67879 0.18933-0.57621-1.1803-0.34375-1.4688 0.19384-0.24051 2.1005 1.6819 1-0.84375-0.2515-0.57719-0.06534-1.1189-0.25-2.2188z" fill="#a56202" stroke="#000" stroke-opacity=".94706" stroke-width=".1"/>
  <path d="m-648.36-221.72c0.47506-0.06755 0.84029 4.1336 4.9023 3.9491 4.3906-0.19948 6.7044-2.3786 7.0811-3.6086 0.45749-1.494-0.72963-4.7891-2.5873-5.5151-2.6401-1.0318-4.5237-2.9919-6.4002-1.8384-2.3247 1.429-4.1218 5.3684-2.9959 7.013z" fill="#000100" fill-opacity=".77059" stroke="#000" stroke-width=".2"/>
  <path d="m-528.84-65.342c-0.04603 0.12959 1.0242 1.6676 1.5625 3.375 0.29587-0.41052 0.57181-0.82222 0.75-1.1562-1.5599-1.5841-2.2812-2.3067-2.3125-2.2188z" fill="#00f9ff" fill-opacity=".11176" stroke="#000" stroke-width=".1"/>
  <path d="m-535.62363-44.68576c-.11799-.22717-.25068-.43888-.3125-.5625-.15556-.31112-.25387-.539-.375-.78125-.12399-.24797-.4329-.4283-.5625-.6875-.12264-.24525-.37113-.46488-.53125-.625-.28975-.28975-.36117-.28843-.46875-.71875-.08239-.32958-.29057-.54988-.40625-.78125-.16022-.32043-.2449-.52103-.375-.78125-.16669-.33335-.26889-.50653-.40625-.78125-.13228-.26453-.35328-.45656-.46875-.6875-.17225-.34452-.3153-.40904-.53125-.625-.15348-.15347-.34995-.55604-.40625-.78125-.04096-.16386-.43227-.52602-.53125-.625-.21456-.21455-.25315-.46495-.40625-.65625-.0125.28619-.21635,1.52171-.3125,1.90625-.06372.25488-.06249.7207-.0625,1.09375 0,.3525-.09495.59855-.15625.84375-.07924.31696-.07617.63869-.3125.875-.17482.17483-.44869.45986-.5625.6875-.03671.07342-.1741.28161-.28125.4375 .24749.26522.181,1.14215.9375,1.25 .79739.11366 2.49079.31562 3.25,1.53125 .79049,1.26572 2.09666.6849 3.28125.46875z" fill="url(#q)"/>
  <path d="m-532.31113-44.87326c-.10997-.14467-.21196-.22286-.25-.375-.06378-.25516-.3507-.45139-.46875-.6875-.1424-.28482-.41704-.33408-.5625-.625-.13798-.27595-.24003-.5851-.3125-.875-.08626-.34503-.29037-.44273-.375-.78125-.08717-.34863-.17025-.61852-.25-.9375-.09597-.38383-.375-.23881-.375-.78125 1e-005-.32097-.31025-.58925-.40625-.78125-.14979-.29959-.22967-.49058-.375-.78125-.14448-.28895-.34273-.43545-.46875-.6875-.10355-.2071-.42384-.48634-.5625-.625-.23862-.2386-.33014-.42388-.53125-.625-.22899-.22901-.46758-.34316-.71875-.46875-.30307-.15154-.43156-.34078-.6875-.46875-.23557-.11778-.49068-.49068-.625-.625-.23859-.2386-.36138-.42389-.5625-.625-.2386-.23861-.42388-.36139-.625-.5625-.2386-.2386-.42389-.33014-.625-.53125 .5254.90354.85435,1.60918-1.09375.6875-.1759-.08322-.2421-.00449-.3125.0625 .13001.08651.30991.09115.46875.25 .23189.23189.62501.41461.625.71875 0,.39048 1e-005,.76578 0,1.15625 0,.00707.0004.05335 0,.0625 .1531.1913.19169.4417.40625.65625 .09898.09898.49029.46114.53125.625 .0563.22521.25277.62778.40625.78125 .21595.21596.359.28048.53125.625 .11547.23094.33647.42297.46875.6875 .13736.27472.23956.4479.40625.78125 .1301.26022.21478.46082.375.78125 .11568.23137.32386.45167.40625.78125 .10758.43032.179.429.46875.71875 .16012.16012.40861.37975.53125.625 .1296.2592.43851.43953.5625.6875 .12113.24225.21944.47013.375.78125 .06182.12362.19451.33533.3125.5625 .26133-.04768.54172-.14496.78125-.125 1.32532.11045 2.34375.77311 2.34375,0 0-.07859.13201-.03918.1875-.0625z" fill="url(#p)"/>
  <path d="m-533.46738-60.02951c.08733.15191.49849.5202 1.34375,1.1875-.30639-1.39702 4.10801,3.72356-1.65625,1.875-.48914-.15686-.95279-.3736-1.40625-.59375-.97371.09713-2.43745-.0324-4.34375-.8125-3.65153-1.49429-2.33039.33569-1.5625,1.65625 .20111.20111.3864.29265.625.53125 .20112.20111.3864.32389.625.5625 .20112.20111.32391.3864.5625.625 .13432.13432.38943.50722.625.625 .25594.12797.38443.31721.6875.46875 .25117.12559.48976.23974.71875.46875 .20111.20112.29263.3864.53125.625 .13866.13866.45895.4179.5625.625 .12602.25205.32427.39855.46875.6875 .14533.29067.22521.48166.375.78125 .096.192.40626.46028.40625.78125 0,.54244.27903.39742.375.78125 .07975.31898.16283.58887.25.9375 .08463.33852.28874.43622.375.78125 .07247.2899.17452.59905.3125.875 .14546.29092.4201.34018.5625.625 .11805.23611.40497.43234.46875.6875 .03804.15214.14003.23033.25.375 .49033-.20608 2.78794,1.401 2.53125.4375-.42187-1.58352-.4123-3.10345.34375-2.5 1.45155,1.1586.72409-1.21146.34375-3.28125-.50394-2.74242-.61473-5.26957-1.375-5.375-1.48795-.20633.95205-.33907 1.0625-2.4375 .00638-.1213.03663-.24976.0625-.375-.00287-.00098.00287-.03027 0-.03125-1.82002-.62284-4.38698-2.04949-4.125-1.59375z" fill="url(#o)"/>
  <path d="m-543.09238-47.93576c.10715-.15589.24454-.36408.28125-.4375 .11381-.22764.38768-.51267.5625-.6875 .23633-.23631.23326-.55804.3125-.875 .0613-.2452.15625-.49125.15625-.84375 1e-005-.37305-.00122-.83887.0625-1.09375 .09922-.39683.3125-1.74052.3125-1.96875 1e-005-.39047 0-.76577 0-1.15625 1e-005-.30414-.39311-.48686-.625-.71875-.15884-.15885-.33874-.16349-.46875-.25-.29315.27895-.06782,1.49634-2.25,1.34375-4.50131-.31475-7.35863-1.6752-9.5-3.375 .05751.16639-.00349.23379.0625.40625 .32195.84145.7492,1.74604 1.28125,2.6875s1.18149,1.90747 1.9375,2.875 1.63115,1.95535 2.625,2.875c.35081.32462.80589.59383 1.1875.90625 .50067.27568 1.5,1.00169 1.5.6875-1e-005-.55222 1.33156.11659 2.09375-.34375 .2439-.14731.37584-.13081.46875-.03125z" fill="url(#n)"/>
  <path d="m-547.15488-48.24826c-.38161-.31242-.83669-.58163-1.1875-.90625-.99385-.91965-1.86899-1.90747-2.625-2.875s-1.40545-1.93354-1.9375-2.875-.9593-1.84605-1.28125-2.6875c-.06599-.17246-.00499-.23986-.0625-.40625-.73681-.58488-1.39833-1.20581-2-1.84375-2.37013-2.51302-2.59217.32936-6.40625-.40625-1.83012-.35298-3.2694-.80496-4.625-1.25 .05125.42655.03761.80838.1875,1.28125 .29213.92157.81606,1.95414 1.53125,3.03125s1.62793,2.19457 2.71875,3.375 2.36222,2.39347 3.78125,3.625c.88081.76443 1.91379,1.54469 2.90625,2.3125 .03459.00638-.22899-.1474.34375.09375 2.09844.88355 3.91061,1.13737 4.5.625 .72523-.63044.57433.60409 2.46875.8125 2.69023.29596 3.34477.25855 2.1875-1-1.00666-1.09475-.87929-1.1151-.5-.90625z" fill="url(#m)"/>
  <path d="m-556.15488-47.87326c-.99246-.76781-2.02544-1.54807-2.90625-2.3125-1.41903-1.23153-2.69043-2.44457-3.78125-3.625s-2.00356-2.29789-2.71875-3.375-1.23912-2.10968-1.53125-3.03125c-.14989-.47287-.13625-.8547-.1875-1.28125-2.03339-.66756-3.64005-1.36281-4.1875-2.03125-1.32507-1.61793 1.74139,2.72542 1.09375,3.6875 .19058.17887.40077.36401.53125.625 .1445.28901.36205.64331.6875.96875 .18204.18204.51873.47498.65625.75 .16437.32875.39547.47842.59375.875 .12533.25067.59516.53686.65625.78125 .0994.39761.29917.54916.59375.84375 .24798.24797.36206.48706.65625.78125 .24797.24797.29955.58081.59375.875 .24797.24797.26831.54955.5625.84375l.78125.78125c.24797.24797.48705.39331.78125.6875l.75.75c.12399.12399.89144,1.12357 1.78125,2.0625 .4449.46946.92722.91092 1.375,1.25 .07142.05408.11786.04627.1875.09375 .06018-.13961 2.70191,1.17816 3.40625-.0625 .30963-.54541-.46715-.95449-.375-.9375z" fill="url(#l)"/>
  <path d="m-559.18613-46.87326c-.06964-.04748-.11608-.03967-.1875-.09375-.44778-.33908-.9301-.78054-1.375-1.25-.88981-.93893-1.65726-1.93851-1.78125-2.0625l-.75-.75c-.2942-.29419-.53328-.43953-.78125-.6875l-.78125-.78125c-.29419-.2942-.31453-.59578-.5625-.84375-.2942-.29419-.34578-.62703-.59375-.875-.29419-.29419-.40827-.53328-.65625-.78125-.29458-.29459-.49435-.44614-.59375-.84375-.06109-.24439-.53092-.53058-.65625-.78125-.19828-.39658-.42938-.54625-.59375-.875-.13752-.27502-.47421-.56796-.65625-.75-.32545-.32544-.543-.67974-.6875-.96875-.13048-.26099-.34067-.44613-.53125-.625-.07816.11611-.17315.21875-.375.21875-1.87429,0-6.71917-2.96911-7.8125-3.90625s1.00891.61016-2.75.46875c-.55226-.02078-.88951-.14511-1.3125-.21875 .43957.54289.57691,1.17066 1.1875,1.78125 .56884.56884 1.10637.88763 1.78125,1.5625 .56884.56884.85638,1.07514 1.53125,1.75 .5362.5362.88158,1.35033 1.53125,2 .56884.56884.88762,1.10638 1.5625,1.78125 .56884.56884 1.10638.85639 1.78125,1.53125 .56884.56884.73139,1.41887 1.40625,2.09375 .31666.31666.78669.59335 1.28125.875 1.08478.50977 3.02782,1.45829 3.6875,1.1875 .68539-.28133-1.54998-3.02133.34375-.9375 2.08158,2.29053 1.90541,2.44562 3.78125,2.90625 .76985.18906 5.10493,1.24251 3.28125-.1875-.12402-.09725.27286.08196.28125.0625z" fill="url(#k)"/>
  <path d="m-570.56113-49.90451c-.49456-.28165-.96459-.55834-1.28125-.875-.67486-.67488-.83741-1.52491-1.40625-2.09375-.67487-.67486-1.21241-.96241-1.78125-1.53125-.67488-.67487-.99366-1.21241-1.5625-1.78125-.64967-.64967-.99505-1.4638-1.53125-2-.67487-.67486-.96241-1.18116-1.53125-1.75-.67488-.67487-1.21241-.99366-1.78125-1.5625-.61059-.61059-.74793-1.23836-1.1875-1.78125-2.63453-.45862-3.12522-1.70754-3.90625-1.875-.85788-.18393-.45168-.14234-1.0625.1875-.85779.46321-4.00215-.98125-3.46875-.5 .37052.3343.07937.47044-.4375.5 .0296.0314.05854.02729.09375.0625 .24798.24797.39331.48706.6875.78125 .24797.24798.45582.36205.75.65625s.39247.47248.59375.875c.1443.2886.19832.69831.46875.96875 .24798.24797.39329.45581.6875.75 .24797.24797.36207.48706.65625.78125 .24797.24797.39331.48706.6875.78125 .24798.24797.36205.45581.65625.75 .24797.24797.48705.39331.78125.6875s.43767.62516.6875.875 .36206.45581.65625.75c.26098.26098.33868.52618.6875.875 .24797.24798.36207.48705.65625.78125 .24797.24797.48704.36207.78125.65625 .20593.20593.35724.42848.5625.65625-.00576-.34914 2.98543,2.0993 6.0625,3.4375 3.29747,1.43405 6.55687,1.31116 4.75.15625-.53547-.34226-.77809-.53305-.84375-.59375 .07368.02201.59104.24156.875.375z" fill="url(#j)"/>
  <path d="m-581.40488-53.27951c-.20526-.22777-.35657-.45032-.5625-.65625-.29421-.29418-.53328-.40828-.78125-.65625-.29418-.2942-.40828-.53327-.65625-.78125-.34882-.34882-.42652-.61402-.6875-.875-.29419-.29419-.40828-.50203-.65625-.75s-.39809-.58559-.6875-.875-.53328-.43953-.78125-.6875c-.2942-.29419-.40827-.50203-.65625-.75-.29419-.29419-.43953-.53328-.6875-.78125-.29418-.29419-.40828-.53328-.65625-.78125-.29421-.29419-.43952-.50203-.6875-.75-.27043-.27044-.32445-.68015-.46875-.96875-.20128-.40252-.30723-.58849-.59375-.875s-.50203-.40827-.75-.65625c-.29419-.29419-.43952-.53328-.6875-.78125-.03521-.03521-.06415-.0311-.09375-.0625-1.13768.06506-3.73278-.51351-5.34375-1.53125-2.80116-1.76964-4.0625-2.8125-4.0625-2.8125-.61982-.24793.2556,1.66743.78125,2.5 .21313.33756-.30741.34437-1.0625.1875 .02359.02658.03832.06716.0625.09375 .28609.31453.62246.65119.90625,1.21875 .41447.82894.80072,1.51948 1.46875,2.1875 .56884.56884.57513,1.32514 1.25,2 .56884.56884.79386,1.16888 1.46875,1.84375 .53951.53952.89455,1.13355 1.53125,1.78125 .66733.67888 1.77061,1.74187 2.625,2.625 .29296.05234.60064.22392 1.59375.96875 2.20889,1.65666 3.756,3.90838 4.75,3.6875s-.92936-4.11685-.15625-3.34375 1.74242,2.52125 2.625,2.5625c3.50324.16373 2.20593-1.2362 1.375-2.4375-.06644-.09606.2818.18986.28125.15625z" fill="url(#i)"/>
  <path d="m-591.87-54.873c-0.85439-0.88313-1.9577-1.9461-2.625-2.625-0.6367-0.6477-0.99174-1.2417-1.5312-1.7812-0.67489-0.67487-0.89991-1.2749-1.4688-1.8438-0.67487-0.67486-0.68116-1.4312-1.25-2-0.66803-0.66802-1.0543-1.3586-1.4688-2.1875-0.28379-0.56756-0.62016-0.90422-0.90625-1.2188-0.02418-0.02659-0.03891-0.06717-0.0625-0.09375-1.0197-0.21185-2.5258-0.76379-3.7812-1.5938-2.5336-1.6749-5.2691-1.7629-6.7188-2.3438-1.4279-0.57215-3.0986-1.2607-9.2812-5.75-6.5716-4.7717-8.2667-5.3351-8.25-7.125 0.00261-0.27994-0.03071-0.37799-0.0625-0.34375-0.13777 0.14837-0.36603 2.8326 1.2188 4.5 2.818 2.9649 3.377 2.4718 3.3438 2.5312 1e-5 1e-5 10.906 12.179 12.562 13.062s0.54373-0.72008 2.3438 0.53125c2.0228 1.4062 5.6938 6.2514 7.375 5.6562 2.8226-0.99917 2.3447 2.5292 5.9375 1.3438 0.7563-0.24955 1.2329 1.5479 3 1.4375 0.9726-0.06079 1.2664-0.22032 1.625-0.15625z" fill="url(#h)"/>
  <path d="m-496.31-19.873c1.8374 1.9288 3.9442 4.1843 7.0938 7.6875-0.32581-0.16541 1.143 0.63366 1.9688 0.65625-0.88126-1.2208-1.6607-2.2931-2.4062-3.3125-1.8368-1.0882-4.6673-3.5603-6.6562-5.0312z" fill="url(#ah)" stroke="#000" stroke-width=".1"/>
  <path d="m-532.87-39.686c1e-5 -1e-5 6.0009 7.5476 8.3438 9.3438s16.329 13.828 17.969 14.219 0.7524 0.22296 1.4062 0.5625c0.62475 0.32446 7.1105 4.0368 10 5.7812 2.5458 1.5369 6.0341 1.6189 6.625 1.875 0.78207 0.33891-0.05174-3.9585-0.6875-4.2812-3.1495-3.5032-5.2564-5.7587-7.0938-7.6875-0.99688-0.73723-1.8378-1.3056-2.125-1.1562-1.5745 0.81896-2.2699-2.1466-3.3438-0.875-0.42641 0.50489-1.2599 0.40381-1.9375-0.1875-0.93218-0.81352-0.90211-1.2864-1.625-1.4688-0.45872-0.11568-1.1935-1.5729-1.0625-1.4688 0.20621 0.16388-2.717 0.22881-3.6875-1.4062-0.65635-1.1059 0.60107 0.45693-2.625-1.0938-7.0182-3.3734-11.212-6.485-11.5-6.625-5.6225-2.7303-8.7402-5.484-8.6562-5.5312z" fill="url(#g)" stroke="#000" stroke-width=".1"/>
  <path d="m-507.59-36.248c-1.0842-1.2932-3.6202-4.1578-5.375-5.0938-2.3429-1.2495-10.158-4.2199-14.844-7.1875-0.39302-0.24891-0.74376-0.49479-1.0938-0.75 0.22986 1.1146 0.46204 2.1383 0.28125 2.5 0.00482 0.00544-0.00486 0.02576 0 0.03125 1.8216 2.0556 5.7488 6.499 6.5 7.125 0.93715 0.78095 9.2686 7.1587 11.188 8.2188 0.8907 0.49204 5.6635 2.5355 5.9375 0.375 0.18863-1.4873-0.12244-2.0835-0.15625-2.125-0.64987-0.8506-1.4461-1.7656-2.4375-3.0938z" fill="url(#f)" stroke="#000" stroke-width=".1"/>
  <path d="m-507.59238-36.24826c.99137,1.32814 1.78763,2.24315 2.4375,3.09375-.00099-.00121.0005-.06233 0-.0625s2.34393,1.24994 2.8125,1.09375-.56291-6.71916-1.65625-7.8125c-.52523-.52524-.22393-1.30222.21875-1.96875 0-.00815.00014-.02282 0-.03125-.03664-2.18426-4.8032-13.91112-6.3125-16.21875-.67497-1.03198-5.28388-5.04067-5.0625-7.15625 .00311-.02973-.00242-.06325 0-.09375-.43773.32276-.93732.52504-1.53125.40625-.94161-.18832-1.6474-.96036-1.96875-1.21875 1.61279,3.79595 3.50811,8.28613 4.03125,8.25 2.14785-.14832 2.14935-.53779 3.0625,1.3125 .92739,1.87915 4.84375,11.56286 4.84375,12.5s-.15672,1.40572-1.40625,0-.15613,2.5007.15625,4.375c.27335,1.63999.54865,3.41718 1.03125,4.25-.07442-.09724-.49303-.52406-.65625-.71875z" fill="url(#e)" stroke="#000" stroke-width=".1"/>
  <path d="m-585.25-43.405c0.02924 0.54168 0.0809 1.0915-0.03125 1.4375-0.48165 1.4858-1.0938 1.0937-1.0938 0.9375 0 0 5.47 7.6572 8.9062 10.312s9.8134 9.688 12.156 11.094 6.25 2.9688 6.25 2.9688-3.2819-3.1254-5-4.0625 0.625 0 0.625 0-6.3883-7.7939-7.25-8.2188c-0.00662-0.00326-0.05655-0.06012-0.0625-0.0625-0.0105-0.00907-0.02072 0.0091-0.03125 0-2.0249-1.7503-4.5326-4.1336-7-6.5625s-4.8885-4.9229-6.7188-6.9062c-0.43789-0.47453-0.38689-0.52834-0.75-0.9375z" fill="url(#d)" stroke="#000" stroke-width=".1"/>
  <path d="m-585.25-43.405c0.36311 0.40916 0.31211 0.46297 0.75 0.9375 1.8302 1.9834 4.2513 4.4774 6.7188 6.9062s4.9751 4.8122 7 6.5625c0.01053 0.0091 0.02075-0.00907 0.03125 0-0.78095-0.31237 1.8438 0.3125 1.8438 0.3125s-0.12577-1.0946-2.1562-3.4375-2.3438-3.75-2.3438-3.75-4.22-4.0639-7.6562-7.6562-5.4688-5.9375-5.4688-5.9375c-0.04444-0.0889 1.1503 3.637 1.2812 6.0625z" fill="url(#c)" stroke="#000" stroke-width=".1"/>
  <path d="m-461.19 54.252c0.29831 0.47184 0.55003 0.85147 0.84375 1.3125 3.3702 3.5778 9.5862 8.9907 11.969 10.438 2.5869 1.5709 8.1132 2.4833 10.25 1.4062-0.66258-4.0173-1.1655-4.8485-1.7812-6.3125-0.44151-1.0498-0.90733-1.4482-1.4375-1.9062 0.69557 2.1154 1.3901 4.4718 1.25 5.3125-0.27236 1.6341 0.95343 2.201-1.9062 1.6562s-4.0331-0.75851-9.2188-4.0938c-2.2374-1.439-4.423-3.3202-6.3438-5.25-1.228-0.85164-2.3431-1.6577-3.625-2.5625z" fill="#fff9ff" fill-opacity=".81176" stroke="#000" stroke-width=".1"/>
  <path d="m-506.31113,13.68924c-.13876.21617-.16691.61847-.59375.8125 .62224.85728 1.75569,1.41791 2.2627,1.96113 1.34806,1.44435 5.8783,4.62323 6.84121,5.77871s3.73299,4.32012 5.17734,4.41641 2.12076,1.10078 3.375,1.15625c2.4904.11014 1.38983-.85267 2.21875-.875 .96255-.02593 2.8877-.07343 2.40625-.84375s1.55311.17404 2.51601-.40371 1.35061-3.16286.48399-5.37754c-.41537-1.06151-.98698-2.90676-1.5-4.5625-.56174-.03391-1.24406-.29083-1.90625-.59375 .37383.86591.77146,1.95292.90625,3.03125 .28887,2.31096.75763,3.76855.46875,4.25s-.8656,1.62754-2.40625,1.53125-2.13593-.86738-2.90625-1.15625 .41387.95351.125,1.53125-1.56073.68165-2.8125-.28125-1.25331-.30234-2.3125-.6875-1.73552-1.05818-3.46875-2.40625-4.69488-3.06734-7.96875-6.4375c-.36899-.37984-.58016-.55556-.875-.84375-.00528.00707-.02637-.00761-.03125,0z" fill="#fff9ff" fill-opacity=".81176" stroke="#000" stroke-width=".1"/>
  <path d="m-482.19 13.22c0.26713 0.74457 0.46554 1.6636 0.0625 2.1875 3.1801 5.8918 4.9806 14.205 5.125 14.812 0.35266 1.4839-1.3483 2.4638-1.6562 1.2812-0.02515 0.28872-0.31877 1.1972-2.9688 1.125-2.1198-0.05776-8.0175-1.1578-10.906-3.4688s-5.6756-4.9957-7.3125-6.3438-6.2515-5.015-8.5625-8l-0.3125-0.40625c-0.39443-0.10521-0.82266-0.22821-1.2188-0.375 0.47201 0.75944 1.0656 1.7229 1.1562 1.8438 0.28888 0.38515 6.9383 6.8285 8.0938 7.4062s4.6148 3.8598 5 4.4375 6.4434 5.9611 7.4062 6.25 5.6959 2.7104 6.5625 1.8438 2.9797-0.1123 3.75-0.59375 0.59211-1.7496 1.1562-1.625c2.778 0.6137 2.8833-0.55211 2.2188-3.2812-0.72551-2.9794-2.1801-8.8732-5.6875-14.25-0.77516-1.1883-1.3436-2.036-1.9062-2.8438z" fill="#fff9ff" fill-opacity=".81176" stroke="#000" stroke-width=".1"/>
  <path d="m-479.25 12.252c-0.39249 0.36665-0.89628 0.55724-1.4375 0.5625 1.1445 1.415 3.8256 4.7318 5.5938 6.5 2.1788 2.1788 2.3392 4.8481 3.1562 5.9375s2.3037 2.9611 3.5312 5.7188c2.12 4.7626 3.088 5.1467 3.125 7 0.02514 1.2607 0.87152 2.229 0.6875 2.9688-0.27351 1.0994-3.2024-1.2265-3.9688-0.34375-0.6719 0.77394-1.677 0.04588-4.1875 0.09375-3.0541 0.05823-4.2409-2.0356-5.875-3.125-0.94689-0.63126-1.624-1.505-2.0625-2.1562-0.40441 0.04718-0.77649 0.1515-1.0312 0.40625-0.16249 0.16249-0.45974 0.22047-0.84375 0.1875 1.6494 1.548 4.6248 4.2608 6.5312 5.5 2.7235 1.7703 7.2252 3.3996 9.8125 2.7188s1.3659-0.41515 3-0.6875 0.94868-0.6693 0.8125-3.9375-2.8794-6.4038-3.9688-8.7188c-0.4654-0.98897-1.7772-3.4458-3.0938-5.9062-0.42384-0.42938-0.89925-0.91701-1.1875-1.1875-2.665-2.5008-1.8707-2.1636-3.2188-5.4375s-6.0773-5.2744-5.375-6.0938z" fill="#fff9ff" fill-opacity=".81176" stroke="#000" stroke-width=".1"/>
  <path d="m-453.22 43.939c0.7505 1.5852 1.3405 3.1796 1.1562 4.0625-0.55559 2.6621-2.9866 4.2957-3.5938 4.0625-0.9927-0.38129-2.3998-0.54688-4.0625-2.0938-1.1774-1.0953-1.4855-0.39153-4.5312-2.8125-1.2985-1.0321-2.3081-1.9856-3.0938-2.7812-0.81718 0.02983-1.7348-0.0899-2.6875-0.3125 2.0585 2.1828 5.8821 5.9964 7.5938 6.2812 2.8926 0.48132 4.676 3.1365 5.3125 3.0312 2.9466-0.48711 4.4175-1.3131 4.5938-2.4688 0.11258-0.73809 0.86276-2.0121 1.25-3.25-0.04236-0.09569-0.07842-0.19269-0.09375-0.28125-0.12089-0.69813-0.80204-1.9257-1.8438-3.4375z" fill="#fff9ff" fill-opacity=".81176" stroke="#000" stroke-width=".1"/>
  <path d="m-476.31 41.314c1.5222 1.4933 7.7739 7.6316 8.4688 8.1875 0.78094 0.62476 13.985 10.047 15.469 10.75s4.9227 3.062 7.1875 1.8125c2.0825-1.149 2.4531-1.7619 2.1875-4.875-0.26428-0.44221-0.54702-0.93493-0.84375-1.625-0.77883-1.8113-2.9166-3.5666-4.7188-5.0938 2.057 3.0043 4.396 7.2422 2.4375 8.4688-1.5913 0.99653-0.92923 0.32663-1.9375 0.46875-3.8042 0.53619-10.75-5.9866-14.375-7.6562-4.4784-2.0626-7.9693-5.0517-10.25-8.1875-0.14002-0.19252-0.27188-0.37218-0.40625-0.53125-1.0738-0.45652-2.0948-0.98348-2.9375-1.5312l-0.28125-0.1875z" fill="#fff9ff" fill-opacity=".81176" stroke="#000" stroke-width=".1"/>
  <path d="m-510.69-15.873c1.2787 1.3675 2.436 2.6652 4.1875 4.2812 2.6434 2.4389 5.6572 5.0502 8.5625 7.5 5.8106 4.8995 11.149 9.1587 12.125 10.094 0.5963 0.57117 1.3382 0.99315 2.125 1.3125s1.6248 0.5355 2.4688 0.59375 1.7013-0.03787 2.4688-0.25c0.15735-0.04349 0.2555-0.16366 0.40625-0.21875 0.15132-0.20132 0.17211-0.38006 0.4375-0.59375 0.77033-1.7332-2.1738-7.5343-5.0625-12.156-1.1741-1.8785-2.7562-4.1062-4.2812-6.2188-0.11196-0.00306-0.24548-0.00398-0.375-0.03125 0.18464 1.0436 0.53073 2.2231 1.1875 3.2812 1.7332 2.7924 5.7736 9.8209 6.0625 10.688s0.55412 3.2812-0.3125 3.2812-1.8966 0.19282-7-3.5625-12.243-11.193-13.688-12.156-4.3438-2.5-4.3438-2.5c-0.14791-1e-5 -4.1367-3.2427-4.125-3.375 0.01633-0.18435-0.27182-0.04161-0.84375 0.03125z" fill="url(#ag)" stroke="#000" stroke-width=".1"/>
  <path d="m-537.65-23.217c2.1254 1.7722 4.0986 3.473 7.6875 6.2188 5.2027 3.9803 10.281 7.75 10.281 7.75 0.08069-0.16139 3.737 2.8149 7.7812 6.1562s8.4764 7.0483 10 8.3125c1.5891 1.3186 3.4435 3.1937 5.125 4.8125s3.1867 2.9887 4.0938 3.3125c1.1828 0.42219 2.0007 0.59284 2.5312 0.5625s0.75879-0.25635 0.78125-0.625-0.15845-0.876-0.5-1.4688c-0.16154-0.28035-0.43702-0.62583-0.65625-0.9375-4.4064-4.0181-9.1616-8.3301-10.062-9.25-1.5772-1.6104-0.86447-1.1256-3.8438-3.6562-3.323-2.8227-10.706-8.5743-17.281-13.625-3.2783-2.5182-3.9-2.9712-6.1562-4.6875 0.55633 0.51268 2.3494 2.5539-1.8125 0.40625-5.2248-2.6961-1.3554-0.88338-3.2812-1.75-1.9143-0.86142-4.6544-1.5234-4.6875-1.5312z" fill="url(#af)" stroke="#000" stroke-width=".1"/>
  <path d="m-500.06113,14.75174c-.02478.00385-.03743.02795-.0625.03125-.39634.05219-.82007.03771-1.3125-.09375s-1.0321-.37084-1.59375-.71875c-.17216-.10664-.35491-.30892-.53125-.4375l-.1875.15625c.41281.13373 1.38833.79268 2.46875,1.71875 1.34805,1.15547 3.25494,3.20543 4.125,2.59375 .33926-.23851.45479-.33894.53125-.375-.03115-.07347-.00915-.10316-.0625-.1875-.35246-.55713-1.21416-1.36214-2.8125-2.28125-.24552-.14119-.3394-.26907-.5625-.40625z" fill="url(#ae)" stroke="#000" stroke-width=".1"/>
  <path d="m-500.06113,14.75174c.2231.13718.31698.26506.5625.40625 1.59834.91911 2.46004,1.72412 2.8125,2.28125 .05335.08434.03135.11403.0625.1875 .26194-.12353-.23533.77821 3.625,1.8125 1.22582.32844 2.76192-.02106 2.96875-1.4375 .12951-.88698-.10085-1.24284-.25-1.40625-1.29457-.96058-2.0331-1.5555-3.03125-2.25-.0867.06217-.142.15306-.25.1875-.24631.07855-.54712.09091-.9375,0-.78075-.18182-1.85654-.75258-3.3125-1.90625l-.71875-.5625c.04066.14566.13816.29917.15625.4375 .05312.40624-.00144.80396-.125,1.125s-.32037.57823-.59375.78125c-.25609.19018-.60181.28679-.96875.34375z" fill="url(#ad)" stroke="#000" stroke-width=".1"/>
  <path d="m-493.31113,14.34549c.99815.6945 1.73668,1.28942 3.03125,2.25-.00966-.01058.00911-.08527 0-.09375 .13633.06098.41847.16692.9375.25 1.44822.23181 2.43659-.18529 2.5-1.5625 .04334-.94124-.5625-1.34375-.5625-1.34375s.17319.08415.1875.09375c-1.60584-1.46101-1.85812-1.73629-3.3125-3.0625 .21923.31167.49471.65715.65625.9375 .34155.59275.52246,1.1001.5,1.46875s-.25067.59466-.78125.625-1.34844-.14031-2.53125-.5625c-.06136-.0219-.21455-.18752-.28125-.21875 .02049.34747.11593.72206-.03125.96875-.06667.11175-.20147.17038-.3125.25z" fill="url(#ac)" stroke="#000" stroke-width=".1"/>
  <path d="m-539-9.3108c2.7538 2.1806 5.1275 4.1893 5.5625 4.5 0.67402 0.48145 14.263 14.06 14.938 14.156 0.56871 0.08124 1.233-0.29631 1.7812-0.21875-0.71403-1.0042-1.5504-2.1117-2.8125-3.3438-1.64-1.601-3.3988-3.1018-4.375-3.8438s-5.6425-4.3725-10.562-8.0625c-1.8439-1.383-2.7969-1.9296-4.5312-3.1875z" fill="url(#ab)" stroke="#000" stroke-width=".1"/>
  <path d="m-539-9.3108c1.7344 1.2579 2.6873 1.8045 4.5312 3.1875 4.92 3.69 9.5863 7.3206 10.562 8.0625s2.735 2.2428 4.375 3.8438c1.2621 1.232 2.0985 2.3396 2.8125 3.3438 0.10153 0.01436 0.22223-0.06018 0.3125 0 0.57775 0.38515 3.8598 3.5836 4.4375 3.9688s3.1832 1.5312 4.5312 1.5312 0.76347-1.1588 1.4375-1.0625l0.21875 0.03125c-1.7545-1.1502-3.7625-2.609-6.2812-4.7188-2.9556-2.4756-6.3186-5.4416-9.8125-8.4688s-7.1166-6.1275-10.594-8.875-6.8135-5.1446-9.7188-6.7812c-1.3713-0.77255-2.5619-1.5831-3.5938-2.375s-1.8847-1.5656-2.625-2.3438c-0.04344-0.04566-0.05123-0.07945-0.09375-0.125-0.06113 0.13038-0.05514 0.27962-0.34375 0.34375-0.86662 0.19258-6.157-3.8438-7.3125-3.8438s7.9744 7.7962 12.5 10.781c1.605 1.0586 3.143 2.3017 4.6562 3.5z" fill="url(#aa)" stroke="#000" stroke-width=".1"/>
  <path d="m-548.49863-20.09201c.04252.04555.05031.07934.09375.125 .74034.77816 1.59317,1.55183 2.625,2.34375s2.22241,1.60245 3.59375,2.375c2.90526,1.63668 6.24165,4.03379 9.71875,6.78125s7.09988,5.84789 10.59375,8.875 6.85693,5.99312 9.8125,8.46875c2.51874,2.10974 4.52678,3.56852 6.28125,4.71875 .69043.09798 1.66841.21182 1.40625-.3125-.05736-.11471.52273.37312.625.40625l.1875-.15625c-.39893-.2909-.79988-.55462-1.21875-.96875-.68331-.67558-1.99082-2.1426-3.96875-4.09375s-4.6465-4.36895-8-7c-5.4088-4.24359-11.88129-9.57103-12.6875-10.3125-.79908-.7349-3.00177-2.53845-5.1875-4.25s-4.37404-3.33412-5.21875-3.71875c-.84848-.38634-1.92972-1.26602-3.0625-2.3125-.60626-.56008-1.17661-1.17738-1.78125-1.78125-.03306.01773.02029.08639-.03125.09375-.67402.09628.79242,1.34298-2,.1875s-2.89278-1.52287-2.21875-.65625c.44957.57801.55993.92639.4375,1.1875z" fill="url(#z)" stroke="#000" stroke-width=".1"/>
  <path d="m-544.69-20.905c0.60464 0.60387 1.175 1.2212 1.7812 1.7812 1.1328 1.0465 2.214 1.9262 3.0625 2.3125 0.84471 0.38463 3.033 2.0072 5.2188 3.7188s4.3884 3.5151 5.1875 4.25c0.80621 0.74147 7.2787 6.0689 12.688 10.312 3.3535 2.631 6.0221 5.0488 8 7s3.2854 3.4182 3.9688 4.0938c0.60402 0.59718 1.1884 1.0583 1.75 1.4062s1.1013 0.58729 1.5938 0.71875 0.91616 0.14594 1.3125 0.09375 0.75787-0.17198 1.0312-0.375 0.47019-0.46021 0.59375-0.78125 0.17812-0.71876 0.125-1.125c-0.01809-0.13833-0.11559-0.29184-0.15625-0.4375-1.9009-1.4607-7.3429-5.5123-7.8438-6.1562-0.27334-0.35143-2.5295-2.3686-5-4.5s-5.1489-4.3518-6.2812-5.0938-4.2396-2.9267-7.6562-5.4062-7.1493-5.2586-9.5312-7.25c-2.2959-1.9195-3.7206-3.4335-4.6562-4.5312-0.06699 0.00689-0.00734 0.0625-0.09375 0.0625-1.7332-1e-5 -1.2508-1.3463-2.4062-1.25s-1.9223 0.09375-2.5 0.09375c-0.53357 1e-5 0.21179 0.84839-0.1875 1.0625z" fill="url(#y)" stroke="#000" stroke-width=".1"/>
  <path d="m-539.5-20.873c0.93568 1.0978 2.3604 2.6117 4.6562 4.5312 2.3819 1.9914 6.1146 4.7705 9.5312 7.25s6.5239 4.6643 7.6562 5.4062 3.8108 2.9623 6.2812 5.0938 4.7267 4.1486 5 4.5c0.54667 0.70286 7.3383 5.7487 8.5625 6.7188 1.456 1.1537 2.5318 1.7244 3.3125 1.9062 0.39038 0.09091 0.69119 0.07855 0.9375 0s0.44377-0.23849 0.5625-0.4375c0.14718-0.24669 0.05174-0.62128 0.03125-0.96875-0.91935-0.43043-2.2448-1.5844-3.8125-3.0938-1.6815-1.6188-3.5359-3.4939-5.125-4.8125-1.5236-1.2642-5.9557-4.9712-10-8.3125s-7.7006-6.3176-7.7812-6.1562c0 1e-5 -5.0786-3.7697-10.281-7.75-3.5889-2.7457-5.5622-4.4466-7.6875-6.2188h-0.03125s1.7358 1.75-0.09375 1.75c-0.86903-1e-5 -1.4361-0.20095-1.8125-0.40625 0.50044 0.42003 0.89443 0.91764 0.09375 1z" fill="url(#x)" stroke="#000" stroke-width=".1"/>
  <path d="m-527.87-20.342c2.2563 1.7163 2.8779 2.1693 6.1562 4.6875 6.5752 5.0507 13.958 10.802 17.281 13.625 2.9793 2.5307 2.2666 2.0458 3.8438 3.6562 1.1982 1.2235 6.9038 6.425 13.375 12.312 0.31109 0.20868 3.7095 2.4848 4.9062 1.6562 1.012-0.70062 0.09242-2.4579-0.0625-3-1.1364-1.0775-1.2995-1.396-4.5-3.9375-2.6552-2.1086-5.4107-4.892-8.5-7.7812-1.5447-1.4446-3.1869-2.9086-4.9375-4.3438s-3.6036-2.8358-5.625-4.125c-2.5176-1.6057-4.8367-3.302-6.9062-4.9688s-3.883-3.3248-5.4062-4.8438c-1.03-1.027-1.7262-1.8706-2.4688-2.75-2.446-1.4851-2.117-2.6976-2.4062-0.46875-0.15229 1.1732-5.0044-1.9343-5.3125-1.9062-1e-5 0-3.5798-1.3851 0.5 2.0938 0.01711 0.01459 0.04145 0.07435 0.0625 0.09375z" fill="url(#w)" stroke="#000" stroke-width=".1"/>
  <path d="m-520.71738-20.15451c.74258.87943 1.43877,1.72298 2.46875,2.75 1.52329,1.5189 3.33667,3.17704 5.40625,4.84375s4.38864,3.36304 6.90625,4.96875c2.02141,1.28924 3.87443,2.68987 5.625,4.125s3.39284,2.89915 4.9375,4.34375c3.08931,2.8892 5.84475,5.67267 8.5,7.78125 3.20046,2.54154 3.3636,2.86004 4.5,3.9375-.0367-.12843-.24095-.56184-.125-.46875 1.15513.92738 2.43382.88745 3.25.125 .03156-.03682.06501-.05738.09375-.09375 1.434-1.81443-.39579-3.11121.8125-4.71875-.15075.05509-.2489.17526-.40625.21875-.76749.21213-1.62483.30825-2.46875.25s-1.6819-.2744-2.46875-.59375-1.5287-.74133-2.125-1.3125c-.97619-.93504-6.31436-5.19424-12.125-10.09375-2.90532-2.44975-5.91908-5.06106-8.5625-7.5-1.75148-1.616-2.90878-2.91376-4.1875-4.28125-.32128.04093-.61292.09956-1.28125-.03125-.66205-.12958-1.92141-.39514-3.1875-1.34375-1.31001-.98154-3.0625-1.625-3.0625-1.625s.55857.23289-1.34375-.59375c-.52618-.22865-.78215-.46037-1.15625-.6875z" fill="url(#v)" stroke="#000" stroke-width=".1"/>
 </g>
</svg>
