<?xml version="1.0" encoding="UTF-8"?>
<svg viewBox="0 0 1000 1000" xmlns="http://www.w3.org/2000/svg">
 <g fill-rule="evenodd" stroke-width=".5">
  <g fill="#fff" stroke="#fff">
   <path d="m722 357l0.5 1 0.5 1 0.5 1 0.3 0.2 0.2 0.3 0.5 0.3 0.5 0.2 3.8 8.5q3.7 8.5 7.7 22.5t8.5 20.5 6.5 18 1.5 22.5-0.5 23 3.3 17.8q3.2 5.7 4.7 7.2t2.5 2l1 0.5 1 0.5 1 0.5 4 0.3 4 0.2 0.2-3q0.3-3 1.6-6 1.2-3 2.2-3.2 1-0.3 3-7l2-6.8 1.5 0.2 1.5 0.3 1.5 0.5q1.5 0.5 2 0.8l0.5 0.2 0.2 1 0.3 1 0.3 0.2 0.2 0.3 0.2 0.3 0.3 0.2 0.3 0.2 0.2 0.3 0.2 0.3 0.3 0.2 0.3 0.2 0.2 0.3 2 0.5 2 0.5h2l1-0.5 1-0.5 0.2-0.3 0.3-0.2 0.5-1 0.5-1 0.5-1.5q0.5-1.5 0.5-41.5v-40l0.5-3 0.5-3 0.3 0.2 0.2 0.3 0.5 0.3 0.5 0.2v0.5l0.5 0.3 0.5 0.2 0.2 1.5 0.3 1.5 3.5 14.5q3.5 14.5 6 28.5t6 22.5 3.8 12l0.2 3.5-1 0.2q-1 0.3-12 5.8t-19.2 13.8q-8.3 8.2-18 24-9.8 15.7-20.8 34.2t-16.8 32.8q-5.7 14.2-7.7 29.2t-7.5 24-16.5 20-21.3 19.2q-10.2 8.3-20 20-9.7 11.8-12 13-2.2 1.3-11.7 6.8t-25 10l-15.5 4.5-1.5 0.5-1.5 0.5-0.5 0.3-0.5 0.2-1 0.2q-1 0.3-7 4.8t-15 6.5-24 2-26.5 0-17 2.5-10.3 8.2l-4.7 5.8-0.3 0.2-0.2 0.3-0.2 0.3-0.3 0.2-0.3 0.2-0.2 0.3-0.2 0.3-0.3 0.2v2l0.3 0.2 0.2 0.3 0.2 0.3 0.3 0.2 0.3 0.2 0.2 0.3 1 0.5 1 0.5 10 3.5q10 3.5 12 4l2 0.5 1.5 0.3 1.5 0.2-0.2 1.5-0.3 1.5-3 3.5q-3 3.5-3.5 5l-0.5 1.5v3l0.3 0.2 0.2 0.3 0.2 0.3 0.3 0.2 0.3 0.2 0.2 0.3 1 0.5 1 0.5 1.5 0.3 1.5 0.2v0.5h27q27 0 35-0.5t13 0l5 0.5 3 0.5 3 0.5-0.2 0.3-0.3 0.2-0.3 0.2-0.2 0.3-1.5 0.5-1.5 0.5-2 0.5-2 0.5-2 0.5q-2 0.5-26.5 5.5l-24.5 5-1.5 0.5-1.5 0.5-0.5 0.3-0.5 0.2h-0.2q-0.3 0-0.6 0.5l-0.2 0.5-1.5 0.2q-1.5 0.3-9.5 2.8t-14.8-9.8q-6.7-12.2-14.4-20-7.8-7.7-23.6-17.4-15.7-9.8-35.4-21.6-19.8-11.7-32.8-16.7t-25-6.5-16-2.5-12-6-18-15-21.2-23.3q-11.3-13.2-20-20-8.8-6.7-13.3-13.4l-4.5-6.8-0.2-1-0.3-1-0.5-1-0.5-1-0.3-0.2-0.2-0.3-0.2-0.3-0.3-0.2-0.5-1q-0.5-1-2.5-3.5t-7-20.5-8-22.5-5.5-8.5-4-13-1.5-21 0.5-24-2.5-18.5-6.3-8.7l-3.2-2.3-0.2-0.3-0.3-0.2-0.3-0.2-0.2-0.3-4-0.3-4-0.2-0.2 4q-0.3 4-4.3 11t-4 7.5-0.5 1.5l-0.5 1-0.3 0.2-0.2 0.3h-3l-1-0.3-1-0.2-0.2-0.5q-0.3-0.5-0.6-0.5h-0.2l-0.2-0.5q-0.3-0.5-0.6-0.5h-0.2l-0.2-0.5q-0.3-0.5-0.8-1t-3.8-1.7l-3.2-1.3-0.2-0.3-0.3-0.2-0.3 0.2-0.2 0.3-0.2 0.3-0.3 0.2-0.3 0.2-0.2 0.3-0.2 0.3-0.3 0.2-0.3 0.2-0.2 0.3-0.2 0.3-0.3 0.2-0.5 1-0.5 1v38.5q0 38.5-0.5 44l-0.5 5.5-0.3-0.2-0.2-0.3-0.2-0.3-0.3-0.2-0.5-1-0.5-1h-0.5l-0.2-0.5-0.3-0.5-0.5-1.5-0.5-1.5-0.5-2q-0.5-2-4.5-23t-9.3-36.5l-5.2-15.5 0.2-0.5q0.3-0.5 12.6-6.7 12.2-6.3 19.7-13.3t18.5-24.5 22.2-36.8q11.3-19.2 16.3-31.7t7-27.5 8-25 15-19 22-20 21.7-22q8.8-11 13.3-13l4.5-2 1-0.2 1-0.3 1-0.5 1-0.5 0.2-0.3 0.3-0.2 7.3-4.2q7.2-4.3 24.2-9.3t23-9.5 17.5-6.5 23.5-1.5 23 0.5 17-3 9.8-7.3q3.7-4.2 4.2-5.2l0.5-1 0.3-0.2 0.2-0.3 1-0.3 1-0.2-0.2-1.5-0.3-1.5-0.3-0.2-0.2-0.3-0.2-0.3-0.3-0.2-0.3-0.2-0.2-0.3-1-0.5q-1-0.5-12.5-4.5l-11.5-4-2-0.3-2-0.2 0.2-1 0.3-1 0.7-1.8q0.8-1.7 3-3.4 2.3-1.8 2.8-3.3t0.5-4v-2.5l-0.3-0.2-0.2-0.3-1.5-0.5-1.5-0.5-1-0.3-1-0.2v-0.2q0-0.3-45-0.6l-45-0.2v-2l1-0.2 1-0.3 1.5-0.5 1.5-0.5 1.5-0.5 1.5-0.5 20-4q20-4 32.5-7.5t16-5 4-1.8l0.5-0.2h3.8q3.7 0 10.2 13t14.2 20.8q7.8 7.7 41.3 27.7t46.5 25.5 23 7.5 17.5 3 17.3 7.3q9.7 6.2 22.7 19.7t21.3 23.3q8.2 9.7 17.4 17.4 9.3 7.8 11.8 12.8t3 6z"/>
   <path d="m996.8 0.5l0.2-0.5h1.5q1.5 0 1.5 232.5v232.5l-0.5 0.2q-0.5 0.3-41.5 1l-41 0.8v-0.5l-1.5-0.3-1.5-0.2-0.2-14.5q-0.3-14.5-0.3-20t3.5-24 3.5-29-34.7-78.5l-34.8-68 0.2-17.5q0.3-17.5 4-28.7 3.8-11.3 30-43 26.3-31.8 68.8-86.8t42.8-55.5z"/>
   <path d="m773 850.2v-0.2l16.5 0.8q16.5 0.7 26.7 5 10.3 4.2 40 29 29.8 24.7 83.3 66.2t54.5 42l1 0.5 0.2 0.3 0.3 0.2 0.3 0.2 0.2 0.3 0.2 0.3 0.3 0.2 0.3 0.2 0.2 0.3 0.2 0.3 0.3 0.2 0.3 0.2 0.2 0.3 0.2 0.3 0.3 0.2 0.3-0.2 0.2-0.3 0.5-0.3 0.5-0.2v4h-466l-0.2-6.5q-0.3-6.5-0.6-40.5l-0.2-34 1-2.2q1-2.3 25-2.3t42 3.5 25 2.5 73.5-35 70-34.5 3.5-0.8z"/>
   <path d="m47.5 533.2l32.5-0.2 2.2 1q2.3 1 2.3 24.5t-3.5 41-3 23.5 16.8 38.8q16.2 32.7 16.7 33l0.5 0.2 0.2 1 0.3 1 17.5 34.5q17.5 34.5 17.5 54t-0.5 21.5l-0.5 2-0.5 1-0.5 1-0.3 1.5-0.2 1.5-4 7.2q-4 7.3-29.2 37.6-25.3 30.2-65.3 81.7t-40.5 52.5l-0.5 1-0.3 0.2-0.2 0.3-0.2 0.3-0.3 0.2-0.3 0.2-0.2 0.3-0.2 0.3-0.3 0.2-0.5 1-0.5 1-0.3 0.2-0.2 0.3 7 0.5 7 0.5v0.5h-16v-465l0.5-0.2 0.5-0.3 7-0.5q7-0.5 39.5-0.8z"/>
   <path d="m0 4v-4h465l0.8 10q0.7 10 0.7 39.5t-0.3 32.5l-0.2 3-0.5 0.2-0.5 0.3-1 0.3-1 0.2-4.5 0.2q-4.5 0.3-19 0.3t-29-2.7l-14.5-2.8-0.2-0.5q-0.3-0.5-0.6-0.5h-0.2l-1.5-0.2-1.5-0.3-2-0.5q-2-0.5-6-1t-9.5 0-74.5 35-87 34.5-26-2.5-29-19.5-72.2-57.3q-51.3-40.2-68-52.7l-16.8-12.5-0.2 2.5q-0.3 2.5-0.6 2.5h-0.2v-4z"/>
   <path d="m279.8 825.5l4.2-11.5 8.2 5q8.3 5 50 32.2 41.8 27.3 45.6 32 3.7 4.8 4 5.3l0.2 0.5v0.2q0 0.3 0.5 0.6l0.5 0.2 5.2 11q5.3 11 6.8 21.5t-6 40.5-7.8 33.5l-0.2 3.5h-279v-1h11l32-0.2q32-0.3 32.2-0.6 0.3-0.2 19.3-34.7t34.7-61.7q15.8-27.3 24.8-46l9-18.8h0.2q0.3 0 4.6-11.5z"/>
   <path d="m0 288.5v-101.5l32 17.8q32 17.7 54.2 30 22.3 12.2 38 21.4 15.8 9.3 29.8 15.3t15 6.5l1 0.5 1.5 0.3 1.5 0.2 1.5 0.8q1.5 0.7 3 1.2l1.5 0.5 1.5 0.3 1.5 0.2v0.2q0 0.3 1 0.8l1 0.5 1 0.3 1 0.2-0.2 1.5-0.3 1.5-0.3 0.2-0.2 0.3-32.2 49.3q-32.3 49.2-33.6 50-1.2 0.7-1.7 1l-0.5 0.2h-0.2q-0.3 0-0.6 0.5l-0.2 0.5h-0.2q-0.3 0-0.6 0.5l-0.2 0.5-1 0.2q-1 0.3-6.5 3.8t-16 7.5-19 4.5-40-7.5l-31.5-8-0.2-0.3-0.3-0.2h-0.5v-101.5z"/>
   <path d="m601.2 32l7.8-32h203l-0.2 0.5q-0.3 0.5-19.3 35t-33.3 59.3q-14.2 24.7-21 37.4-6.7 12.8-14.7 32.3l-8 19.5-0.3 0.2-0.2 0.3v0.5l-0.5 0.2-0.5 0.3-0.2 0.3-0.3 0.2-0.3-0.2-0.2-0.3-0.2-0.3-0.3-0.2-0.3-0.2-0.2-0.3-1-0.5q-1-0.5-47.5-30.5t-54-41-11.3-21.3q-3.7-10.2-4.2-18.7t7.2-40.5z"/>
   <path d="m997.5 608.8l2.5 0.2v203l-0.5-0.2-0.5-0.3-0.2-0.3-0.3-0.2-0.3-0.2-0.2-0.3-1-0.5-1-0.5-1-0.5q-1-0.5-8.8-4.8-7.7-4.2-33-18-25.2-13.7-58.2-32.7t-51.5-26.7l-18.5-7.8v-0.2q0-0.3-4.5-1.8l-4.5-1.5-0.2-0.3-0.3-0.2h-0.5l-0.2-0.5-0.3-0.5-0.3-0.2-0.2-0.3 0.2-0.3 0.3-0.2 0.3-0.2 0.2-0.3 0.2-0.3 0.3-0.2 31.7-49q31.8-49 47.8-57.8 16-8.7 23-10.2t15-1 35 7.5 29.5 7.3z"/>
  </g>
  <path d="m533 0.2v-0.2h76l-7.8 32q-7.7 32-7.2 40.5t4.2 18.7q3.8 10.3 11.3 21.3t54 41 47.5 30.5l1 0.5 0.2 0.3 0.3 0.2 0.3 0.2 0.2 0.3 0.2 0.3 0.3 0.2 0.3-0.2 0.2-0.3 0.5-0.3 0.5-0.2-3.8 14.5q-3.7 14.5-4 25l-0.2 10.5 2.2 10q2.3 10 3.3 15.5t5 10.5 21.7 35.8q17.8 30.7 22.8 36.7t5.2 6.3l0.3 0.2 0.3 0.2 0.2 0.3 0.2 0.3 0.3 0.2 0.3 0.2 0.2 0.3 0.2 0.3 0.3 0.2 0.3 0.5 0.2 0.5-0.2 0.5-0.3 0.5-0.3 0.2-0.2 0.3-0.2 0.3-0.3 0.2-0.3 0.2-0.2 0.3-1 0.5-1 0.5v0.5l-1 0.2-1 0.3-1 0.5-1 0.5h-3.5q-3.5 0-10-1.5t-12-4.2l-5.5-2.8-0.2-0.5q-0.3-0.5-0.6-0.5h-0.2l-0.2-0.5q-0.3-0.5-0.6-0.5h-0.2l-0.2-0.5q-0.3-0.5-0.6-0.5h-0.2l-0.2-0.5q-0.3-0.5-0.6-0.5h-0.2l-0.2-0.5q-0.3-0.5-0.6-0.5h-0.2l-0.2-0.5q-0.3-0.5-0.6-0.5h-0.2l-0.2-0.5q-0.3-0.5-5-4.7-4.8-4.3-11-11.6-6.3-7.2-8-13.7-1.8-6.5-2.8-6.7-1-0.3-17.5-17.6l-16.5-17.2-0.2-0.5q-0.3-0.5-0.6-0.5h-0.2l-0.2-0.5q-0.3-0.5-0.6-0.7l-0.2-0.3-0.2-0.3-0.3-0.2-0.3-0.2-0.2-0.3-0.2-0.3-0.3-0.2-0.3-0.2-0.2-0.3-0.2-0.3-0.3-0.2-0.3-0.2-0.2-0.3-0.2-0.3-0.3-0.2-0.3-0.2-0.2-0.3-0.2-0.3q-0.3-0.2-6-6-5.8-5.7-9.8-11.7t-4-7.7q0-1.8-1.8-3.3-1.7-1.5-5.2-7.5t-4.8-9.5q-1.2-3.5 0.3-3.7 1.5-0.3 4-2.8l2.5-2.5 0.2-0.3 0.3-0.2v-1l-0.3-1.5-0.2-1.5-1-0.2q-1-0.3-7-3.8t-6.2-6.8q-0.3-3.2 1.2-5.7t2.5-6.5l1-4v-2l-0.3-0.2-0.2-0.3h-7q-7 0-17-0.5t-11-1.5-9.5-3.3q-8.5-2.2-8.7-3.7-0.3-1.5-2-2.3-1.8-0.7-4.3-3.7t-9.5-4-11.2-3.3q-4.3-2.2-11.6-6.4-7.2-4.3-13.2-4.6l-6-0.2-1-0.2-1-0.3 0.2-0.3q0.3-0.2 0.3-6.7t-1.3-8.7q-1.2-2.3-8.7-2.8l-7.5-0.5-1.5 0.3-1.5 0.2v-0.5l0.2-0.3q0.3-0.2 1.6-0.7 1.2-0.5 1.2-2.5t-3-3.2q-3-1.3-17.5-3.8l-14.5-2.5 1-0.5 1-0.5 0.2-0.3 0.3-0.2 0.3-0.2 0.2-0.3-1-0.5-1-0.5 2.5-1q2.5-1 1-1.3-1.5-0.2-1-2 0.5-1.7 1.5-2 1-0.2 1-1.7t1-1.5 1.2-1.5l0.3-1.5v-1l-0.3-0.2q-0.2-0.3-3.7-1.8l-3.5-1.5-0.2-0.3-0.3-0.2-0.3-0.2-0.2-0.3 1-0.5 1-0.5 2-0.5 2-0.5-0.2-0.3-0.3-0.2-0.3-0.2-0.2-0.3v-0.5l1-0.2 1-0.3 0.5-0.3 0.5-0.2 20 2q20 2 20 1t1-1 1.8-8q0.7-8 2.2-13t2.5-13 1.7-10q0.8-2 2-2.5 1.3-0.5 5.8-11.5t6.2-19.5q1.8-8.5 2.8-8.7 1-0.3 1-0.6z" fill="#fbbe9d" stroke="#fbbe9d"/>
  <path d="m826 768.2v-0.2l7.5 1.2q7.5 1.3 13.5 6.3t14.2 12.3q8.3 7.2 9 8.4 0.8 1.3 5.6 4 4.7 2.8 9.2 9.3t9.8 12.7q5.2 6.3 23 18.6 17.7 12.2 21 14.2 3.2 2 5.7 4.8 2.5 2.7 11.3 9 8.7 6.2 9 7.2 0.2 1 7.2 5.2 7 4.3 13.8 7.6 6.7 3.2 7 3.4l0.2 0.3h3l0.2-0.3 0.3-0.2 0.3 0.2 0.2 0.3h2l0.5-0.3 0.5-0.2v104l-0.5 0.2-0.5 0.3-0.2 0.3-0.3 0.2-0.3-0.2-0.2-0.3-0.2-0.3-0.3-0.2-0.3-0.2-0.2-0.3-0.2-0.3-0.3-0.2-0.3-0.2-0.2-0.3-0.2-0.3-0.3-0.2-0.3-0.2-0.2-0.3-1-0.5q-1-0.5-54.5-42t-83.3-66.2q-29.7-24.8-40-29-10.2-4.3-26.7-5l-16.5-0.8v-0.5l1-0.5 1-0.5-1.5-0.5-1.5-0.5 0.2-0.3 0.3-0.2 0.3-0.2 0.2-0.3 1-0.5q1-0.5-0.5-1.5t-1-2.5 1-4.8q0.5-3.2 1.5-3.2t1.2-1q0.3-1 7-5.8 6.8-4.7 13.3-5.2t9-2 4.7-5.2q2.3-3.8 2.3-9.3t-3-11.5-3-10 0.5-6.5-0.2-3.3l-0.8-0.7 3-0.5q3-0.5 3-0.8v-0.2l8.2-0.5q8.3-0.5 7-1.7-1.2-1.3-1.2-1.6z" fill="#fbc49f" stroke="#fbc49f"/>
  <path d="m808.5 772.2l3.5-0.2v0.2q0 0.3-3 0.8l-3 0.5 0.8 0.7q0.7 0.8 0.2 3.3t-0.5 6.5 3 10 3 11.5-2.3 9.3q-2.2 3.7-4.7 5.2t-9 2-13.3 5.2q-6.7 4.8-7 5.8-0.2 1-1.2 1t-1.5 3.2q-0.5 3.3-1 4.8t1 2.5 0.5 1.5l-1 0.5-0.2 0.3-0.3 0.2-0.3 0.2-0.2 0.3 1.5 0.5 1.5 0.5-1 0.5-1 0.5v0.7q0 0.3-3.5 0.8t-70 34.5-73.5 35-25-2.5-42-3.5-25 2.3l-1 2.2-0.2-2.5q-0.3-2.5-16-4.5l-15.8-2v-0.5l-5.5-0.5q-5.5-0.5-6.5-0.5t-4 2.5l-3 2.5-0.2-0.3q-0.3-0.2-1.8-3.2t-10.2-6.2q-8.8-3.3-16.3-1.8t-15 2-11-1-4.5-3-7-3.2q-6-1.8-5.8-2.8 0.3-1-1.2-2.5t-8.8-1.5h-7.2l-0.2-0.5q-0.3-0.5-0.6-0.5h-0.2l-0.2-0.5q-0.3-0.5-4-5.3-3.8-4.7-45.6-32-41.7-27.2-50-32.2l-8.2-5 0.2-1q0.3-1 1.3-4t3.7-16.5l2.8-13.5 0.5-0.2 0.5-0.3 0.2-0.3 0.3-0.2 0.3-0.2 0.2-0.3 0.2-0.3 0.3-0.2 0.3 0.2 0.2 0.3 1.5 0.5 1.5 0.5 0.2 0.3 0.3 0.2 0.3 0.2 0.2 0.3 0.2 0.3 0.3 0.2 0.3 1.5q0.2 1.5 3 2 2.7 0.5 4 4 1.2 3.5 2.2 3.5t4 3.2q3 3.3 5 5.3t1.5 3.3q-0.5 1.2 2.3 2.7 2.7 1.5 13.2 10t13.8 12.5q3.2 4 6.4 5.5 3.3 1.5 3.6 2.5 0.2 1 1.7 1.2l1.5 0.3 0.2 0.3 0.3 0.2 0.3 0.2 0.2 0.3 0.2 0.3 0.3 0.2 0.3 0.2 0.2 0.3 1 0.5 1 0.5h4l-0.2-0.3-0.3-0.2-0.3-0.2-0.2-0.3-0.2-0.3-0.3-0.2-0.3-0.2-0.2-0.3-0.2-0.3-0.3-0.2-0.3-0.2-0.2-0.3-0.2-0.3q-0.3-0.2-1.3-3.2t1.7-5.2q2.8-2.3 2.8-3.6v-1.2l1 0.2 1 0.3 1.5 0.5 1.5 0.5h1l13.5-1.5q13.5-1.5 20 0.5t7.3 1.3q0.7-0.8 0.4-1.8-0.2-1 5.3 0.2 5.5 1.3 6.5 1.8l1 0.5 1 0.3 1 0.2v0.2q0 0.3 0.5 0.6l0.5 0.2v0.2q0 0.3 0.5 0.6l0.5 0.2 6 2.2q6 2.3 10 3 4 0.8 4.5-0.4 0.5-1.3 6 2.7t14.5 8 9.5 4.3l0.5 0.2v0.2q0 0.3 0.5 0.6l0.5 0.2-0.2 0.5q-0.3 0.5-0.3 1.5v1l0.3 1q0.2 1 1.4 1.5 1.3 0.5 2.3 9t4.3 9.7q3.2 1.3 15.4 0.6 12.3-0.8 13.6-0.3 1.2 0.5 1.2-0.5t13-1.2q13-0.3 20.5-1 7.5-0.8 7.5 0.2t3.5 1.8q3.5 0.7 9.5 1.2t6.5-0.2q0.5-0.8 6.5 0 6 0.7 9.5-0.8t8.5-1.8q5-0.2 5.5-3 0.5-2.7 8.5-5.2t21-2.5 16 1 17.5 1 21.5-2 14.5-3 15.5-5 8.5-5.3q0.5-1.2 7.5-5.2t7-5 8.8-7q8.7-6 12.2-10.5t5.8-9.3q2.2-4.7 4.7-5 2.5-0.2 2.5-1.2t1-1.2l1-0.3 0.2-0.3 0.3-0.2v-4l-0.3-0.2-0.2-0.3-1.5-0.5q-1.5-0.5-3-1t-8-6l-6.5-5.5-0.2-0.3-0.3-0.2h-0.5l-0.2-0.5-0.3-0.5h-0.5l-0.2-0.5-0.3-0.5-0.3-0.2-0.2-0.3-1-0.5-1-0.5 1-0.5 1-0.5-0.2-0.3-0.3-0.2-0.3-0.2-0.2-0.3 1.5-0.5 1.5-0.5h4l4.5 1.5q4.5 1.5 11 1t9-1.2q2.5-0.8 2.5-1.8t1.2-1.5q1.3-0.5 1.6-1.5 0.2-1 1.7-1.8 1.5-0.7 5-1z" fill="#fcc19b" stroke="#fcc19b"/>
  <path d="m0.8 5.5l0.2-2.5 16.8 12.5q16.7 12.5 68 52.7 51.2 40.3 72.2 57.3t29 19.5 26 2.5 87-34.5 74.5-35 9.5 0 6 1l2 0.5 1.5 0.3 1.5 0.2v0.5l0.5 0.3 0.5 0.2v0.5l0.2 0.3 0.3 0.2 0.3 0.2 0.2 0.3 0.2 0.3 0.3 0.2v1l-0.3 0.2-0.2 0.3-1.5 0.5-1.5 0.5h-5q-5 0-14.5 0.5t-8 1-1 3.8q-2.5 3.2-3.5 3.4-1 0.3-1.5 1.6-0.5 1.2-1.5 1.2t-1.2 1q-0.3 1-1.6 1.5-1.2 0.5-1.2 1.5t-1 1.2l-1 0.3-0.2 0.3-0.3 0.2-0.3 0.2-0.2 0.3 0.2 0.3 0.3 0.2 0.5 1 0.5 1 1.3 0.8q1.2 0.7 2.7 1.2t3 0.8l1.5 0.2v2h-3v2h-5l-1-0.2-1-0.3h-1q-1 0-1 0.3v0.2l-2 0.2q-2 0.3-5 0.8t-15 6.5-12.5 7.7q-0.5 1.8-7 3-6.5 1.3-17 2.8t-20.5 6-17 9-9 6-7 5.2q-5 3.8-5 4.8t-1 1.2q-1 0.3-10.2 7-9.3 6.8-17.6 8.6-8.2 1.7-10 7.4-1.7 5.8-1.7 9.3t1.7 11.5q1.8 8 0.8 8t-1 1-1.5 1.2q-1.5 0.3-1.3 1.6 0.3 1.2-0.4 2-0.8 0.7-9.8 1.7l-9 1v0.5l-0.5-0.2q-0.5-0.3-7.5-2.6-7-2.2-7.2-3.2-0.3-1-3-2.8-2.8-1.7-10.8-6.7t-10.8-7.7q-2.7-2.8-6.4-4.6-3.8-1.7-8.6-7-4.7-5.2-8.4-8.7-3.8-3.5-4-4.5-0.3-1-6.6-6.8-6.2-5.7-14.7-7.7t-11-4-12.3-6.7q-9.7-4.8-14.4-6.8l-4.8-2-0.2-0.5q-0.3-0.5-0.6-0.5h-0.2l-0.2-0.5q-0.3-0.5-0.6-0.5h-0.2l-0.2-0.5q-0.3-0.5-0.6-0.5h-0.2l-0.2-0.5q-0.3-0.5-0.6-0.5h-0.2l-0.2-0.5q-0.3-0.5-0.6-0.5h-0.2l-0.5-0.2q-0.5-0.3-7-5.3t-12.7-10.3q-6.3-5.2-9.8-7.2t-4.8-2h-1.2v-107h0.2q0.3 0 0.6-2.5z" fill="#fcd0b1" stroke="#fcd0b1"/>
  <path d="m162 802.2l-1-2.2 2 0.2 2 0.3 2.8 1.7q2.7 1.8 3 3.6 0.2 1.7 2.7 4.2t4.5 3.2q2 0.8 2 1.8t8 2.2q8 1.3 9.5 1 1.5-0.2 1.5-1.2t6.5-0.2q6.5 0.7 9.3 2 2.7 1.2 3.7 4.7t0.7 3.7l-0.2 0.3 0.2 0.3 0.3 0.2 0.3 0.2 0.2 0.3 0.2 0.3 0.3 0.2 0.3 0.2 0.2 0.3h1l1-0.5 1-0.5 0.2-0.3 0.3-0.2 0.5-1.5 0.5-1.5 0.3-0.2 0.2-0.3 0.2-0.3q0.3-0.2 2-3 1.8-2.7 2.8-6l1-3.2h2l0.2-1.5 0.3-1.5h0.5l-0.8 11.5q-0.7 11.5-5.4 19.3-4.8 7.7-10.3 14.7t-6.5 7.3q-1 0.2-2 2-1 1.7-2 2-1 0.2-1 1.2t-1 1-1 1-1 1-5.2 6q-4.3 6-9.8 9.5t-5.8 4.5q-0.2 1-4 3.5-3.7 2.5-7.2 6t-12 16.5-20.2 28.2q-11.8 15.3-19.3 23.3t-7.5 9-4.8 8.3q-4.7 7.2-5 7.4l-0.2 0.3-0.2 0.3-0.3 0.2-0.3 0.2-0.2 0.3-0.2 0.3-0.3 0.2-0.5 1.5-0.5 1.5-0.3 0.2-0.2 0.3 0.2 0.3 0.3 0.2 0.3 0.2 0.2 0.3 5.5 0.3 5.5 0.2v1h-96v-0.5l-7-0.5-7-0.5 0.2-0.3 0.3-0.2 0.5-1 0.5-1 0.3-0.2 0.2-0.3 0.2-0.3 0.3-0.2 0.3-0.2 0.2-0.3 0.2-0.3 0.3-0.2 0.5-1q0.5-1 40.5-52.5t65.3-81.7q25.2-30.3 29.2-37.6l4-7.2 1-0.2 1-0.3 0.2-0.3 0.3-0.2 0.3-0.2 0.2-0.3 1-0.5 1-0.5 1-0.5 1-0.5 0.2-0.3 0.3-0.2 0.5-1q0.5-1 2.8-3.2 2.2-2.3 4.7-1.8t1.5-1.8z" fill="#e8a67e" stroke="#e8a67e"/>
  <path d="m350.5 112.5h1.5l1 0.3 1 0.2v0.2q0 0.3-6 1.3l-6 1-0.2 0.3-0.3 0.2-0.3 0.2-0.2 0.3 2 0.5q2 0.5-0.5 1l-2.5 0.5 2.5 0.5q2.5 0.5 1.5 1t-2 1l-1 0.5 3.5 0.3q3.5 0.2 4 1.4 0.5 1.3 3 0.8t5-0.5h2.5l-0.2 0.3-0.3 0.2-0.5 1-0.5 1-0.3 0.2-0.2 0.3-0.2 0.3-0.3 0.2-0.5 1.5-0.5 1.5-0.3 0.2-0.2 0.3 2 0.5 2 0.5-1 0.5q-1 0.5-5 0.8-4 0.2-5.2 2.2-1.3 2-8.8 4l-7.5 2-0.3 0.2-0.2 0.3-1.5 0.5-1.5 0.5h-4l-0.2 0.3-0.3 0.2-0.3 0.2-0.2 0.3h19.5q19.5 0 47.5-6t61.5-9.5 36-3.8l2.5-0.2 1.5-0.2 1.5-0.3 7.5 0.5q7.5 0.5 8.7 2.8 1.3 2.2 1.3 8.7t-0.3 6.7l-0.2 0.3 1 0.3 1 0.2h0.2q0.3 0 0.8 1.5l0.5 1.5v2l-0.3 0.2-0.2 0.3v0.5l-0.5-0.2-0.5-0.3-1-0.5q-1-0.5-2.5-0.5t-5.5 4-17 9l-13 5-0.2 0.3-0.3 0.2h-0.5l-0.5 0.2q-0.5 0.3-0.5 0.6v0.2l-1.5 0.2q-1.5 0.3-3 0.8t-12 1-15.5-0.5-27.5 4-25 6.5-7 4.2l-4.5 2.8-1 0.2-1 0.3h-2l0.2-0.3 0.3-0.2 0.3-0.2 0.2-0.3-2-0.5-2-0.5-0.2-0.3-0.3-0.2-0.3 0.2q-0.2 0.3-0.7 0.3t-2 0.5-5 1.2q-3.5 0.8-3.7-0.2-0.3-1-14-1.8-13.8-0.7-16-1.4-2.3-0.8-8.6-2-6.2-1.3-11.7-0.6l-5.5 0.8 0.2-3q0.3-3 0.8-5.5t-0.8-4.7q-1.2-2.3-2.2-3.8t-11.5-2-14 1-6.7 4.8q-3.3 3.2-5.8 6.2l-2.5 3-0.3 0.2-0.2 0.3 0.2 0.3 0.3 0.2 0.3 2 0.2 2h1q1 0 3 2.2 2 2.3 7.5 4.8t7 2.8l1.5 0.2 0.2 2 0.3 2v3l-0.3 0.2q-0.2 0.3-1.4 2-1.3 1.8-8.6 9.6-7.2 7.7-15.7 12.7t-18 5.3q-9.5 0.2-9.5-0.8t-8-0.5-8.2 1.5q-0.3 1-8 2l-7.8 1-2-0.2q-2-0.3-6-1.3l-4-1-2-0.5-2-0.5-1-0.5-1-0.5-1.5-0.3-1.5-0.2v-0.5l9-1q9-1 9.8-1.7 0.7-0.8 0.4-2-0.2-1.3 1.3-1.6 1.5-0.2 1.5-1.2t1-1-0.8-8q-1.7-8-1.7-11.5t1.7-9.3q1.8-5.7 10-7.4 8.3-1.8 17.6-8.6 9.2-6.7 10.2-7 1-0.2 1-1.2t5-4.8q5-3.7 7-5.2t9-6 17-9 20.5-6 17-2.8q6.5-1.2 7-3 0.5-1.7 12.5-7.7t16.5-7 6-1z" fill="#f9c6a9" stroke="#f9c6a9"/>
  <path d="m900 0.2v-0.2h97l-0.2 0.5q-0.3 0.5-42.8 55.5t-68.8 86.8q-26.2 31.7-30 43-3.7 11.2-4 28.7l-0.2 17.5v3h-2l-0.2-1q-0.3-1-1 0.2-0.8 1.3-2.8 0.3t-5-1.3l-3-0.2 0.2 1.5 0.3 1.5-0.7 0.5q-0.8 0.5-1 2.5-0.3 2 0.7 3.5t1 2 0.5 1.5l0.5 1 0.3 2.5 0.2 2.5h-0.5l-0.5-1.5-0.5-1.5-0.5 1.5-0.5 1.5-0.3-0.2-0.2-0.3-0.2-0.3-0.3-0.2-0.5-1.5-0.5-1.5-0.3-0.2-0.2-0.3-0.2-0.3q-0.3-0.2-1.8-3.2t-5.8-6.8q-4.2-3.7-8.7-5.7t-10-2-5.3 1.7l0.3 1.8-0.5 1-0.5 1-0.3-0.2-0.2-0.3-0.2-0.3-0.3-0.2-0.3-0.2-0.2-0.3-0.2-0.3-0.3-0.2-0.3-0.2-0.2-0.3 1-0.3 1-0.2-0.2-1-0.3-1-0.3 0.2-0.2 0.3-1 0.5-1 0.5-0.2 0.3-0.3 0.2-0.3 0.2-0.2 0.3h-2l0.2-0.3 0.3-0.2 0.5-1 0.5-1 1.3-2.5q1.2-2.5 2.4-2 1.3 0.5 1.3-0.5v-1l-0.3-0.2-0.2-0.3-0.2-0.3q-0.3-0.2-2.6-1.2-2.2-1-2-2 0.3-1-4.7-3.5t-5.7-3.3q-0.8-0.7-2.8-0.2t-2.8 2.8q-0.7 2.2-5 3.7-4.2 1.5-4.2 2.5t-1 1-1.2 1.5q-0.3 1.5-3.3 5l-3 3.5-0.3 0.2-0.2 0.3-0.2 0.3-0.3 0.2-0.3 0.2-0.2 0.3-0.2 0.3-0.3 0.2-0.3 0.2-0.2 0.3-0.2 0.3-0.3 0.2-0.5 1-0.5 1h-0.5l-0.2-0.5-0.3-0.5v-2l0.5-1 0.5-1 0.5-2.5q0.5-2.5 1.2-8.5l0.8-6 1.8-10q1.7-10 4.2-15t4-10.5 4-10.5 3.2-7.5q0.8-2.5 4-4.5 3.3-2 5.3-5.5t3.3-8.5q1.2-5 5.4-8.5 4.3-3.5 5.3-5t2-5.5 2.3-5.2q1.2-1.3 5.2-2.3t5 0 4.5 0.5 5.5 0.2q2 0.8 3-1 1-1.7 2-2 1-0.2 1.2-4.2 0.3-4 0.6-5 0.2-1 1.2-1.2 1-0.3 0-0.6-1-0.2-0.2-3.7 0.7-3.5 1.4-5 0.8-1.5 2.6-3 1.7-1.5 4.4-7.5 2.8-6 7.8-9.8 5-3.7 9.5-7.4 4.5-3.8 13.3-17.8 8.7-14 12.7-22t8.3-14.2q4.2-6.3 5.4-9.6 1.3-3.2 1-3.4-0.2-0.3-0.2-0.6z" fill="#885233" stroke="#885233"/>
  <path d="m397.8 900.5l-5.8-11.5h1q1 0 1.5 0.8 0.5 0.7 6.5 0.2t7.8 1.2q1.7 1.8 1.4 2.8-0.2 1 5.8 2.8 6 1.7 7 3.2t4.5 3 11 1 15-2 16.3 1.8q8.7 3.2 10.2 6.2t1.8 3.2l0.2 0.3 3-2.5q3-2.5 4-2.5t6.5 0.5l5.5 0.5v0.5l-2 0.2-2 0.3-2.5 18q-2.5 18-9.7 40.3-7.3 22.2-7.8 24.7t-0.8 2.7l-0.2 0.3-0.2 0.3-0.3 0.2-0.3 0.2-0.2 0.3 0.2 0.3 0.3 0.2 0.3 0.2 0.2 0.3-1.5 0.5-1.5 0.5v0.5h-82l0.2-3.5q0.3-3.5 7.8-33.5t6-40.5-7.2-22z" fill="#fcce9f" stroke="#fcce9f"/>
  <path d="m275 835.5v1.5l-9 18.8q-9 18.7-24.8 46-15.7 27.2-34.7 61.7t-19.3 34.7q-0.2 0.3-32.2 0.6l-32 0.2-0.2-0.5-0.3-0.5-0.3-1-0.2-1 2-0.2 2-0.3-0.2-0.3-0.3-0.2-0.3-0.2-0.2-0.3 0.2-0.3 0.3-0.2 0.3-0.2 0.2-0.3 0.2-0.3 0.3-0.2 0.5-1q0.5-1 2.2-3.5 1.8-2.5 4.3-3.3 2.5-0.7 8.3-7 5.7-6.2 12-11.7 6.2-5.5 6.4-6.5 0.3-1 5.6-7.2 5.2-6.3 9.4-12 4.3-5.8 9.6-12.6 5.2-6.7 5.2-7.7t8.8-10.7q8.7-9.8 17.4-19.6 8.8-9.7 13-17.4 4.3-7.8 11.6-17.8l7.2-10v0.5h1l0.2-0.3 0.3-0.2 0.3-0.2 0.2-0.3 0.2-0.3 0.3-0.2 0.3-0.2 0.2-0.3 1-0.5 1-0.5 0.2-0.3 0.3-0.2 0.3-0.2 0.2-0.3 0.2-0.3 0.3-0.2 0.3-0.2 0.2-0.3 2.5-2.5q2.5-2.5 4-2.8 1.5-0.2 1.5-1.2t4 0.2q4 1.3 6 0.6 2-0.8 2 0.7z" fill="#6a3c22" stroke="#6a3c22"/>
  <path d="m800.8 223.2l0.2 0.3 0.2 0.3 0.3 0.2-0.3 1.2q-0.2 1.3-2.2 2.3t0.8 1.7q2.7 0.8 5.4 0 2.8-0.7 5.3-0.2t7 2.5 8.7 5.7q4.3 3.8 5.8 6.8t1.8 3.2l0.2 0.3 0.2 0.3 0.3 0.2 0.5 1.5 0.5 1.5 0.3 0.2 0.2 0.3 0.2 0.3 0.3 0.2 0.5-1.5 0.5-1.5 0.5 1.5 0.5 1.5h0.5l3 4.8q3 4.7 4 5 1 0.2 2.5 4.4 1.5 4.3 2.5 4.6 1 0.2 3 4.4 2 4.3 3.8 5.6 1.7 1.2 1.2 6.2t0.2 6.5q0.8 1.5 1.8 1.5t1.8 5q0.7 5 1.2 6t0.5 3.5v2.5l-0.3-0.2q-0.2-0.3-1.2-0.3t-1.2 2.3l-0.3 2.2-0.3 0.2q-0.2 0.3-1.7-2l-1.5-2.2-1 0.2-1 0.3-0.2 0.3-0.3 0.2 0.5 24q0.5 24 1 28.5t5.8 28.3q5.2 23.7 5.4 24 0.3 0.2 0.6 9.7l0.2 9.5 1.2 12q1.3 12 1.3 20.5v8.5l-0.3-0.2-0.2-0.3-0.2-0.3-0.3-0.2-0.5-1.5-0.5-1.5-0.3-0.2-0.2-0.3-0.2-0.3-0.3-0.2-0.3-0.2-0.2-0.3-0.2-0.3-0.3-0.2-0.5-3q-0.5-3-2.2-4.2l-1.8-1.3-0.2-0.3-0.3-0.2-0.3-0.2-0.2-0.3h-8l-1 0.5-1 0.5-0.2 0.3-0.3 0.2v4q0 4 0.3 4.2l0.2 0.3 1 0.3 1 0.2v2h-2l-0.5-0.2-0.5-0.3-0.2-0.3-0.3-0.2-0.3-0.2-0.2-0.3-1-0.5-1-0.5-0.2-0.3-0.3-0.2-0.3-0.2-0.2-0.3-0.2-0.3-0.3-0.2-0.3-0.2-0.2-0.3-0.2-0.3-0.3-0.2-0.3-0.2-0.2-0.3-0.2-0.3-0.3-0.2-0.3-0.2q-0.2-0.3-0.4-1.6-0.3-1.2 1.4-3.4 1.8-2.3 1-9-0.7-6.8 1.3-11.8t3.7-6.2l1.8-1.3-0.2-0.3-0.3-0.2-0.3-0.2-0.2-0.3-2.5-0.5q-2.5-0.5-2.7-0.8-0.3-0.2-1.8-3.2l-1.5-3v-2l0.3-0.2 0.2-0.3 0.8 0.3q0.7 0.2 2.4-1.6 1.8-1.7 2.8-2.2l1-0.5 0.2-0.3 0.3-0.2 0.3-0.2 0.2-0.3 1-0.5 1-0.5 0.2-0.3 0.3-0.2 0.3-0.2 0.2-0.3 0.2-0.3 0.3-0.2 0.3-0.2 0.2-0.3h-2l-1 0.5-1 0.5-1.5 0.5-1.5 0.5-3 0.5q-3 0.5-5.5 0.5t-3-1.3q-0.5-1.2-1.5-1.2t-1.2-2.5q-0.3-2.5-1.6-5.3-1.2-2.7-2.7-8-1.5-5.2-2.5-5.2t-0.8-4q0.3-4-1.2-7t-2.8-3.5q-1.2-0.5-3.4-4-2.3-3.5-3.8-6.5t-1.8-7.2q-0.2-4.3 0.3-6.6 0.5-2.2-0.5-2.2t-0.2-6q0.7-6-0.6-9.2-1.2-3.3-1.2-4.3t-0.8-5.7q-0.7-4.8-5.4-12.6-4.8-7.7-5.3-7-0.5 0.8-1.5 0.6-1-0.3-3.5-3.6-2.5-3.2-7.5-3.2t-4.5-3.5-0.5-3.5-2.2 2l-1.3 2-0.5-1-0.5-1v-2.5q0-2.5-0.7-8-0.8-5.5-1.8-5.7-1-0.3-1.5-1.6-0.5-1.2-4-2.7t-3.7-0.5q-0.3 1-0.8-3.5t-4-10.5-3.8-16l-0.2-10h0.5l0.5-1 0.5-1 0.3-0.2 0.2-0.3 0.2-0.3 0.3-0.2 0.3-0.2 0.2-0.3 0.2-0.3 0.3-0.2 0.3-0.2 0.2-0.3 0.2-0.3 0.3-0.2 3-3.5q3-3.5 3.3-5 0.2-1.5 1.2-1.5t1-1 4.2-2.5q4.3-1.5 5-3.7 0.8-2.3 2.8-2.8t2.8 0.2q0.7 0.8 2.4 2 1.8 1.3 3.6 1 1.7-0.2 4.4-0.2 2.8 0 2.8 1t-1.2 1.5q-1.3 0.5-1.6 1.5-0.2 1 2 2 2.3 1 2.6 1.2zm1 11.6l-0.3 0.2-0.3-0.2-0.2-0.3-1-0.3q-1-0.2-1-1.2t2-1 1.5 1.2q-0.5 1.3-0.7 1.6z" fill="#945536" stroke="#945536"/>
  <path d="m176.8 614l0.2-1 3.8 3.5q3.7 3.5 9.2 13t7 19.5 2.2 17q0.8 7 2.6 8 1.7 1 2 2 0.2 1 3.2 0.8 3-0.3 4.5 1.7t4 1.3q2.5-0.8 2.5 0.2t1 1 1 5.5 1.2 6q1.3 0.5 3.6 5.3 2.2 4.7 4.7 5.4 2.5 0.8 4.5 3.6 2 2.7 3.5 2.2t3.3 2.8q1.7 3.2 4.7 25.2t0.5 33-2.8 13l-0.2 2-3.8 11q-3.7 11-4 12l-0.2 1h-0.5l-0.3 1.5-0.2 1.5h-2l-1 3.2q-1 3.3-2.8 6-1.7 2.8-2 3l-0.2 0.3-0.2 0.3-0.3 0.2-0.5 1.5-0.5 1.5-0.3 0.2-0.2 0.3-1 0.5-1 0.5h-1l-0.2-0.3-0.3-0.2-0.3-0.2-0.2-0.3-1-0.3-1-0.2 0.2-1q0.3-1-0.2-4t-3.2-4.2q-2.8-1.3-9.3-2-6.5-0.8-6.5 0.2t-1.5 1.2q-1.5 0.3-9.5-1-8-1.2-8-2.2t-2-1.8q-2-0.7-4.5-3.2t-2.7-4.2q-0.3-1.8-3-3.6l-2.8-1.7-2-0.3-2-0.2 1 2.2q1 2.3-1.5 1.8t-4.7 1.8q-2.3 2.2-2.8 3.2l-0.5 1-0.3 0.2-0.2 0.3-1 0.5-1 0.5-1 0.5-1 0.5-0.2 0.3-0.3 0.2-0.3 0.2-0.2 0.3-1 0.3-1 0.2 0.2-1.5 0.3-1.5 0.5-1 0.5-1 0.5-2q0.5-2 0.5-21.5t-17.5-54l-17.5-34.5-0.3-1-0.2-1h0.5l0.5-1 0.5-1 0.3 0.2 0.2 0.3 0.2 0.3 0.3 0.2 0.3 0.2 0.2 0.3 1 0.5q1 0.5 1.8-0.2 0.7-0.8 2.4-0.3 1.8 0.5 1.8-0.5t1-1.2q1-0.3 1.8-2 0.7-1.8 1.2-0.3t0.8-0.5q0.2-2 1.2-2h1v-3h0.5v-2l-0.3-3q-0.2-3 1.6-1.5 1.7 1.5 1.7-2v-3.5l0.5 1 0.5 1 0.3 0.2 0.2 0.3 0.2 0.3 0.3 0.2 0.5-2 0.5-2 0.5 1.5 0.5 1.5 0.3-0.2 0.2-0.3 0.2-0.3 0.3-0.2 1 2q1 2 1.3 4.5l0.2 2.5h2l0.2 1 0.3 1 0.3 0.2 0.2 0.3 0.2 0.3 0.3 0.2 0.5-6.5q0.5-6.5 0.8-20.5l0.2-14h0.5l0.3 0.2 0.2 0.3h2l0.2-0.3 0.3-0.2 0.3-0.2 0.2-0.3 0.2-0.3 0.3-0.2 0.3 0.2 0.2 0.3 0.2 0.3 0.3 0.2 0.5-1 0.5-1 0.3-1.5q0.2-1.5 1.2-1.7 1-0.3 0.2-2.6-0.7-2.2 1-1.4 1.8 0.7 2.6-0.6 0.7-1.2 1-4.2 0.2-3 1.4-3.5 1.3-0.5 0.6-1-0.8-0.5-0.8-2t1.5-1.7q1.5-0.3 1.5-1.8v-1.5l3-1.3q3-1.2 3 1 0 2.3 2 1.8t3.5-0.5h1.5l-0.2-0.3-0.3-0.2v-1q0-1 1.3-1.5l1.2-0.5-0.2-1q-0.3-1 0-2z" fill="#e19774" stroke="#e19774"/>
  <path d="m766.8 784h0.7l0.3 0.5 0.2 0.5h0.5l0.3 0.2 0.2 0.3 6.5 5.5q6.5 5.5 8 6t3 1l1.5 0.5 0.2 0.3 0.3 0.2v4l-0.3 0.2-0.2 0.3-1 0.3q-1 0.2-1 1.2t-2.5 1.2q-2.5 0.3-4.7 5-2.3 4.8-5.8 9.3t-12.2 10.5q-8.8 6-8.8 7t-7 5-7.5 5.2q-0.5 1.3-8.5 5.3t-15.5 5-14.5 3-21.5 2-17.5-1-16-1-21 2.5-8.5 5.2q-0.5 2.8-5.5 3-5 0.3-8.5 1.8t-9.5 0.8q-6-0.8-6.5 0-0.5 0.7-6.5 0.2t-9.5-1.2q-3.5-0.8-3.5-1.8t-21.8 0.5q-21.7 1.5-34 2.3-12.2 0.7-15.4-0.6-3.3-1.2-4.3-9.7t-2.3-9q-1.2-0.5-1.4-1.5l-0.3-1-0.3-2-0.2-2h2v2l3.5-0.2q3.5-0.3 7-4.3t13.5-8 18.5-7.5 11-4l2.5-0.5 1-0.5 1-0.5v-0.5l14.5-0.2q14.5-0.3 26-2.3t18.7-3.3q7.3-1.2 12.6-4.4 5.2-3.3 6.2-3.6l1-0.2 0.5-0.2q0.5-0.3 0.5-0.6v-0.2l12.5 0.2q12.5 0.3 18.5 2.8t10 3 5 0.8q1 0.2 0.5 1.4-0.5 1.3 3.5 2.6 4 1.2 4 2.2t3 1.5 3 1.5 1.2 2q1.3 1 2 4 0.8 3 1.8 3t2 2.8q1 2.7 2.5 3 1.5 0.2 2.5 2.4 1 2.3 8.5 3.3t13 0.5 10.5-2.2q5-1.8 5-2.8t3.5-3 6.5-5.2q3-3.3 8.8-6.6 5.7-3.2 7.4-4.2 1.8-1 6-7 4.3-6 4.3-15t-1.3-12q-1.2-3-2.2-3t-0.8-1q0.3-1 0.6-1z" fill="#fab895" stroke="#fab895"/>
  <path d="m182.2 277.8l-1.2-1.3h3l5 1.3q5 1.2 6.5 3 1.5 1.7 2.7 3 1.3 1.2 7.8 4.7t6.2 5.5q-0.2 2 2 3 2.3 1 2.6 2.8 0.2 1.7 6.2 0.2t9-3.5 8.5-3 8-1.7q2.5-0.8 4 1.4 1.5 2.3 2 2.6l0.5 0.2-7 6.8q-7 6.7-11 7.4-4 0.8-4 1.8t-3 1.2q-3 0.3-5.5 1.6-2.5 1.2-2.5 2.2t-1 1-1 2-5 3.2q-5 1.3-9 2-4 0.8-4 1.8t-9 3.8q-9 2.7-11.8 7-2.7 4.2-3.4 7.2-0.8 3-6.6 5-5.7 2-6.2 4l-0.5 2-0.5 1-0.5 1-0.3 0.2-0.2 0.3 0.2 0.3 0.3 0.2 0.7 0.2q0.8 0.3 1.8 0l1-0.2v1q0 1 1.5 1.2l1.5 0.3 0.2 0.3 0.3 0.2 0.3 0.5 0.2 0.5-1-0.2-1-0.3h-2l-0.2 0.3q-0.3 0.2-0.6 0.7l-0.2 0.5-1-1.2q-1-1.3-7.2 8.4-6.3 9.8-13.8 23.8t-11.5 22-6.3 10.8q-2.2 2.7-2.4 3l-0.3 0.2-0.3 0.5-0.2 0.5h-0.5l-0.3 0.2-0.2 0.3-0.2 0.3-0.3 0.2-0.3 0.5-0.2 0.5h-0.5v-1.5q0-1.5 0-2.5v-1l-0.3-0.2-0.2-0.3-1-0.3-1-0.2 0.2 1 0.3 1v0.5q0 0.5-0.5 1.5l-0.5 1-0.3 0.2-0.2 0.3-1 0.3-1 0.2v-2l1-0.2q1-0.3 0.2-2.6l-0.7-2.2-0.3-0.2-0.2-0.3-0.2-0.3-0.3-0.2-0.5 1-0.5 1-0.3 0.2-0.2 0.3-0.2 0.3q-0.3 0.2-0.3 2.2v2l0.3 0.2 0.2 0.3h-3l-0.2-0.3-0.3-0.2-0.3-1-0.2-1-1-0.2-1-0.3 0.2-0.3 0.3-0.2 0.3-0.2 0.2-0.3 0.2-0.3 0.3-0.2 0.3 0.2 0.2 0.3 0.2 0.3 0.3 0.2v-2q0-2-0.5-3t0.2-3q0.8-2 2.3-2t2.7-3q1.3-3 1-5-0.2-2 0.8-2t1.2 1.5q0.3 1.5 0.3-5.5t-1.7-7q-1.8 0-1.8-2.5t-1-2.7l-1-0.3 0.2-0.3q0.3-0.2 1.6-1.7l1.2-1.5 0.5-0.2q0.5-0.3 0.5-0.6v-0.2l0.5-0.2q0.5-0.3 0.5-0.6v-0.2l0.5-0.2q0.5-0.3 1.7-1 1.3-0.8 33.6-50l32.2-49.3 0.2-0.3 0.3-0.2 0.3-1.5 0.2-1.5-1-0.2-1-0.3-1-0.5q-1-0.5-1-0.8v-0.2h2l-0.2-1.5q-0.3-1.5-1.6-2.7zm58 18.4q0.3-0.2 0.6 0 0.2 0.3-0.3 0.3t-0.3-0.3zm-79 65q0.3-0.2 0.6 0 0.2 0.3-0.3 0.3t-0.3-0.3zm-44.7 63.8q-0.5-0.5 0.5-0.8 1-0.2 0.5 0.6-0.5 0.7-1 0.2z" fill="#a16446" stroke="#a16446"/>
  <path d="m821 720v-1h4l18.5 7.8q18.5 7.7 51.5 26.7t58.2 32.7q25.3 13.8 33 18 7.8 4.3 8.8 4.8l1 0.5 1 0.5 1 0.5 0.2 0.3 0.3 0.2 0.3 0.2 0.2 0.3 0.5 0.3 0.5 0.2v53l-0.5 0.2-0.5 0.3-0.2 0.3-0.3 0.2-0.3 0.2-0.2 0.3-0.2 0.3-0.3 0.2-0.3-0.2-0.2-0.3-1.5-0.5-1.5-0.5-0.2-0.3-0.3-0.2-0.3-0.2-0.2-0.3-0.2-0.3-0.3-0.2-0.3 0.2-0.2 0.3-0.2 0.3-0.3 0.2-0.3-0.2-0.2-0.3-0.2-0.3-0.3-0.2-0.3-0.2q-0.2-0.3-1-1-0.7-0.8 0-1.6 0.8-0.7-8.7-11-9.5-10.2-10.5-10.4-1-0.3-1.5-1.6-0.5-1.2-1.5-1.4-1-0.3-9-6.3t-16-12-18.5-11.3q-10.5-5.2-10.7-6.2-0.3-1-6.6-6-6.2-5-9.7-10t-4.5-5-1.2-1q-0.3-1-8.6-6.2-8.2-5.3-21-13-12.7-7.8-19.4-12.3l-6.8-4.5-0.2-0.5q-0.3-0.5-0.6-0.5h-0.2l-0.2-0.5q-0.3-0.5-2.3-3t-3.7-4.7q-1.8-2.3 1.2-3 3-0.8 3-2.8v-2l-1-0.2q-1-0.3-3-1-2-0.8-2-1.8t-2.5-1.5-2.5-1.5z" fill="#7c4b2d" stroke="#7c4b2d"/>
  <path d="m921.5 514.5h7.5l2 0.3 2 0.2v0.2q0 0.3 0.5 0.6l0.5 0.2v0.2q0 0.3 0.5 0.6l0.5 0.2 10.2 2q10.3 2 18.6 6.5 8.2 4.5 8.2 5.5t12 3.2q12 2.3 13 2 1-0.2 1.5 0.6 0.5 0.7 1 0.4l0.5-0.2v72l-2.5-0.2q-2.5-0.3-29.5-7.3t-35-7.5-15 1-23 10.2q-16 8.8-47.8 57.8l-31.7 49-0.3 0.2-0.2 0.3-0.2 0.3-0.3 0.2-0.3 0.2-0.2 0.3 0.2 0.3 0.3 0.2 0.3 0.5 0.2 0.5-1-0.2q-1-0.3-12.8-3.6-11.7-3.2-16.4-4.4l-4.8-1.3 1-0.5 1-0.5 1-0.5q1-0.5 1.8-1.2 0.7-0.8 1.4-5.3 0.8-4.5-0.2-4.7-1-0.3-0.5-2.3t2-6.7l1.5-4.8 2.5-0.2 2.5-0.3 0.2-0.3 0.3-0.2 0.3-0.2 0.2-0.3 0.2-0.3 0.3-0.2 0.3-0.2 0.2-0.3 10.2-5.3q10.3-5.2 13-11 2.8-5.7 6-8.4 3.3-2.8 8.3-8.3t5.5-6.5 1-2.5l0.5-1.5 0.5-1.5 0.5-1.5 0.3-0.2 0.2-0.3 0.2-0.3 0.3-0.2 0.3-1.5 0.2-1.5 9.8-17.5q9.7-17.5 14.7-27t16.5-25.5 16-22 6.2-12q1.8-6 4.8-6.8 3-0.7 10.5-0.7z" fill="#cd8e65" stroke="#cd8e65"/>
  <path d="m795.5 758l2.5 0.5 1 0.5 1 0.5 1.5 0.3 1.5 0.2v0.2q0 0.3 0.5 0.6l0.5 0.2 10.5 3.2q10.5 3.3 11 3.6l0.5 0.2v0.2q0 0.3 1.2 1.6 1.3 1.2-7 1.7l-8.2 0.5-3.5 0.2q-3.5 0.3-5 1-1.5 0.8-1.7 1.8-0.3 1-1.6 1.5-1.2 0.5-1.2 1.5t-2.5 1.8q-2.5 0.7-9 1.2t-11-1l-4.5-1.5h-4l-1.5 0.5-1.5 0.5 0.2 0.3 0.3 0.2 0.3 0.2 0.2 0.3-1 0.5-1 0.5 1 0.5 1 0.5 1 0.3q1 0.2 1 1.2v1h-0.2q-0.3 0 1.2 3.5t1.5 12.5-4.3 15q-4.2 6-6 7-1.7 1-7.4 4.2-5.8 3.3-8.8 6.6-3 3.2-6.5 5.2t-3.5 3-5 2.8q-5 1.7-10.5 2.2t-13-0.5-8.5-3.3q-1-2.2-2.5-2.4-1.5-0.3-2.5-3-1-2.8-2-2.8t-1.8-3q-0.7-3-2-4-1.2-1-1.2-2t-3-1.5-3-1.5-4-2.2q-4-1.3-3.5-2.6 0.5-1.2-0.5-1.4-1-0.3-5-0.8t-10-3-18-2.5h-12l-1 0.3-1 0.2v-2l1-0.2 1-0.3 1-0.5 1-0.5 0.2-0.3 0.3-0.2 0.3-0.2 0.2-0.3 0.2-0.3 0.3-0.2 0.3-0.2 0.2-0.3 0.2-0.3 0.3-0.2 0.3-0.2 0.2-0.3 6.5-3q6.5-3 16.5-4t11-1.5l1-0.5 1-0.3 1-0.2 0.2-1 0.3-1 0.3-0.2 0.2-0.3 0.2-0.3 0.3-0.2 0.3-0.2 0.2-0.3-0.2-0.3q-0.3-0.2-1.3-2.7t-2.5-4.5l-1.5-2v-3l0.3-0.2 0.2-0.3 13.5-0.3q13.5-0.2 14-1.4 0.5-1.3 4.5-3.3t5-5 3.2-6.3q2.3-3.2 5-6 2.8-2.7 11.3-3.7t19-3 18-1.5 12 3 13.5 4.5 11.5 2.5z" fill="#f1af8a" stroke="#f1af8a"/>
  <path d="m811.8 0.5l0.2-0.5h88v0.2q0 0.3 0.2 0.6 0.3 0.2-1 3.4-1.2 3.3-5.4 9.6-4.3 6.2-8.3 14.2t-12.7 22q-8.8 14-13.3 17.8-4.5 3.7-9.5 7.4-5 3.8-7.8 9.8-2.7 6-4.4 7.5-1.8 1.5-2.6 3-0.7 1.5-1.4 5-0.8 3.5 0.2 3.7 1 0.3 0 0.6-1 0.2-1.2 1.2-0.3 1-0.6 5-0.2 4-1.2 4.2-1 0.3-2 2-1 1.8-3 1-2-0.7-5.5-0.2t-4.5-0.5-5 0-5.2 2.3q-1.3 1.2-2.3 5.2t-2 5.5-5.3 5q-4.2 3.5-5.4 8.5-1.3 5-3.3 8.5t-5.3 5.5q-3.2 2-4 4.5-0.7 2.5-3.2 7.5t-4 10.5-4 10.5-4.2 15l-1.8 10h-0.2q-0.3 0-3.3 6l-3 6-0.3 0.2-0.2 0.3-1 0.5-1 0.5-0.2 0.3-0.3 0.2-0.3 0.2-0.2 0.3-0.2 0.3-0.3 0.2-0.3 0.2-0.2 0.3-0.2 0.3-0.3 0.2-0.3 0.2-0.2 0.3-0.2 0.3-0.3 0.2-0.3-0.2-0.2-0.3-1.5-0.3-1.5-0.2v-7q0-7-1-7.2-1-0.3-1.8-8.6-0.7-8.2-2.2-14.2l-1.5-6-0.3-0.2-0.2-0.3-0.2-0.3-0.3-0.2-0.3-0.2-0.2-0.3-0.2-0.3-0.3-0.2-0.5-1-0.5-1v-2l0.3-0.2 0.2-0.3h-3l-0.2 0.3-0.3 0.2-0.5 1-0.5 1 0.5 3q0.5 3 0.5 7.5v4.5l-0.3-0.2-0.2-0.3-0.2-0.3-0.3-0.2-0.3-0.2-0.2-0.3-0.2-0.3-0.3-0.2-0.3-1q-0.2-1-1.2-1t-1.2 1.5q-0.3 1.5-1.8-1t-2.2-1q-0.8 1.5-4.3 3.3-3.5 1.7-5.3 19.4l-1.7 17.8-0.3 0.2-0.2 0.3-0.2 0.3-0.3 0.2-0.3-0.2-0.2-0.3-1.5-0.5-1.5-0.5-0.2-0.3-0.3-0.2h-0.5l0.2-10.5q0.3-10.5 4-25l3.8-14.5v-0.5l0.2-0.3 0.3-0.2 8-19.5q8-19.5 14.7-32.3 6.8-12.7 21-37.4 14.3-24.8 33.3-59.3t19.3-35z" fill="#4a2312" stroke="#4a2312"/>
  <path d="m321.5 224.2l0.5-0.2h1q1 0 0.8 4-0.3 4-1.8 7t-3 5-1.2 2.2q0.2 0.3-0.8 0.8l-1 0.5 1.8-0.3q1.7-0.2 1.2 1.8t2 3.5 2.2 3q-0.2 1.5-3.4 4.5-3.3 3-3.6 4.5l-0.2 1.5h2l0.2 2.5 0.3 2.5 0.3 0.2 0.2 0.3 1 0.5 1 0.5h2l0.2-0.3 0.3-0.2 0.7-2.8q0.8-2.7 1.8-3 1-0.2 1.2 1.3 0.3 1.5 0.6 1.5h0.2v5l0.2 1q0.3 1 1 2.5 0.8 1.5-2.7 1.7-3.5 0.3-4 2-0.5 1.8 0.5 2 1 0.3-1 3-2 2.8-5.5 3.6-3.5 0.7-7.5 0.7t-5 1-2.5-1l-1.5-2-0.2-0.3-0.3-0.2-0.3-0.2-0.2-0.3-0.2-0.3-0.3-0.2v2l-0.5 3.5q-0.5 3.5-1 4t-0.8 2l-0.2 1.5-1.5 0.2-1.5 0.3h-1l-0.2-0.3q-0.3-0.2-2.6-2l-2.2-1.7h-4l0.2 0.3 0.3 0.2 0.3 0.2 0.2 0.3 0.2 0.3 0.3 0.2 0.3 0.2 0.2 0.3 0.2 0.3 0.3 0.2 0.3 0.2 0.2 0.3 1.8 2.3q1.7 2.2 1.7 3.7v1.5l-0.3 0.2-0.2 0.3-1 0.5-1 0.5v0.5l-1 0.2-1 0.3 0.2 0.3 0.3 0.2 0.3 0.2 0.2 0.3-0.2 0.3-0.3 0.2-0.3 0.2-0.2 0.3h-3l0.2-0.3 0.3-0.2 0.3-0.2 0.2-0.3-0.2-0.3-0.3-0.2-0.3-0.2-0.2-0.3-2.5-0.5q-2.5-0.5-8.3-6.8-5.7-6.2-6-5.2-0.2 1-1 0.5-0.7-0.5-2-0.7-1.2-0.3-4.2 1.4l-3 1.8-0.5-0.2q-0.5-0.3-2-2.6-1.5-2.2-3-2-1.5 0.3-5.5 3-4 2.8-3.5 1.6 0.5-1.3-2.5-1.3t-6 2-9 3.5-6.2-0.2q-0.3-1.8-2.6-2.8-2.2-1-2-3 0.3-2-6.2-5.5t-7.8-4.7q-1.2-1.3-2.7-3-1.5-1.8-6.5-3l-5-1.3h-3l1.2 1.3q1.3 1.2 1.6 2.7l0.2 1.5h-2l-1.5-0.2-1.5-0.3-1.5-0.5q-1.5-0.5-3-1.2l-1.5-0.8h1q1 0 0.5-1.2l-0.5-1.3-1-0.5q-1-0.5-3-2l-2-1.5-1-0.3-1-0.2 0.2-1 0.3-1 0.3-1q0.2-1 2.7-1t-0.5-4.8l-3-4.7-0.2-0.3-0.3-0.2-0.3-0.2-0.2-0.3-0.2-0.3-0.3-0.2-0.3-0.2-0.2-0.3-1-0.5-1-0.5-0.2-0.3-0.3-0.2-0.3-1-0.2-1 1 0.2 1 0.3 0.2 0.3 0.3 0.2 0.3 0.2 0.2 0.3 1 0.5 1 0.5 1 0.5 1 0.5 7 4.5q7 4.5 10.5 4.8 3.5 0.2 3.5-0.8t6-2.2q6-1.3 20-1.8t26-2 14.5-2l2.5-0.5 1.5-0.5 1.5-0.5 0.2-0.3 0.3-0.2 0.3-0.2 0.2-0.3 0.2-0.3 0.3-0.2 0.3-0.2 0.2-0.3 0.2-0.3 0.3-0.2 0.3-0.2 0.2-0.3 0.2-0.3 0.3-0.2 0.3-0.5 0.2-0.5 8-1.2q8-1.3 13-1.8t11.5-2.8q6.5-2.2 7-4 0.5-1.7 4.5-3 4-1.2 7.5-5 3.5-3.7 3-5.7t0.5-2.5 1.5-0.8zm-144.3 54l0.3-0.2 0.3 0.2 0.2 0.3h-0.5q-0.5 0-0.3-0.3zm102.8 11.8l-1-0.5 1.5-0.3q1.5-0.2 1.3 0.8l-0.3 1-0.3-0.2-0.2-0.3-1-0.5z" fill="#95644a" stroke="#95644a"/>
  <path d="m826 480.2l1-0.2h1l-0.2 0.5-0.3 0.5v16q0 16-2.7 23.2-2.8 7.3-4.6 11-1.7 3.8-2 9.8l-0.2 6h-3.2q-3.3 0-7.8 7t-6 9-1.5 5.5-1.7 6.7q-1.8 3.3-2.8 3.6-1 0.2-3.5 3-2.5 2.7-5 4.2t-2.7 3.2q-0.3 1.8-1 3.3-0.8 1.5 0.2 1.5t-0.2 7q-1.3 7-4.6 11.5-3.2 4.5-1.4 3.5 1.7-1 1.7 0.5t-0.5 2.5l-0.5 1-0.3 1q-0.2 1-3.2 2.2-3 1.3-6.2 4-3.3 2.8-11 7.6-7.8 4.7-13.8 12.7t-8.2 13.7q-2.3 5.8-5 8.6-2.8 2.7-7.3 7.2t-6.5 8.2q-2 3.8-4 4.3t-2.2 1.5q-0.3 1-2.6 2.5-2.2 1.5-2.2 3.5t-1.5 2.2q-1.5 0.3-3.7 3.6l-2.3 3.2-0.3 0.2-0.2 0.3-0.2 0.3-0.3 0.2-0.3 0.2-0.2 0.3-1.5 0.5q-1.5 0.5-1.5 0.8v0.2h-0.2q-0.3 0-0.6 0.5l-0.2 0.5h-0.2q-0.3 0-0.6 0.5l-0.2 0.5-0.5-0.2q-0.5-0.3-4.5 0.7t-7.5 4.5-7 4-6.7 3.2l-3.3 2.8-0.3 0.2-0.2 0.3-0.2 0.3-0.3 0.2-0.3 0.2-0.2 0.3-0.2 0.3-0.3 0.2-0.3 0.2-0.2 0.3-0.2 0.3-0.3 0.2-0.3 0.2-0.2 0.3-0.2 0.3-0.3 0.2-0.3 0.2-0.2 0.3-0.2 0.3-0.3 0.2-0.3 0.2-0.2 0.3-0.2 0.3-0.3 0.2-0.3 0.2-0.2 0.3h2l1-0.5 1-0.5 1.5-1q1.5-1 4.5-1h3l0.2 0.3 0.3 0.2v5l-0.3 0.2-0.2 0.3-0.2 0.3-0.3 0.2-0.3 0.2-0.2 0.3-0.2 0.3-0.3 0.2-8.5 9.5q-8.5 9.5-8.8 9.7l-0.2 0.3h-1l-0.2-0.3-0.3-0.2-0.3-0.2-0.2-0.3-0.2-0.3q-0.3-0.2-0.8 1.8l-0.5 2h-0.5l-0.2-0.5-0.3-0.5-0.3-0.2-0.2-0.3-0.2-0.3q-0.3-0.2-2.3-5.2t-12.3-5.8q-10.2-0.7-8.7-1.7t-10-1.5l-11.5-0.5h-2l-0.2-0.3-0.3-0.2-0.3-0.2-0.2-0.3 0.2-0.3 0.3-0.2 0.3-0.2 0.2-0.3 0.2-0.3 0.3-0.2 0.3-0.2 0.2-0.3v-0.5l0.5-0.2 0.5-0.3 1.5-0.5 1.5-0.5 15.5-4.5q15.5-4.5 25-10t11.7-6.8q2.3-1.2 12-13 9.8-11.7 20-20 10.3-8.2 21.3-19.2t16.5-20 7.5-24 7.7-29.2q5.8-14.3 16.8-32.8t20.8-34.2q9.7-15.8 18-24 8.2-8.3 19.2-13.8t12-5.8z" fill="#633421" stroke="#633421"/>
  <path d="m511 148l1 0.5 0.5 0.3 0.5 0.2 0.5 0.2q0.5 0.3 1.5 0.8l1 0.5 11.2 5.3q11.3 5.2 18 7 6.8 1.7 6 2.4-0.7 0.8 3.3 3.8t4.7 4.2q0.8 1.3 1.8 1.8l1 0.5 1 0.5 1 0.5 1.5 0.5 1.5 0.5 0.2 0.3 0.3 0.2 0.3 0.2 0.2 0.3h-12.5q-7.5 0-8 0.5t-11 0.5h-10.5l-0.2 0.3-0.3 0.2v2l0.3 0.2 0.2 0.3 0.2 0.3 0.3 0.2 0.3 0.2 0.2 0.3 0.2 0.3 0.3 0.2 0.3 0.2 0.2 0.3 0.2 0.3 0.3 0.2 0.3 0.2 0.2 0.3 0.2 0.3 0.3 0.2 0.3 0.2 0.2 0.3 10 9.3q10 9.2 12 13.2t6.5 6.8q4.5 2.7 11.5 4.2t8 1 2.5 0 6.7 4.2q5.3 3.8 7.6 7.8 2.2 4 3.2 4t1.2 1l0.3 1 0.3 0.2 0.2 0.3 0.2 0.3 0.3 0.2 0.3 0.2 0.2 0.3 0.2 0.3 0.3 0.2 0.3-0.2 0.2-0.3 1-0.3 1-0.2v-2.5q0-2.5 1-2.5t1-1 5.8 0q5.7 1 10 6.8 4.2 5.7 5.2 6 1 0.2 1 1.2t3.8 4q3.7 3 7 5.8 3.2 2.7 9.7 6.2t7.5 4l1 0.5 1 0.5 1 0.5 1 0.5 1 0.5 1 0.3 1 0.2v0.2q0 0.3 0.5 0.6l0.5 0.2 16.5 17.2q16.5 17.3 17.5 17.6 1 0.2 2.8 6.7 1.7 6.5 8 13.7 6.2 7.3 11 11.6 4.7 4.2 5 4.7l0.2 0.5v0.2q0 0.3 0.5 0.6l0.5 0.2v0.2q0 0.3 0.5 0.6l0.5 0.2v0.2q0 0.3 0.5 0.6l0.5 0.2v0.2q0 0.3 0.5 0.6l0.5 0.2v0.2q0 0.3 0.5 0.6l0.5 0.2v0.2q0 0.3 0.5 0.6l0.5 0.2v0.2q0 0.3 0.2 0.6l0.3 0.2 0.3 0.2 0.2 0.3 0.2 0.3 0.3 0.2 0.3 0.2 0.2 0.3 0.2 0.3 0.3 0.2 0.3 0.2 0.2 0.3 0.2 0.3 0.3 0.2 0.3 0.2 0.2 0.3 0.2 0.3 0.3 0.2 0.3 0.2 0.2 0.3 0.2 0.3 0.3 0.2 0.3 1 0.2 1-1-0.2-1-0.3-1.5-0.5-1.5-0.5-1-0.5-1-0.5-1-0.5-1-0.5h-2l0.2 0.3 0.3 0.2 1.7 1.5q1.8 1.5 1.6 2.5l-0.3 1-0.3 0.2-0.2 0.3-0.2 0.3-0.3 0.2-0.3-0.2-0.2-0.3h-3v0.5l-0.5-0.2-0.5-0.3-0.2-0.3-0.3-0.2-0.5-1-0.5-1-0.5-1q-0.5-1-3-6t-11.8-12.8q-9.2-7.7-17.4-17.4-8.3-9.8-21.3-23.3t-22.7-19.7q-9.8-6.3-17.3-7.3t-17.5-3-23-7.5-46.5-25.5-41.3-27.7q-7.7-7.8-14.2-20.8t-10.2-13h-3.8v-0.5l0.2-0.3 0.3-0.2 0.3-0.2 0.2-0.3 0.2-0.3 0.3-0.2v-1l-0.3-0.2-0.2-0.3-1.5-0.5-1.5-0.5 0.2-0.3 0.3-0.2 0.3-0.5 0.2-0.5h0.5l0.3-0.5 0.2-0.5h0.5l0.3-0.2 0.2-0.3 13-5q13-5 17-9t5.5-4 2.5 0.5z" fill="#915b3e" stroke="#915b3e"/>
  <path d="m732.8 182.8l0.2-0.3h3l-0.2 0.3-0.3 0.2v2l0.5 1 0.5 1 0.3 0.2 0.2 0.3 0.2 0.3 0.3 0.2 0.3 0.2 0.2 0.3 0.2 0.3 0.3 0.2 1.5 6q1.5 6 2.2 14.2 0.8 8.3 1.8 8.6 1 0.2 1 7.2v7l1.5 0.2 1.5 0.3 0.2 0.3 0.3 0.2 0.3-0.2 0.2-0.3 0.2-0.3 0.3-0.2 0.3-0.2 0.2-0.3 0.2-0.3 0.3-0.2 0.3-0.2 0.2-0.3 0.2-0.3 0.3-0.2 0.3-0.2 0.2-0.3 1-0.5 1-0.5 0.2-0.3 0.3-0.2 3-6q3-6 3.3-6h0.2l-0.8 6q-0.7 6-1.2 8.5l-0.5 2.5-0.5 1-0.5 1v2l0.3 0.5 0.2 0.5 0.2 10q0.3 10 3.8 16t4 10.5 0.8 3.5q0.2-1 3.7 0.5t4 2.7q0.5 1.3 1.5 1.6 1 0.2 1.8 5.7 0.7 5.5 0.7 8v2.5l0.5 1 0.5 1 1.3-2q1.2-2 2.2-2t0.5 3.5 4.5 3.5 7.5 3.2q2.5 3.3 3.5 3.6 1 0.2 1.5-0.6 0.5-0.7 5.3 7 4.7 7.8 6.2 13.3t1.5 11-0.3 9.5q-0.2 4 0.8 4t0.5 2.2q-0.5 2.3-0.3 6.6 0.3 4.2 1.8 7.2t3.8 6.5q2.2 3.5 3.4 4 1.3 0.5 2.8 3.5t1.2 7q-0.2 4 0.8 4t2.5 5.2q1.5 5.3 2.7 8 1.3 2.8 1.6 5.3 0.2 2.5 1.2 2.5t1.5 1.2q0.5 1.3 3 1.3t5.5-0.5l3-0.5 1.5-0.5 1.5-0.5 1-0.5 1-0.5h2l-0.2 0.3-0.3 0.2-0.3 0.2-0.2 0.3-0.2 0.3-0.3 0.2-0.3 0.2-0.2 0.3-1 0.5-1 0.5-0.2 0.3-0.3 0.2-0.3 0.2-0.2 0.3-1 0.5q-1 0.5-2.8 2.2-1.7 1.8-2.4 1.6l-0.8-0.3-0.2 0.3-0.3 0.2v2l1.5 3q1.5 3 1.8 3.2 0.2 0.3 2.7 0.8l2.5 0.5 0.2 0.3 0.3 0.2 0.3 0.2 0.2 0.3-1.8 1.3q-1.7 1.2-3.7 6.2t-1.3 11.8q0.8 6.7-1 9-1.7 2.2-1.4 3.4 0.2 1.3 0.4 1.6l0.3 0.2 0.3 0.2 0.2 0.3 0.2 0.3 0.3 0.2 0.3 0.2 0.2 0.3 0.2 0.3 0.3 0.2 0.3 0.2 0.2 0.3 0.2 0.3 0.3 0.2 0.3 0.2 0.2 0.3 1 0.5 1 0.5 0.2 0.3 0.3 0.2 0.3 0.2 0.2 0.3 0.5 0.3 0.5 0.2-0.8 1q-0.7 1-1.2 3l-0.5 2-0.3 1.5-0.2 1.5h-2l-0.2 1.5-0.3 1.5-0.5-1-0.5-1-0.5 1-0.5 1-0.5-1.5q-0.5-1.5-2-4l-1.5-2.5-0.3-0.2-0.2-0.3-0.2-0.3-0.3-0.2-0.5-1-0.5-1-0.3 0.2-0.2 0.3-0.2 0.3-0.3 0.2-0.3 0.2-0.2 0.3-0.2 0.3-0.3 0.2-0.5 4-0.5 4-0.3 0.2-0.2 0.3-1 0.3-1 0.2-0.2-1-0.3-1-0.5-1-0.5-1-0.3-0.2-0.2-0.3-0.2-0.3-0.3-0.2-0.3-0.2-0.2-0.3-0.2-0.3-0.3-0.2-0.3-0.2-0.2-0.3-0.2-0.3-0.3-0.2h-1.5l-0.2-3.5q-0.3-3.5-3.8-12t-6-22.5-6-28.5l-3.5-14.5-0.3-1.5-0.2-1.5-0.2-0.5q-0.3-0.5-0.6-0.5h-0.2l-0.2-1.5q-0.3-1.5-4.8-10.5t-8.2-12.8q-3.8-3.7-13.3-10.4l-9.5-6.8-0.2-0.5-0.3-0.5-0.3-0.2-0.2-0.3-0.2-0.3-0.3-0.2-0.3-0.2-0.2-0.3-0.2-0.3-0.3-0.2-0.3-0.2q-0.2-0.3-5.2-6.3t-22.8-36.7q-17.7-30.8-21.7-35.8t-5-10.5-3.3-15.5l-2.2-10h0.5l0.3 0.2 0.2 0.3 1.5 0.5 1.5 0.5 0.2 0.3 0.3 0.2 0.3-0.2 0.2-0.3 0.2-0.3 0.3-0.2 0.5-9q0.5-9 2-20l1.5-11 1.3 1.2q1.2 1.3 3.2 0.6 2-0.8 2.8-2.3 0.7-1.5 2.2 1t1.8 1q0.2-1.5 1.2-1.5t1.2 1l0.3 1 0.3 0.2 0.2 0.3 0.2 0.3 0.3 0.2 0.3 0.2 0.2 0.3 0.2 0.3 0.3 0.2v-4.5q0-4.5-0.5-7.5l-0.5-3 0.5-1 0.5-1 0.3-0.2z" fill="#5c2b19" stroke="#5c2b19"/>
  <path d="m98.2 514.2l0.3-0.2 0.3 0.2 0.2 0.3 0.2 0.3 0.3 0.2 0.5 1 0.5 1 0.3 0.2 0.2 0.3 0.2 0.3q0.3 0.2 0.6-0.8l0.2-1 1-0.2 1-0.3 0.2-0.3 0.3-0.2 0.3-0.2 0.2-0.3 0.2-0.3 0.3-0.2 1.5 4q1.5 4 2.2 8.8 0.8 4.7 1.6 4 0.7-0.8 2.7 4.2t3.3 13.8q1.2 8.7 1.4 9 0.3 0.2 0.8 1.2l0.5 1 0.3 3.5 0.2 3.5-1.2 2q-1.3 2-2 16.5-0.8 14.5-1.8 14.5t-2 2.8q-1 2.7-1.5 6.7t2.5 6.7q3 2.8 3.5 9.8t-0.5 7.2q-1 0.3 0.5 0.6 1.5 0.2 1 1.4-0.5 1.3-2 1.6-1.5 0.2-2.3 6.2-0.7 6 0.8 12t2.5 7 1.3 3q0.2 2 1.2 2t0.5 1.2q-0.5 1.3 0.5 1.6 1 0.2 0.8 1.7-0.3 1.5 0.4 2.7 0.8 1.3 1.8 3.6 1 2.2 2 2.2h1l0.2 1.5 0.3 1.5 0.3 0.2 0.2 0.3 0.2 0.3 0.3 0.2 0.3 0.5 0.2 0.5v3h-1q-1 0-1.2 2-0.3 2-0.8 0.5t-1.2 0.3q-0.8 1.7-1.8 2-1 0.2-1 1.2t-1.8 0.5q-1.7-0.5-2.4 0.3-0.8 0.7-1.8 0.2l-1-0.5-0.2-0.3-0.3-0.2-0.3-0.2-0.2-0.3-0.2-0.3-0.3-0.2-0.5 1-0.5 1h-0.5l-0.5-0.2q-0.5-0.3-16.7-33-16.3-32.8-16.8-38.8t3-23.5 3.5-41-2.3-24.5l-2.2-1 2.5-0.2q2.5-0.3 3.3-7.6l0.7-7.2h0.5l0.2 4.5 0.3 4.5 0.5 2 0.5 2 0.3-0.2 0.2-0.3 0.2-0.3 0.3-0.2 0.5-1.5 0.5-1.5 0.5-1.5q0.5-1.5 3.5-6l3-4.5 0.3-0.2 0.2-0.3 0.2-0.3z" fill="#ecab8a" stroke="#ecab8a"/>
  <path d="m269.5 649.8l0.5 0.2v0.2q0 0.3 0.5 0.6l0.5 0.2v0.2q0 0.3 0.5 0.6l0.5 0.2h0.5l12 12q12 12 15 17t3.3 6.8q0.2 1.7 1.7 4 1.5 2.2 7.3 7.2 5.7 5 6 5.5l0.2 0.5 2.2 3.5q2.3 3.5 2.6 3.7l0.2 0.3 3.8 4.7q3.7 4.8 4.2 5.8l0.5 1 0.3 0.2 0.2 0.3 0.2 0.3 0.3 0.2 0.3 0.2 0.2 0.3 0.2 0.3 0.3 0.2v2l-0.3-0.2-0.2-0.3-0.2-0.3q-0.3-0.2-1.6-1.4l-1.2-1.3-0.2-0.3-0.3-0.2v2l0.5 1 0.5 1 0.3 0.2 0.2 0.3 3 3q3 3 5.2 4.3 2.3 1.2 4.6 4 2.2 2.7 5.4 7.4 3.3 4.8 3.6 6.6 0.2 1.7 2.2 3.2t1.2 2.2q-0.7 0.8 0.6 1.3 1.2 0.5 2.2 2.7 1 2.3 2.2 3 1.3 0.8 4.3 7.3t3.3 7.7q0.2 1.3-2 3-2.3 1.8-3.6 3.6-1.2 1.7-1.4 2l-0.3 0.2-0.3 0.2-0.2 0.3-0.2 0.3-0.3 0.2-0.3 1.5-0.2 1.5 1 0.2 1 0.3 7.2 3.3q7.3 3.2 8.3 6.7t-0.7 5q-1.8 1.5-2 5.5-0.3 4-0.8 4.5t-0.8 0.7l-0.2 0.3-0.2 0.3-0.3 0.2-0.3 0.2-0.2 0.3-0.2 0.3-0.3 0.2-0.3 0.2-0.2 0.3-0.2 0.3-0.3 0.2-0.3 0.5-0.2 0.5v1.2q0 1.3-2.8 3.6-2.7 2.2-1.7 5.2t1.3 3.2l0.2 0.3 0.2 0.3 0.3 0.2 0.3 0.2 0.2 0.3 0.2 0.3 0.3 0.2 0.3 0.2 0.2 0.3 0.2 0.3 0.3 0.2 0.3 0.2 0.2 0.3h-4l-1-0.5-1-0.5-0.2-0.3-0.3-0.2-0.3-0.2-0.2-0.3-0.2-0.3-0.3-0.2-0.3-0.2-0.2-0.3-1.5-0.5q-1.5-0.5-3-2.2-1.5-1.8-3.5-2.3t-5.2-4.5q-3.3-4-13.8-12.5t-13.2-10q-2.8-1.5-2.3-2.7 0.5-1.3-1.5-3.3t-5-5.3q-3-3.2-4-3.2t-2.2-3.5q-1.3-3.5-4-4-2.8-0.5-3-2l-0.3-1.5-0.3-0.2-0.2-0.3-0.2-0.3-0.3-0.2-0.3-0.2-0.2-0.3-1.5-0.5-1.5-0.5-0.2-0.3-0.3-0.2-0.3 0.2-0.2 0.3-0.2 0.3-0.3 0.2-0.3 0.2-0.2 0.3-0.5 0.3-0.5 0.2 0.2-1.5q0.3-1.5 0-13-0.2-11.5 0.8-11.5t1-1 1.8-2q1.7-1 1.2-3t-6.8-8.8q-6.2-6.7-13-17-6.7-10.2-19.2-32.7t-19-30.5l-6.5-8-0.3-0.2-0.2-0.3-0.2-0.3-0.3-0.2-0.3-0.2-0.2-0.3v-0.5l-0.2-0.5-0.3-0.5h-0.5l0.2-0.5q0.3-0.5 0.8-1l0.5-0.5 0.3-0.2 0.2-0.3 0.2-0.3 0.3-0.2 0.3-0.2 0.2-0.3v-0.5l6-0.8q6-0.7 14 1.3t12 4 4.5 2.3z" fill="#f8bc93" stroke="#f8bc93"/>
  <path d="m167.2 531l-4.2-13h1q1 0 2.2 2 1.3 2 1.8 3l0.5 1 0.3-0.2q0.2-0.3 0.7-0.3t1.5-0.7l1-0.8 5.2 15.5q5.3 15.5 9.3 36.5t4.5 23l0.5 2 0.5 1.5 0.5 1.5 0.3 0.5 0.2 0.5 5 10.8q5 10.7 9 14.7t11.5 9.5 8.5 6l1 0.5 0.2 0.3 0.3 0.2 0.5 1q0.5 1 0.8 1h0.2v0.2q0 0.3 0.5 0.6l0.5 0.2v0.5l0.2 0.3 0.3 0.2 0.3 0.2 0.2 0.3 0.2 0.3 0.3 0.2 6.5 8q6.5 8 19 30.5t19.2 32.7q6.8 10.3 13 17 6.3 6.8 6.8 8.8t-1.2 3q-1.8 1-1.8 2t-1 1-0.8 11.5q0.3 11.5 0 13l-0.2 1.5-2.8 13.5q-2.7 13.5-3.7 16.5t-1.3 4l-0.2 1-4.2 11.5q-4.3 11.5-4.6 11.5h-0.2v-1.5q0-1.5-2-0.7-2 0.7-6-0.6-4-1.2-4-0.2t-1.5 1.2q-1.5 0.3-4 2.8l-2.5 2.5-0.2 0.3-0.3 0.2-0.3 0.2-0.2 0.3-0.2 0.3-0.3 0.2-0.3 0.2-0.2 0.3-1 0.5-1 0.5-0.2 0.3-0.3 0.2-0.3 0.2-0.2 0.3-0.2 0.3-0.3 0.2-0.3 0.2-0.2 0.3h-1v-0.5l0.2-0.5 0.3-0.5 0.3-0.2 0.2-0.3 0.2-0.3 0.3-0.2 0.5-1 0.5-1 0.3-0.2 0.2-0.3 0.2-0.3 0.3-0.2 0.3-0.2 0.2-0.3 0.2-0.3 0.3-0.2 0.3-0.2q0.2-0.3 0.4-0.6 0.3-0.2 0.8-7.7t-1-17.5-2-9-1-3-2.2-2.5q-1.8 1.5-2.3-3.3-0.5-4.7-1.5-7.4l-1-2.8 0.2-2q0.3-2 2.8-13t-0.5-33-4.7-25.2q-1.8-3.3-3.3-2.8t-3.5-2.2q-2-2.8-4.5-3.6-2.5-0.7-4.7-5.4-2.3-4.8-3.6-5.3-1.2-0.5-1.2-5t-1-4.5-1-2-2.5-1.2q-2.5 0.7-4-1.3t-4.5-1.7q-3 0.2-3.2-0.8-0.3-1-2-2-1.8-1-2.6-8-0.7-7-2.2-17t-7-19.5-9.2-13l-3.8-3.5-0.2-0.5q-0.3-0.5-1.3-7.5t-4-24.5-2-21 1.5-9.5-3.8-19z" fill="#894e32" stroke="#894e32"/>
  <path d="m35.5 139.8l0.5 0.2v0.2q0 0.3 0.5 0.6l0.5 0.2v0.2q0 0.3 0.5 0.6l0.5 0.2v0.2q0 0.3 0.5 0.6l0.5 0.2v0.2q0 0.3 0.5 0.6l0.5 0.2v0.2q0 0.3 0.5 0.6l0.5 0.2 0.2 0.5q0.3 0.5 0.6 0.7l0.2 0.3 9 9.5q9 9.5 10 9.8 1 0.2 4.5 4 3.5 3.7 16.7 17 13.3 13.2 22 22.4 8.8 9.3 10.6 9.6 1.7 0.2 7 4.4 5.2 4.3 13 9 7.7 4.8 16.4 12.6 8.8 7.7 9.3 8l0.5 0.2v0.2q0 0.3 0.5 0.6l0.5 0.2v0.2q0 0.3 0.5 0.6l0.5 0.2 0.2 0.5q0.3 0.5 0.6 0.7l0.2 0.3 0.2 0.3 0.3 0.2 0.3 0.2 0.2 0.3 0.2 0.3 0.3 0.2 0.3 0.2 0.2 0.3 3 4.7q3 4.8 0.5 4.8t-2.7 1l-0.3 1-0.3 1-0.2 1 1 0.2 1 0.3 2 1.5q2 1.5 3 2l1 0.5 1.5 0.5 1.5 0.5 0.2 0.3 0.3 0.2 0.3 0.2 0.2 0.3-2.5 0.3-2.5 0.2-1.5-0.2-1.5-0.3-1-0.5q-1-0.5-15-6.5t-29.8-15.3q-15.7-9.2-38-21.4-22.2-12.3-54.2-30l-32-17.8v-72h1.2q1.3 0 4.8 2t9.8 7.2q6.2 5.3 12.7 10.3t7 5.3z" fill="#8b5c40" stroke="#8b5c40"/>
  <path d="m790 670l1-0.5h2l0.2 0.3 0.3 0.2v1l-0.3 0.2-0.2 0.3 0.2 0.3 0.3 0.2v2l-0.3 0.2q-0.2 0.3-1.7 1.3l-1.5 1-0.2 0.3-0.3 0.2-0.3 0.2-0.2 0.3-0.2 0.3-0.3 0.2-0.3 0.2-0.2 0.3 0.5 0.3 0.5 0.2-1.5 4.8q-1.5 4.7-2 6.7t0.5 2.3q1 0.2 0.2 4.7-0.7 4.5-1.4 5.3-0.8 0.7-1.8 1.2l-1 0.5-1 0.5-1 0.5 4.8 1.3q4.7 1.2 16.4 4.4 11.8 3.3 12.8 3.6l1 0.2h0.5l0.3 0.2 0.2 0.3 4.5 1.5q4.5 1.5 4.5 1.8v0.2h-1q-1 0-0.5 1.2 0.5 1.3 1.5 1.6 1 0.2 1 1.2t2 1.8q2 0.7 3 1l1 0.2v2q0 2-3 2.8-3 0.7-1.2 3 1.7 2.2 4.4 4.7 2.8 2.5 2.8 3.5v1l-2.5-0.2q-2.5-0.3-5.7 0.4-3.3 0.8-7 1.3-3.8 0.5-3.8 1.5t-4 1.2q-4 0.3-8.5 1.8l-4.5 1.5 0.2 0.3 0.3 0.2 0.3 0.2 0.2 0.3-1 0.3-1 0.2 0.2 1.5 0.3 1.5 0.3 0.2 0.2 0.3 0.2 0.3 0.3 0.2 0.3 0.2 0.2 0.3 0.2 0.3 0.3 0.2 0.3 0.2 0.2 0.3 0.2 0.3 0.3 0.2 0.3 0.2 0.2 0.3 1 0.3q1 0.2 1 1.2v1l-1-0.2q-1-0.3-2-0.8l-1-0.5-1-0.5-1-0.5-2.5-0.5q-2.5-0.5-11.5-2.5t-13.5-4.5-12-3-18 1.5-19 3-11.3 3.7q-2.7 2.8-5 6-2.2 3.3-3.2 6.3t-5 5-4.5 3.3q-0.5 1.2-14 1.4l-13.5 0.3-0.2 0.3-0.3 0.2v3l1.5 2q1.5 2 2.5 4.5t1.3 2.7l0.2 0.3-0.2 0.3-0.3 0.2-0.3 0.2-0.2 0.3-0.2 0.3-0.3 0.2-0.3 1-0.2 1-1 0.2-1 0.3-1 0.5q-1 0.5-11 1.5t-16.5 4l-6.5 3-0.2 0.3-0.3 0.2-0.3 0.2-0.2 0.3-0.2 0.3-0.3 0.2-0.3 0.2-0.2 0.3-0.2 0.3-0.3 0.2-0.3 0.2-0.2 0.3-1 0.5-1 0.5-0.2 0.3q-0.3 0.2-0.6 0.7l-0.2 0.5h-0.2q-0.3 0-0.6 0.5l-0.2 0.5-1 0.2q-1 0.3-6.2 3.6-5.3 3.2-12.6 4.4-7.2 1.3-18.7 3.3t-26 2.3l-14.5 0.2-3.5-0.2-3.5-0.3 1-0.5 1-0.5-0.2-0.3-0.3-0.2-0.3-0.2-0.2-0.3 0.2-0.3 0.3-0.2 0.3-0.2 0.2-0.3v-0.5l0.5-0.2 0.5-0.3v-0.5l0.5-0.2 0.5-0.3 1.5-0.5 1.5-0.5 24.5-5q24.5-5 26.5-5.5l2-0.5 2-0.5 2-0.5 1.5-0.5 1.5-0.5 0.2-0.3 0.3-0.2 0.3-0.2 0.2-0.3-3-0.5-3-0.5-5-0.5q-5-0.5-13 0t-35 0.5h-27v-0.5l4-0.2 4-0.3 2.5-0.3q2.5-0.2 3-1.4 0.5-1.3 4.5-2.8t15.2-3.8q11.3-2.2 20.6-5.4 9.2-3.3 14.2-3.6 5-0.2 5.8-3.2 0.7-3 2-4.2 1.2-1.3 15.7-4.8t22-4 10.5-1l3-0.5 0.2-0.3 0.3-0.2v-1q0-1-1.3-4l-1.2-3h0.5l0.5-2q0.5-2 0.8-1.8l0.2 0.3 0.2 0.3 0.3 0.2 0.3 0.2 0.2 0.3h1l0.2-0.3q0.3-0.2 8.8-9.7l8.5-9.5 0.3-0.2 0.2-0.3 0.2-0.3 0.3-0.2 0.3-0.2 0.2-0.3 0.2-0.3 0.3-0.2v-5l-0.3-0.2-0.2-0.3h-3q-3 0-4.5 1l-1.5 1-1 0.5-1 0.5h-2l0.2-0.3 0.3-0.2 0.3-0.2 0.2-0.3 0.2-0.3 0.3-0.2 0.3-0.2 0.2-0.3 0.2-0.3 0.3-0.2 0.3-0.2 0.2-0.3 0.2-0.3 0.3-0.2 0.3-0.2 0.2-0.3 0.2-0.3 0.3-0.2 0.3-0.2 0.2-0.3 0.2-0.3 0.3-0.2 0.3-0.2 0.2-0.3 0.2-0.3 0.3-0.2 3.3-2.8q3.2-2.7 6.7-3.2t7-4 7.5-4.5 4.5-0.7l0.5 0.2 0.5-0.2q0.5-0.3 0.5-0.6v-0.2l0.5-0.2q0.5-0.3 0.5-0.6v-0.2l0.5 0.2q0.5 0.3 2 0.3h1.5l0.2-0.3 0.3-0.2 0.3 0.2 0.2 0.3 1.2-0.3q1.3-0.2 3-3.4 1.8-3.3 2.8-3.3h1l1.5 0.5 1.5 0.5 0.2 0.3 0.3 0.2 0.3 0.2 0.2 0.3 0.2 0.3 0.3 0.2 0.3 0.2 0.2 0.3 0.2 0.3q0.3 0.2 0.6 0.4l0.2 0.3 0.2 0.3 0.3 0.2 0.5 1.5q0.5 1.5 0.5 5.5t0 4.5 0.3 0.7l0.2 0.3 1 0.3q1 0.2 1 1.2v1l2-0.2 2-0.3 0.2-0.3 0.3-0.2 0.3-0.2 0.2-0.3 1-0.5q1-0.5 5-1.8 4-1.2 6-4 2-2.7 6-5.7t21-17 20-16 4.5-2.5l1.5-0.5 0.2-0.3 0.3-0.2 0.3-0.2 0.2-0.3 1-0.5 1-0.5 1-0.5z" fill="#ae6949" stroke="#ae6949"/>
  <path d="m848.8 234l0.2 1h2v-3l34.8 68q34.7 68 34.7 78.5t-3.5 29-3.5 24 0.3 20l0.2 14.5 1.5 0.2 1.5 0.3v0.5h-3l-0.5 0.2-0.5 0.3v0.5h-2l-0.2-1-0.3-1-0.5-1.5-0.5-1.5-0.3 0.2-0.2 0.3-0.2 0.3-0.3 0.2-0.3 0.2q-0.2 0.3-1 1l-0.7 0.8v-3q0-3-0.5-9.5l-0.5-6.5-0.3-1-0.2-1-1 0.2-1 0.3-0.2 0.3-0.3 0.2-0.3 0.2q-0.2 0.3-0.7 1.6-0.5 1.2-2 1.2t-1.7 1q-0.3 1-1.3-1t-2.7-3q-1.8-1-2 0l-0.3 1v-3q0-3-0.5-11l-0.5-8-0.5 2q-0.5 2-2.8 3-2.2 1-2.2-0.5t-2.2-2q-2.3-0.5-7.6 0l-5.2 0.5-0.2 4.5-0.3 4.5h-0.5l-0.2-9.5q-0.3-9.5-0.6-9.7-0.2-0.3-5.4-24-5.3-23.8-5.8-28.3t-1-28.5l-0.5-24 0.3-0.2 0.2-0.3 1-0.3 1-0.2 1.5 2.2q1.5 2.3 1.7 2l0.3-0.2 0.3-2.2q0.2-2.3 1.2-2.3t1.2 0.3l0.3 0.2v-2.5q0-2.5-0.5-3.5t-1.2-6q-0.8-5-1.8-5t-1.8-1.5q-0.7-1.5-0.2-6.5t-1.2-6.2q-1.8-1.3-3.8-5.6-2-4.2-3-4.4-1-0.3-2.5-4.6-1.5-4.2-2.5-4.4-1-0.3-4-5l-3-4.8-0.2-2.5-0.3-2.5-0.5-1q-0.5-1-0.5-1.5t-1-2-0.7-3.5q0.2-2 1-2.5l0.7-0.5-0.3-1.5-0.2-1.5 3 0.2q3 0.3 5 1.3t2.8-0.3q0.7-1.2 1-0.2z" fill="#9d6141" stroke="#9d6141"/>
  <path d="m353 269l1-0.5 0.2-0.3 0.3-0.2v2l-0.5 1-0.5 1-0.3 0.2-0.2 0.3-1.2 1.7q-1.3 1.8-1.8 2.8l-0.5 1-0.3 1-0.2 1h4l-4.5 2q-4.5 2-13.3 13-8.7 11-21.7 22t-22 20-15 19-8 25-7 27.5-16.3 31.7q-11.2 19.3-22.2 36.8t-18.5 24.5-19.7 13.3q-12.3 6.2-12.6 6.7l-0.2 0.5-1 0.8q-1 0.7-1.5 0.7t-0.7 0.3l-0.3 0.2-0.5-1q-0.5-1-2.2-2.5l-1.8-1.5-0.2-0.5q-0.3-0.5-0.6-0.5h-0.2l-0.2-1q-0.3-1-3.3-7.5t-6.7-10.3l-3.8-3.7-1-0.5-1-0.5-0.2-0.3-0.3-0.2-0.3-0.2-0.2-0.3-0.2-0.3-0.3-0.2-0.3-1-0.2-1 1 0.2 1 0.3 0.2 0.3 0.3 0.2 0.3 0.2 0.2 0.3 0.2 0.3 0.3 0.2 0.3 0.2 0.2 0.3 2.8-0.3q2.7-0.2 4.4-3.4 1.8-3.3 2.6-3 0.7 0.2 0.4 1.2-0.2 1 2.3 1h2.5l0.2-1q0.3-1 5.8-12.5l5.5-11.5 0.5-1 0.5-1 0.5-1.5 0.5-1.5 0.3-0.2 0.2-0.3 1-0.3 1-0.2v11l1.5-0.2 1.5-0.3 0.2-0.3 0.3-0.2 0.3-0.2 0.2-0.3 1-0.3 1-0.2 0.2-1 0.3-1 0.3-0.2q0.2-0.3 7-7 6.7-6.8 9.4-9.6 2.8-2.7 4.3-6 1.5-3.2 2.7-3.7 1.3-0.5 1.8-5t2.2-7.5q1.8-3 0.8-3t-0.8-1q0.3-1 4-4.5 3.8-3.5 4-5.5 0.3-2 2-4.2 1.8-2.3 1-6-0.7-3.8-2-5-1.2-1.3 1-5 2.3-3.8 2.8-7.3t5.8-8.3q5.2-4.7 6.7-6.4 1.5-1.8 7.5-6.3l6-4.5 0.2-0.5q0.3-0.5 5.3-8t6.5-13 3-8 3.8-4q2.2-1.5 5.4-5.5 3.3-4 4.6-7.5 1.2-3.5 3.7-3.5t2-2l-0.5-2v-0.5l1-0.5 1-0.5 0.2-0.3 0.3-0.2v-1.5q0-1.5-1.7-3.7l-1.8-2.3-0.2-0.3-0.3-0.2-0.3-0.2-0.2-0.3-0.2-0.3-0.3-0.2-0.3-0.2-0.2-0.3-0.2-0.3-0.3-0.2-0.3-0.2-0.2-0.3-0.2-0.3-0.3-0.2-0.3-0.2-0.2-0.3-0.2-0.3-0.3-0.2-0.3-0.2-0.2-0.3-1-0.5-1-0.5h3l1 0.3 1 0.2v2l1.5 0.2 1.5 0.3 2.2 1.7q2.3 1.8 2.6 2l0.2 0.3h1l1.5-0.3 1.5-0.2 0.2-1.5q0.3-1.5 0.8-2t1-4l0.5-3.5v-2l0.3 0.2 0.2 0.3 0.2 0.3 0.3 0.2 0.3 0.2 0.2 0.3 1.5 2q1.5 2 2.5 1t5-1 7.5-0.7q3.5-0.8 5.5-3.6 2-2.7 1-3-1-0.2-0.5-2 0.5-1.7 4-2 3.5-0.2 2.7-1.7-0.7-1.5-1-2.5l-0.2-1h0.5l0.3 0.2 0.2 0.3 0.2 0.3 0.3 0.2 0.3 0.2 0.2 0.3 0.2 0.3 0.3 0.2 0.3 0.2 0.2 0.3 4-1q4-1 5-1.5t2-0.8l1-0.2v2q0 2 3.5 1.2 3.5-0.7 3.7-1l0.3-0.2 0.3-0.2 0.2-0.3 0.2-0.3 0.3-0.2 0.3-0.2 0.2-0.3 1-0.5z" fill="#401507" stroke="#401507"/>
  <path d="m88 484.5h2l0.2 0.3 0.3 0.2 0.3 1.5 0.2 1.5-1.8 12q-1.7 12-2 15l-0.2 3h-0.5l-0.7 7.2q-0.8 7.3-3.3 7.6l-2.5 0.2-32.5 0.2q-32.5 0.3-39.5 0.8l-7 0.5-0.5 0.3-0.5 0.2v-73h0.5l1.7-2.8q1.8-2.7 11.3-0.2t15 4.5 7.5 4.3q2 2.2 3 2.2t2 2.5 2 2.5 1 1 1.5 1.8q1.5 0.7 6 0.7t12 3.5 14 3.5 7.5-0.5 3-0.5z" fill="#3c1808" stroke="#3c1808"/>
  <path d="m268.5 645.5v-1.5l0.3 0.2 0.2 0.3 0.2 0.3 0.3 0.2 0.3 0.2 0.2 0.3 2.2 1.3q2.3 1.2 2.6 1.4l0.2 0.3h2l0.2-0.3 0.3-0.2 0.3-1.5 0.2-1.5 4.5 6.8q4.5 6.7 13.3 13.4 8.7 6.8 20 20 11.2 13.3 21.2 23.3t18 15 12 6 16 2.5 25 6.5 32.8 16.7q19.7 11.8 35.4 21.6 15.8 9.7 23.6 17.4 7.7 7.8 14.4 20 6.8 12.3 14.8 9.8t9-3l1-0.5 1-0.3 1-0.2v2l-1 0.2-1 0.3 0.2 0.3 0.3 0.2 0.3 0.2 0.2 0.3-1 0.5-1 0.5 3.5 0.3 3.5 0.2v0.5l-1 0.5-1 0.5-2.5 0.5q-2.5 0.5-11 4t-18.5 7.5-13.8 8.3q-3.7 4.2-7.4 3.7l-3.8-0.5-0.2-0.5q-0.3-0.5-0.6-0.5h-0.2l-0.5-0.2q-0.5-0.3-9.5-4.3t-14.5-8-6-2.7q-0.5 1.2-4.5 0.4-4-0.7-10-3l-6-2.2-0.2-0.5q-0.3-0.5-0.6-0.5h-0.2l-0.2-0.5q-0.3-0.5-0.6-0.5h-0.2l-0.2-0.5-0.3-0.5-0.3-0.2-0.2-0.3-0.2-0.3-0.3-0.2-0.3-0.2-0.2-0.3-0.2-0.3-0.3-0.2-0.3-1-0.2-1 1.5-0.2 1.5-0.3-0.2-0.3-0.3-0.2-0.3-0.2-0.2-0.3-0.2-0.3-0.3-0.2-0.3-0.2-0.2-0.3-0.2-0.3-0.3-0.2-0.3-0.2-0.2-0.3h19.5q15.5 0 20 0.3l4.5 0.2-0.2-2-0.3-2-0.3-0.2-0.2-0.3-0.2-0.3-0.3-0.2-0.3-0.2-0.2-0.3-0.2-0.3-0.3-0.2-0.3-0.2-0.2-0.3-0.2-0.3-0.3-0.2-0.3-0.2-0.2-0.3-0.2-0.3q-0.3-0.2-8.3-8.2t-11.5-15-6.5-11.5-8.3-7.3q-5.2-2.7-7.7-3.7t-8.7-1.7q-6.3-0.8-7-0.3-0.8 0.5-1 2l-0.3 1.5-0.3 0.2-0.2 0.3-1 0.3-1 0.2-0.2-2q-0.3-2-4.8-8l-4.5-6-0.3-0.2-0.2-0.3-0.2-0.3-0.3-0.2-0.3-0.2-0.2-0.3-0.2-0.3-0.3-0.2-0.3-0.2-0.2-0.3-1-0.5-1-0.5h-4l-0.2 0.3-0.3 0.2-0.3 0.2-0.2 0.3-0.2 0.3-0.3 0.2v1.5q0 1.5 0 5v3.5l-0.3 0.2-0.2 0.3-0.2 0.3-0.3 0.2-0.3 0.2-0.2 0.3-1 0.3-1 0.2v-2l-2-0.2-2-0.3-0.2-0.3-0.3-0.2-0.5-1q-0.5-1-7-8t-16.8-13.5q-10.2-6.5-10.4-7.5-0.3-1-4-3.2-3.8-2.3-13.3-11.6l-9.5-9.2-0.2-0.5q-0.3-0.5-6-5.5-5.8-5-7.3-7.2-1.5-2.3-1.7-4-0.3-1.8-3.3-6.8t-15-17l-12-12h-0.5l-0.2-0.5q-0.3-0.5-0.6-0.5h-0.2l-0.2-0.5q-0.3-0.5-0.6-0.5h-0.2l-0.2-1q-0.3-1-0.6-1.2l-0.2-0.3-0.2-0.3-0.3-0.2v-1.5z" fill="#ac6740" stroke="#ac6740"/>
  <path d="m252 359.2l1-0.2-6 4.5q-6 4.5-7.5 6.3-1.5 1.7-6.7 6.4-5.3 4.8-5.8 8.3t-2.8 7.3q-2.2 3.7-1 5 1.3 1.2 2 5 0.8 3.7-1 6-1.7 2.2-2 4.2-0.2 2-4 5.5-3.7 3.5-4 4.5-0.2 1 0.8 1t-0.8 3q-1.7 3-2.2 7.5t-1.8 5q-1.2 0.5-2.7 3.7-1.5 3.3-4.3 6-2.7 2.8-9.4 9.6-6.8 6.7-7 7l-0.3 0.2-0.3 1-0.2 1-1 0.2-1 0.3-0.2 0.3-0.3 0.2-0.3 0.2-0.2 0.3-1.5 0.3-1.5 0.2v-11l-1 0.2-1 0.3-0.2 0.3-0.3 0.2-0.5 1.5-0.5 1.5-0.5 1-0.5 1-5.5 11.5q-5.5 11.5-5.8 12.5l-0.2 1h-2.5q-2.5 0-2.3-1 0.3-1-0.4-1.2-0.8-0.3-2.6 3-1.7 3.2-5 3.7l-3.2 0.5-0.2-0.5q-0.3-0.5-0.6-0.5h-0.2l-0.2-0.5q-0.3-0.5-0.6-0.5h-0.2l-0.2-0.5q-0.3-0.5-0.6-0.5h-0.2l-0.5-0.2q-0.5-0.3-2-1.6l-1.5-1.2-0.5-0.2-0.5-0.3-1.5-0.5q-1.5-0.5-2.5-0.8l-1-0.2 0.2-1q0.3-1 7.3-18t8-25 5.7-16l4.8-8 0.5-0.2q0.5-0.3 0.5-0.6v-0.2l0.5-0.2q0.5-0.3 0.7-0.6l0.3-0.2 0.3-0.2 0.2-0.3 0.2-0.3 0.3-0.2 0.5-1 0.5-1 0.5-1 0.5-1 0.3-0.2 0.2-0.3 0.2-0.3q0.3-0.2 2.3-4.7t3.5-18.5l1.5-14 0.3-0.2 0.2-0.3 0.2-0.3 0.3-0.2 0.3-0.2 0.2-0.3 0.2-0.3 0.3-0.2 1.3 1.2q1.2 1.3 4.4 0.6 3.3-0.8 5.3-0.8t3.3 1.2q1.2 1.3 4 0 2.7-1.2 3-2.2 0.2-1 3.2-2.8 3-1.7 5-3.2t4.5 1 4 2.8q1.5 0.2 1.5 1.7t4 1.3q4-0.3 7.2-3 3.3-2.8 4-2 0.8 0.7 3.3-0.6 2.5-1.2 3-3 0.5-1.7 1.5-2 1-0.2 1.5 0.6 0.5 0.7 5.5-0.8t6-1.8z" fill="#70341b" stroke="#70341b"/>
  <path d="m116 388.2l1-0.2-2.2 2.5q-2.3 2.5-2.6 2.7l-0.2 0.3 1 0.3q1 0.2 1 2.7t1.8 2.5q1.7 0 1.7 7t-0.3 5.5q-0.2-1.5-1.2-1.5t-0.8 2q0.3 2-1 5-1.2 3-2.7 3t-2.3 2q-0.7 2 0 4 0.8 2 1.8 2.2 1 0.3 1.5 0.3h0.5l0.2-0.3 0.3-0.2 0.5-1 0.5-1 1.7-1q1.8-1 2.6 1 0.7 2 1 2.2l0.2 0.3 0.2 0.3 0.3 0.2 0.5 1 0.5 1 0.3 0.2 0.2 0.3 0.5 0.3 0.5 0.2v0.5l-0.2 0.3-0.3 0.2-12.5 17q-12.5 17-14.5 20t-2.5 7.5-1 7.5l-0.5 3h-0.5l-0.2-1.5-0.3-1.5-0.3-0.2-0.2-0.3h-2q-2 0-3 0.5t-7.5 0.5-14-3.5-12-3.5-6-0.7q-1.5-0.8-1.5-1.8t-1-1-2-2.5-2-2.5-3-2.2q-2-2.3-7.5-4.3t-15-4.5-11.3 0.2l-1.7 2.8h-0.5v-72h0.5l0.3 0.2 0.2 0.3 31.5 8q31.5 8 40 7.5t19-4.5 17-8.5 7.5-4.8zm2.2 40.3l0.3 1.5v0.5q0 0.5-0.5 1.5l-0.5 1-0.3 0.2-0.2 0.3-1 0.3-1 0.2v-2l1-0.2q1-0.3 0.5-2.6-0.5-2.2 0.5-2.2t1.2 1.5zm-10 0.7l0.3-0.2 0.3 0.2 0.2 0.3 1.5 0.3q1.5 0.2 1.7 1.7l0.3 1.5 0.3 0.2 0.2 0.3h-3l-0.2-0.3-0.3-0.2-0.3-1-0.2-1-1-0.2-1-0.3 0.2-0.3 0.3-0.2 0.3-0.2 0.2-0.3 0.2-0.3z" fill="#a87050" stroke="#a87050"/>
  <path d="m471 166.2l1-0.2v1q0 1-1 1.2l-1 0.3 1.5 0.5 1.5 0.5 0.2 0.3 0.3 0.2v1l-0.3 0.2-0.2 0.3-0.2 0.3-0.3 0.2-0.3 0.2-0.2 0.3v0.5l-0.5 0.2q-0.5 0.3-4 1.8t-16 5-32.5 7.5l-20 4-1.5 0.5-1.5 0.5-1.5 0.5-1.5 0.5-1 0.3-1 0.2v2l45 0.2q45 0.3 45 0.6v0.2l-3.5 0.2q-3.5 0.3-7.3 2-3.7 1.8-19 5.6-15.2 3.7-22.2 6.2t-13.5 2.5-8 1.7q-1.5 1.8-2.7 2.3-1.3 0.5-11 2.3-9.8 1.7-17.8 0.7t-11 0-8.8 5.7q-5.7 4.8-4.4 10.3 1.2 5.5-1.3 5.5t-2.7 1q-0.3 1-9.3 10l-9 9-0.3 0.2-0.2 0.3-0.2 0.3-0.3 0.2-0.3 1-0.2 1h-0.2q-0.3 0-0.6-1.5-0.2-1.5-1.2-1.3-1 0.3-1.8 3l-0.7 2.8-0.3 0.2-0.2 0.3h-2l-1-0.5-1-0.5-0.2-0.3-0.3-0.2-0.3-2.5-0.2-2.5h-2l0.2-1.5q0.3-1.5 3.6-4.5 3.2-3 3.4-4.5 0.3-1.5-2.2-3t-2-3.5-1.2-1.8l-1.8 0.3 1-0.5q1-0.5 0.8-0.8-0.3-0.2 1.2-2.2t3-5 1.8-7q0.2-4-0.8-4h-1v-0.5l4.5-1q4.5-1 6.5-1.3l2-0.2 0.2-1 0.3-1v-3l-0.3-0.2q-0.2-0.3-2.2-1.3t-1.5-2.3q0.5-1.2-0.5-1.2t-0.8-2.5l0.3-2.5 0.3-0.2 0.2-0.3 0.2-0.3 0.3-0.2 0.3-0.2 0.2-0.3 0.2-0.3 0.3-0.2 0.3-0.2 0.2-0.3 0.2-0.3 0.3-0.2 14.7-3.8q14.8-3.7 17.6-6 2.7-2.2 3-2.4l0.2-0.3 1-0.5 1-0.5 0.2-0.3 0.3-0.2 0.3-0.2 0.2-0.3 1-0.5 1-0.5 0.2-0.3 0.3-0.2 0.3-0.5 0.2-0.5 4.5-2.8q4.5-2.7 7-4.2t25-6.5 27.5-4 15.5 0.5 13-1.5 3.5-1.3z" fill="#a26144" stroke="#a26144"/>
  <path d="m239.2 796l3.8-11 1 2.8q1 2.7 1.5 7.4 0.5 4.8 2.3 3.3 1.7-1.5 2.2 2.5t1 3 2 9 1 17.5-0.8 7.7q-0.2 0.3-0.4 0.6l-0.3 0.2-0.3 0.2-0.2 0.3-0.2 0.3-0.3 0.2-0.3 0.2-0.2 0.3-0.2 0.3-0.3 0.2-0.5 1-0.5 1-0.3 0.2-0.2 0.3-0.2 0.3-0.3 0.2-0.3 0.5-0.2 0.5-7.2 10q-7.3 10-11.6 17.8-4.2 7.7-13 17.4-8.7 9.8-17.4 19.6-8.8 9.7-8.8 10.7t-5.2 7.7q-5.3 6.8-9.6 12.6-4.2 5.7-9.4 12-5.3 6.2-5.6 7.2-0.2 1-6.4 6.5-6.3 5.5-12 11.7-5.8 6.3-8.3 7-2.5 0.8-4.3 3.3-1.7 2.5-2.2 3.5l-0.5 1-0.3 0.2-0.2 0.3-0.2 0.3-0.3 0.2-0.3 0.2-0.2 0.3 0.2 0.3 0.3 0.2 0.3 0.2 0.2 0.3-2 0.3-2 0.2 0.2 1 0.3 1 0.3 0.5 0.2 0.5h-11l-5.5-0.2-5.5-0.3-0.2-0.3-0.3-0.2-0.3-0.2-0.2-0.3 0.2-0.3 0.3-0.2 0.5-1.5 0.5-1.5 0.3-0.2 0.2-0.3 0.2-0.3 0.3-0.2 0.3-0.2 0.2-0.3 0.2-0.3q0.3-0.2 5-7.4 4.8-7.3 4.8-8.3t7.5-9 19.3-23.3q11.7-15.2 20.2-28.2t12-16.5 7.2-6q3.8-2.5 4-3.5 0.3-1 5.8-4.5t9.8-9.5q4.2-6 5.2-6t1-1 1-1 1-1 1-1.2q1-0.3 2-2 1-1.8 2-2 1-0.3 6.5-7.3t10.3-14.7q4.7-7.8 5.4-19.3l0.8-11.5 0.2-1q0.3-1 4-12z" fill="#9b6142" stroke="#9b6142"/>
  <path d="m477.5 197.2l3.5-0.2 1 0.2 1 0.3 1.5 0.5 1.5 0.5 0.2 0.3 0.3 0.2v2.5q0 2.5-0.5 4t-2.8 3.3q-2.2 1.7-3 3.4l-0.7 1.8-0.3 1-0.2 1 2 0.2 2 0.3 11.5 4q11.5 4 12.5 4.5l1 0.5 0.2 0.3 0.3 0.2 0.3 0.2 0.2 0.3 0.2 0.3 0.3 0.2 0.3 1.5 0.2 1.5-1 0.2-1 0.3-0.2 0.3-0.3 0.2-0.5 1q-0.5 1-4.2 5.2-3.8 4.3-9.8 7.3t-17 3-23-0.5-23.5 1.5-17.5 6.5-23 9.5-24.2 9.3l-7.3 4.2-0.3 0.2-0.2 0.3-1 0.5-1 0.5-1 0.3-1 0.2h-4l0.2-1 0.3-1 0.5-1q0.5-1 1.8-2.8l1.2-1.7 0.2-0.3 0.3-0.2 0.5-1 0.5-1v-2l-0.3 0.2-0.2 0.3-1 0.5-1 0.5-0.2 0.3-0.3 0.2-0.3 0.2-0.2 0.3-0.2 0.3-0.3 0.2-0.3 0.2q-0.2 0.3-1.2 2-1 1.8-2.2 1.3l-1.3-0.5-0.3-0.2-0.2-0.3-0.2-0.3-0.3-0.2-0.3 1-0.2 1h-1q-1 0-0.5-3l0.5-3-1 0.2q-1 0.3-2 0.8t-5 1.5l-4 1-0.2-0.3-0.3-0.2-0.3-0.2-0.2-0.3-0.2-0.3-0.3-0.2-0.3-0.2-0.2-0.3-0.2-0.3-0.3-0.2h-0.5v-5l0.2-1 0.3-1 0.3-0.2 0.2-0.3 0.2-0.3 0.3-0.2 9-9q9-9 9.3-10 0.2-1 2.7-1t1.3-5.5q-1.3-5.5 4.4-10.3 5.8-4.7 9.8-6.4 4-1.8 4.5-0.6 0.5 1.3 2.5 1.3t6.5 0.5 14.3-1.2q9.7-1.8 11-2.3 1.2-0.5 2.7-2.3 1.5-1.7 8-1.7t13.5-2.5 22.2-6.2q15.3-3.8 19-5.6 3.8-1.7 7.3-2z" fill="#340c01" stroke="#340c01"/>
  <path d="m132 489l6-0.5h3v-0.5l1.5 1.2q1.5 1.3 2 1.6l0.5 0.2v0.2q0 0.3 0.5 0.6l0.5 0.2v0.2q0 0.3 0.5 0.6l0.5 0.2v0.2q0 0.3 0.5 0.6l0.5 0.2 0.2 0.5q0.3 0.5 0.6 0.7l0.2 0.3 3.8 3.7q3.7 3.8 6.7 10.3t3.3 7.5l0.2 1v0.2q0 0.3 0.5 0.6l0.5 0.2 3.8 12.5q3.7 12.5 3.2 18.5t-1.5 9.5 2 21 4 24.5 1.3 7.5l0.2 0.5-0.2 1q-0.3 1 0 2l0.2 1-1.2 0.5q-1.3 0.5-1.3 1.5v1l0.3 0.2 0.2 0.3h-1.5q-1.5 0-3.5 0.5t-2.8-0.8q-0.7-1.2-3-1l-2.2 0.3v1.5q0 1.5-1.5 1.8-1.5 0.2-1.5 1.7t0.8 2q0.7 0.5-0.6 1-1.2 0.5-1.4 3.5-0.3 3-2 5.8-1.8 2.7-2.8 3-1 0.2-1.2 1.7l-0.3 1.5-0.5 1-0.5 1-0.3-0.2-0.2-0.3-0.2-0.3-0.3-0.2-0.3 0.2-0.2 0.3-0.2 0.3-0.3 0.2-0.3 0.2-0.2 0.3h-2l-0.2-0.3-0.3-0.2h-0.5l-0.2-2.5q-0.3-2.5-0.8-5t-6.5-29.5-7-38-2.7-15.5l-1.8-4.5-0.2-4q-0.3-4-1.3-28t0.3-26.2q1.2-2.3 7.2-2.8zm20.2 147q0.3-1 1-0.2 0.8 0.7-0.2 1-1 0.2-0.8-0.8z" fill="#e49577" stroke="#e49577"/>
  <path d="m38 142.8l-2-2.8 5 3.2q5 3.3 11 6.3t12 6 8.5 5 11 4 14.7 7.7q6.3 5.8 6.6 6.8 0.2 1 4 4.5 3.7 3.5 8.4 8.7 4.8 5.3 8.6 7 3.7 1.8 6.4 4.6 2.8 2.7 10.8 7.7t10.8 6.7q2.7 1.8 3 2.8 0.2 1 7.2 3.2 7 2.3 7.5 2.6l0.5 0.2 1.5 0.2 1.5 0.3 1 0.5 1 0.5 2 0.5 2 0.5 4 1q4 1 6 1.3l2 0.2v0.5l1.5 0.5 1.5 0.5 1.5 0.5 1.5 0.5 10.5 3q10.5 3 19.5 6t15 4.5 7 2 7.5 0.8l6.5 0.2-0.2 0.5-0.3 0.5-0.3 0.2-0.2 0.3-0.2 0.3-0.3 0.2-0.3 0.2-0.2 0.3-0.2 0.3-0.3 0.2-0.3 0.2-0.2 0.3-0.2 0.3-0.3 0.2-0.3 0.2-0.2 0.3-1.5 0.5-1.5 0.5-2.5 0.5q-2.5 0.5-14.5 2t-26 2-20 1.8q-6 1.2-6 2.2t-3.5 0.8q-3.5-0.3-10.5-4.8l-7-4.5-1-0.5-1-0.5-1.5-0.3-1.5-0.2-0.2-0.5q-0.3-0.5-0.6-0.5h-0.2l-0.2-0.5q-0.3-0.5-0.6-0.5h-0.2l-0.5-0.2q-0.5-0.3-9.3-8-8.7-7.8-16.4-12.6-7.8-4.7-13-9-5.3-4.2-7-4.4-1.8-0.3-10.6-9.6-8.7-9.2-22-22.4-13.2-13.3-16.7-17-3.5-3.8-4.5-4-1-0.3-10-9.8l-9-9.5-1-0.5q-1-0.5-3-3.2z" fill="#be896a" stroke="#be896a"/>
  <path d="m279.5 305l2.5 0.5 0.2 0.3 0.3 0.2 0.3 0.2 0.2 0.3-0.2 0.3-0.3 0.2-0.3 0.2-0.2 0.3h3l0.2-0.3 0.3-0.2 0.3-0.2 0.2-0.3-0.2-0.3-0.3-0.2-0.3-0.2-0.2-0.3 1-0.3 1-0.2 0.5 2q0.5 2-2 2t-3.7 3.5q-1.3 3.5-4.6 7.5-3.2 4-5.4 5.5-2.3 1.5-3.8 4t-3 8-6.5 13-5.3 8l-0.2 0.5-1 0.2q-1 0.3-6 1.8t-5.5 0.8q-0.5-0.8-1.5-0.6-1 0.3-1.5 2-0.5 1.8-3 3-2.5 1.3-3.3 0.6-0.7-0.8-4 2-3.2 2.7-7.2 3-4 0.2-4-1.3t-1.5-1.7q-1.5-0.3-4-2.8t-4.5-1-5 3.2q-3 1.8-3.2 2.8-0.3 1-3 2.2-2.8 1.3-4 0-1.3-1.2-3.3-1.2t-5.3 0.8q-3.2 0.7-4.4-0.6l-1.3-1.2-0.3 0.2-0.2 0.3-0.2 0.3-0.3 0.2-0.3 0.2-0.2 0.3-0.2 0.3-0.3 0.2-1.5 14q-1.5 14-3.5 18.5t-2.3 4.7l-0.2 0.3-0.2 0.3-0.3 0.2-0.5 1-0.5 1-0.5 1-0.5 1-0.3 0.2-0.2 0.3-0.2 0.3-0.3 0.2-0.3 1-0.2 1h-2l0.2-1 0.3-1 0.5-1.5 0.5-1.5 0.5-2.5q0.5-2.5 1.5-7t2-17.5 0.3-17.5l-0.8-4.5v-2l1.5 0.2 1.5 0.3 1 0.3 1 0.2v-0.5l1-0.3 1-0.2-0.2-1-0.3-1-0.3-0.2-0.2-0.3-1-0.5-1-0.5h-2l-0.5 0.3-0.5 0.2h-0.2q-0.3 0-0.6 0.5l-0.2 0.5-1 0.2-1 0.3-0.2 0.3-0.3 0.2-0.3 0.2-0.2 0.3-1 0.3-1 0.2 0.2-1 0.3-1 0.3-0.2 0.2-0.3 0.2-0.3 0.3-0.2 0.3-0.2 0.2-0.3 0.2-0.3 0.3-0.2 0.5-1 0.5-1 0.5-2q0.5-2 6.2-4 5.8-2 6.6-5 0.7-3 3.4-7.2 2.8-4.3 11.8-7 9-2.8 9-3.8t4-1.8q4-0.7 9-2 5-1.2 5-3.2t1-2 1-1 7.8-4.5q7.7-3.5 10-4.7 2.2-1.3 8.7-6.6l6.5-5.2 3-1.8q3-1.7 4.2-1.4 1.3 0.2 2 0.7 0.8 0.5 1-0.5 0.3-1 6 5.2 5.8 6.3 8.3 6.8zm-39.5 3q1 0 1 1t-1 1-1-1 1-1z" fill="#9f5e40" stroke="#9f5e40"/>
  <path d="m597 739.2l1-0.2v0.5l-0.2 0.3-0.3 0.2-0.3 0.2-0.2 0.3-0.2 0.3-0.3 0.2-0.3 0.2-0.2 0.3 0.2 0.3 0.3 0.2 0.3 0.2 0.2 0.3h2l11.5 0.5q11.5 0.5 10 1.5t8.7 1.7q10.3 0.8 12.3 5.8t2.3 5.2l0.2 0.3 0.2 0.3 0.3 0.2 0.3 0.5 0.2 0.5 1.2 3q1.3 3 1.3 4v1l-0.3 0.2-0.2 0.3-3 0.5q-3 0.5-10.5 1t-22 4-15.7 4.8q-1.3 1.2-2 4.2-0.8 3-5.8 3.2-5 0.3-14.2 3.6-9.3 3.2-20.6 5.4-11.2 2.3-15.2 3.8t-4.5 2.8q-0.5 1.2-3 1.4l-2.5 0.3-4 0.3-4 0.2-1.5-0.2-1.5-0.3-1-0.5-1-0.5-0.2-0.3-0.3-0.2-0.3-0.2-0.2-0.3-0.2-0.3-0.3-0.2v-3l0.5-1.5q0.5-1.5 3.5-5l3-3.5 0.3-1.5 0.2-1.5-1.5-0.2-1.5-0.3-2-0.5q-2-0.5-12-4l-10-3.5-1-0.5-1-0.5-0.2-0.3-0.3-0.2-0.3-0.2-0.2-0.3-0.2-0.3-0.3-0.2v-2l0.3-0.2 0.2-0.3 0.2-0.3 0.3-0.2 0.3-0.2 0.2-0.3 0.2-0.3 0.3-0.2 4.7-5.8q4.8-5.7 10.3-8.2t17-2.5 26.5 0 24-2 15-6.5 7-4.8z" fill="#632710" stroke="#632710"/>
  <path d="m225.8 499l0.2-4 4 0.2 4 0.3 0.2 0.3 0.3 0.2 0.3 0.2 0.2 0.3 3.2 2.3q3.3 2.2 6.3 8.7t2.5 18.5-0.5 24 1.5 21 4 13 5.5 8.5 8 22.5 7 20.5 2.5 3.5l0.5 1 0.3 0.2 0.2 0.3 0.2 0.3 0.3 0.2 0.5 1 0.5 1 0.3 1 0.2 1-0.2 1.5-0.3 1.5-0.3 0.2-0.2 0.3h-2l-0.2-0.3q-0.3-0.2-2.6-1.4l-2.2-1.3-0.2-0.3-0.3-0.2-0.3-0.2-0.2-0.3-0.2-0.3-0.3-0.2v3l0.3 0.2 0.2 0.3 0.8 0.7q0.7 0.8 1 1l0.2 0.3 0.2 0.3 0.3 0.2 0.3 1 0.2 1-1-0.2-1-0.3-0.2-0.3-0.3-0.2-0.3-1-0.2-1-1-0.2q-1-0.3-4-1.8t-11-3.5-14-1.3l-6 0.8h-3l-0.2-3q-0.3-3-2.8-22.5t-4-22.5-5-26-9.5-34.5l-6-11.5-0.3-0.2-0.2-0.3-0.2-0.3-0.3-0.2-0.3-0.2-0.2-0.3-0.2-0.3-0.3-0.2-0.3-1-0.2-1 1-0.2 1-0.3 3.5-0.3 3.5-0.2v0.2q0 0.3 0.5 0.6l0.5 0.2v0.2q0 0.3 0.5 0.6l0.5 0.2 1 0.2 1 0.3h3l0.2-0.3 0.3-0.2 0.5-1q0.5-1 0.5-1.5t4-7.5 4.3-11z" fill="#a04f28" stroke="#a04f28"/>
  <path d="m395 81v-1l15 3.2q15 3.3 29.5 3.3t19-0.3l4.5-0.2v0.5l0.2 0.3 0.3 0.2 0.3 0.2 0.2 0.3-2 0.5-2 0.5-1 0.5-1 0.5 0.2 0.3 0.3 0.2 0.3 0.2 0.2 0.3 3.5 1.5q3.5 1.5 3.7 1.8l0.3 0.2v1l-0.3 1.5q-0.2 1.5-1.2 1.5t-1 1.5-1 1.7q-1 0.3-1.5 2-0.5 1.8 1 2 1.5 0.3-1 1.3l-2.5 1 1 0.5 1 0.5-0.2 0.3-0.3 0.2-0.3 0.2-0.2 0.3-1 0.5-1 0.5 14.5 2.5q14.5 2.5 17.5 3.8 3 1.2 3 3.2t-1.2 2.5q-1.3 0.5-1.6 0.7l-0.2 0.3v0.5l-2.5 0.2q-2.5 0.3-36 3.8t-61.5 9.5-47.5 6h-19.5l0.2-0.3 0.3-0.2 0.3-0.2 0.2-0.3h4l1.5-0.5 1.5-0.5 0.2-0.3 0.3-0.2 7.5-2q7.5-2 8.8-4 1.2-2 5.2-2.2 4-0.3 5-0.8l1-0.5-2-0.5-2-0.5 0.2-0.3 0.3-0.2 0.5-1.5 0.5-1.5 0.3-0.2 0.2-0.3 0.2-0.3 0.3-0.2 0.5-1 0.5-1 0.3-0.2 0.2-0.3h-2.5q-2.5 0-5 0.5t-3-0.8q-0.5-1.2-4-1.4l-3.5-0.3 1-0.5q1-0.5 2-1t-1.5-1l-2.5-0.5 2.5-0.5q2.5-0.5 0.5-1l-2-0.5 0.2-0.3 0.3-0.2 0.3-0.2 0.2-0.3 4-1q4-1 4-1.3v-0.2l2 0.2q2 0.3 2 0v-0.2l2.5-0.2 2.5-0.3-1-0.3-1-0.2v-2l1 0.2 1 0.3 0.2 0.3 0.3 0.2v-2l-0.3-0.2q-0.2-0.3-1.7-0.8t-2.7-1.2l-1.3-0.8-0.5-1-0.5-1-0.3-0.2-0.2-0.3 0.2-0.3 0.3-0.2 0.3-0.2 0.2-0.3 1-0.3q1-0.2 1-1.2t1.2-1.5q1.3-0.5 1.6-1.5 0.2-1 1.2-1t1.5-1.2q0.5-1.3 1.5-1.6 1-0.2 3.5-3.4 2.5-3.3 1-3.8t8-1 14.5-0.5h5l1.5-0.5 1.5-0.5 0.2-0.3 0.3-0.2v-1l-0.3-0.2-0.2-0.3-1-0.3q-1-0.2-1-1.2z" fill="#fccbb1" stroke="#fccbb1"/>
  <path d="m852.5 474.2l0.5-0.2v0.2q0 0.3 0.5 0.6l0.5 0.2 2.2 9.5q2.3 9.5 2 13.5-0.2 4-1.7 4t-0.5 2.2q1 2.3 3.8 3 2.7 0.8 2.7 5.3t-4 11.5-6.3 7.8q-2.2 0.7-4.7 1.2t-3.5 1-2.2 0.8q-1.3 0.2-2.8 2.7t-5 14.5-6.5 17.5-5.5 13.5-2.2 23q0.2 15-1 15.5-1.3 0.5-1.6 1.5l-0.2 1-0.5 0.2q-0.5 0.3-0.5 0.6v0.2l-0.5 0.2q-0.5 0.3-0.5 0.6v0.2l-0.5 0.2q-0.5 0.3-0.5 0.6v0.2l-0.5 0.2q-0.5 0.3-0.5 0.6v0.2l-0.5 0.2q-0.5 0.3-0.5 0.6v0.2l-0.5 0.2q-0.5 0.3-2 1.3t-6.3 5.7l-4.7 4.8-0.3 0.2-0.2 0.3-0.2 0.3-0.3 0.2-0.3 0.2-0.2 0.3-0.2 0.3-0.3 0.2-0.3-0.2-0.2-0.3-1-0.5-1-0.5-0.2-0.3-0.3-0.2-0.3-0.2-0.2-0.3-0.2-0.3-0.3-0.2-0.3-0.2-0.2-0.3-0.2-0.3-0.3-0.2-0.3-0.2-0.2-0.3-0.2-0.3-0.3-0.2-0.5-1q-0.5-1-1-2t-1-9 1-12 9.2-14.8q7.8-10.7 13.6-24 5.7-13.2 6-20.7l0.2-7.5 0.2-6q0.3-6 2-9.8 1.8-3.7 4.6-11 2.7-7.2 2.7-23.2v-16l0.3-0.5 0.2-0.5h0.5l0.3 0.2 0.2 0.3 0.2 0.3 0.3 0.2 0.3 0.2 0.2 0.3 0.2 0.3 0.3 0.2 0.3 0.2 0.2 0.3 0.2 0.3 0.3 0.2 0.5 1 0.5 1 0.3 1 0.2 1 1-0.2 1-0.3 0.2-0.3 0.3-0.2 0.5-4 0.5-4 0.3-0.2 0.2-0.3 0.2-0.3 0.3-0.2 0.3-0.2 0.2-0.3 0.2-0.3 0.3-0.2 0.5 1 0.5 1 0.3 0.2 0.2 0.3 0.2 0.3 0.3 0.2 1.5 2.5q1.5 2.5 2 4l0.5 1.5 0.5-1 0.5-1 0.5 1 0.5 1 0.3-1.5 0.2-1.5h2l0.2-1.5 0.3-1.5 0.5-2q0.5-2 1.2-3l0.8-1v-0.2q0-0.3 0.5-0.6z" fill="#4d1f0d" stroke="#4d1f0d"/>
  <path d="m300.2 178l-0.2 3 5.5-0.8q5.5-0.7 11.7 0.6 6.3 1.2 8.6 2 2.2 0.7 16 1.4 13.7 0.8 14 1.8 0.2 1 3.7 0.2 3.5-0.7 5-1.2t2-0.5 0.7-0.3l0.3-0.2 0.3 0.2 0.2 0.3 2 0.5 2 0.5-0.2 0.3-0.3 0.2-0.3 0.2-0.2 0.3h2l1-0.3 1-0.2-0.2 0.5-0.3 0.5-0.3 0.2-0.2 0.3-1 0.5-1 0.5-0.2 0.3-0.3 0.2-0.3 0.2-0.2 0.3-1 0.5-1 0.5-0.2 0.3q-0.3 0.2-3 2.4-2.8 2.3-17.6 6l-14.7 3.8-0.3 0.2-0.2 0.3-0.2 0.3-0.3 0.2-0.3 0.2-0.2 0.3-0.2 0.3-0.3 0.2-0.3 0.2-0.2 0.3-0.2 0.3-0.3 0.2-0.3 2.5q-0.2 2.5 0.8 2.5t0.5 1.2q-0.5 1.3 1.5 2.3t2.2 1.3l0.3 0.2v3l-0.3 1-0.2 1-2 0.2q-2 0.3-6.5 1.3l-4.5 1v0.5l-0.5 0.2q-0.5 0.3-1.5 0.8t-0.5 2.5-3 5.7q-3.5 3.8-7.5 5-4 1.3-4.5 3-0.5 1.8-7 4-6.5 2.3-11.5 2.8t-13 1.8l-8 1.2-6.5-0.2q-6.5-0.3-7.5-0.8t-7-2-15-4.5-19.5-6l-10.5-3-1.5-0.5-1.5-0.5-1.5-0.5-1.5-0.5v-0.5l7.8-1q7.7-1 8-2 0.2-1 8.2-1.5t8 0.5 9.5 0.8q9.5-0.3 18-5.3t15.7-12.7q7.3-7.8 8.6-9.6 1.2-1.7 1.4-2l0.3-0.2v-3l-0.3-2-0.2-2-1.5-0.2q-1.5-0.3-7-2.8t-7.5-4.8q-2-2.2-3-2.2h-1l-0.2-2-0.3-2-0.3-0.2-0.2-0.3 0.2-0.3 0.3-0.2 2.5-3q2.5-3 5.8-6.2 3.2-3.3 6.7-4.8t14-1 11.5 2 2.2 3.8q1.3 2.2 0.8 4.7t-0.8 5.5z" fill="#e7b698" stroke="#e7b698"/>
  <path d="m814.8 547h3.2l-0.2 7.5q-0.3 7.5-6 20.7-5.8 13.3-13.6 24-7.7 10.8-9.2 14.8t-1 12 1 9 1 2l0.5 1 0.3 0.2 0.2 0.3 0.2 0.3 0.3 0.2 0.3 0.2 0.2 0.3 0.2 0.3 0.3 0.2 0.3 0.2 0.2 0.3 0.2 0.3 0.3 0.2 0.3 0.2 0.2 0.3 1 0.5 1 0.5 0.2 0.3 0.3 0.2 0.3-0.2 0.2-0.3 0.2-0.3 0.3-0.2 0.3-0.2 0.2-0.3 0.2-0.3 0.3-0.2 4.7-4.8q4.8-4.7 6.3-5.7t2-1.3l0.5-0.2h0.2q0.3 0 0.6-0.5l0.2-0.5h0.2q0.3 0 0.6-0.5l0.2-0.5h0.2q0.3 0 0.6-0.5l0.2-0.5h0.2q0.3 0 0.6-0.5l0.2-0.5h0.2q0.3 0 0.6-0.5l0.2-0.5 3.8 3.5q3.7 3.5 6 5.7 2.2 2.3 3.2 2.8l1 0.5 1.5 0.3 1.5 0.2 0.2-1q0.3-1 2.3-4l2-3 0.3-0.2 0.2-0.3 0.2-0.3 0.3-0.2 0.3-1 0.2-1h3l-0.2 1.5-0.3 1.5-0.3 0.2-0.2 0.3-0.2 0.3-0.3 0.2-0.5 1.5-0.5 1.5-0.5 1.5q-0.5 1.5-1 2.5t-5.5 6.5-8.3 8.3q-3.2 2.7-6 8.4-2.7 5.8-13 11l-10.2 5.3-0.2 0.3-0.3 0.2-0.3 0.2-0.2 0.3-0.2 0.3-0.3 0.2-0.3 0.2-0.2 0.3-2.5 0.3-2.5 0.2-0.5-0.2-0.5-0.3 0.2-0.3 0.3-0.2 0.3-0.2 0.2-0.3 0.2-0.3 0.3-0.2 0.3-0.2 0.2-0.3 1.5-1q1.5-1 1.7-1.3l0.3-0.2v-2l-0.3-0.2-0.2-0.3 0.2-0.3 0.3-0.2v-1l-0.3-0.2-0.2-0.3h-2l-1 0.5-1 0.5-1 0.5-1 0.5-0.2 0.3-0.3 0.2-0.3 0.2-0.2 0.3-1.5 0.5q-1.5 0.5-4.5 2.5t-20 16-21 17-6 5.7q-2 2.8-6 4-4 1.3-5 1.8l-1 0.5-0.2 0.3-0.3 0.2-0.3 0.2-0.2 0.3-2 0.3-2 0.2v-1q0-1-1-1.2l-1-0.3-0.2-0.3q-0.3-0.2-0.3-0.7t0-4.5-0.5-5.5l-0.5-1.5-0.3-0.2-0.2-0.3-0.2-0.3q-0.3-0.2-0.6-0.4l-0.2-0.3-0.2-0.3-0.3-0.2-0.3-0.2-0.2-0.3-0.2-0.3-0.3-0.2-0.3-0.2-0.2-0.3-1.5-0.5-1.5-0.5h-1q-1 0-2.8 3.3-1.7 3.2-3 3.4l-1.2 0.3-0.2-0.3-0.3-0.2-0.3 0.2-0.2 0.3-2 0.5-2 0.5-1 0.3-1 0.2 0.2-1 0.3-1 0.3-0.2 0.2-0.3 2-0.5 2-0.5 0.2-0.3 0.3-0.2 0.3-0.2 0.2-0.3 0.2-0.3 0.3-0.2 2.3-3.2q2.2-3.3 3.7-3.6 1.5-0.2 1.5-2.2t2.2-3.5q2.3-1.5 2.6-2.5 0.2-1 2.2-1.5t4-4.3q2-3.7 6.5-8.2t7.3-7.2q2.7-2.8 5-8.6 2.2-5.7 8.2-13.7t13.8-12.7q7.7-4.8 11-7.6 3.2-2.7 6.2-4 3-1.2 3.2-2.2l0.3-1 0.5-1q0.5-1 0.5-2.5t-1.7-0.5q-1.8 1 1-2.5 2.7-3.5 3-6 0.2-2.5 1.2-2.5t1.5-5.5-0.5-5.5-0.2-1.5q0.7-1.5 1-3.3 0.2-1.7 2.7-3.2t5-4.2q2.5-2.8 3.5-3 1-0.3 2.8-3.6 1.7-3.2 1.7-6.7t1.5-5.5 6-9 7.8-7z" fill="#c37a57" stroke="#c37a57"/>
  <path d="m999.5 465.2l0.5-0.2v72l-0.5 0.2q-0.5 0.3-1-0.4-0.5-0.8-1.5-0.6-1 0.3-13-2-12-2.2-12-3.2t-8.2-5.5q-8.3-4.5-18.6-6.5l-10.2-2-0.2-0.5q-0.3-0.5-0.6-0.5h-0.2l-0.2-0.5q-0.3-0.5-0.6-0.5h-0.2l-0.2-0.5q-0.3-0.5-0.6-0.7l-0.2-0.3-1-0.5-1-0.5-0.2-0.3-0.3-0.2-0.3-0.2-0.2-0.3-0.2-0.3-0.3-0.2-0.3-0.2-0.2-0.3-0.2-0.3q-0.3-0.2-3-1.4-2.8-1.3-9.3-2.6-6.5-1.2-4.5-19.7l2-18.5h0.2q0.3 0 0.6-0.5l0.2-0.5h3l41-0.8q41-0.7 41.5-1z" fill="#5d3421" stroke="#5d3421"/>
  <path d="m727.5 347.2l-2.5-3.2 8.5 5.8q8.5 5.7 15 7.2t10 1.5h3.5l1-0.5 1-0.5 1-0.3 1-0.2 1.5 0.2 1.5 0.3 0.2 0.3 0.3 0.2 3 22q3 22 5 26t5 25 5.3 26.8q2.2 5.7 5 11 2.7 5.2 3.2 6.2l0.5 1 0.3 0.2 0.2 0.3 0.2 0.3 0.3 0.2 0.3 0.2 0.2 0.3 0.2 0.3 0.3 0.2 0.5 1 0.5 1v1l-0.3 0.2-0.2 0.3h-8l-0.2-0.3-0.3-0.2h-0.5l-0.5-0.2q-0.5-0.3-2-0.8l-1.5-0.5-1.5-0.3-1.5-0.2-2 6.8q-2 6.7-3 7-1 0.2-2.2 3.2-1.3 3-1.6 6l-0.2 3-4-0.2-4-0.3-1-0.5-1-0.5-1-0.5q-1-0.5-2.5-2t-4.7-7.2q-3.3-5.8-3.3-17.8t0.5-23-1.5-22.5-6.5-18-8.5-20.5-7.7-22.5l-3.8-8.5v-3h2l0.2 1q0.3 1 0.6 1.2l0.2 0.3 0.2 0.3 0.3 0.2 0.3-0.2 0.2-0.3 0.2-0.3 0.3-0.2 0.3-1q0.2-1-1.6-2.5l-1.7-1.5-0.3-0.2-0.2-0.3h2l1 0.5 1 0.5 1 0.5 1 0.5h3l0.2-0.3 0.3-0.2v-1l-0.3-0.2-0.2-0.3-0.2-0.3-0.3-0.2-0.3-0.2-0.2-0.3-0.2-0.3-0.3-0.2-0.3-0.2-0.2-0.3-0.2-0.3-0.3-0.2-0.3-0.2-0.2-0.3-1-0.5q-1-0.5-3.5-3.8z" fill="#904625" stroke="#904625"/>
  <path d="m167.5 358.8l0.5-0.3h2l1 0.5 1 0.5 0.2 0.3 0.3 0.2 0.3 2q0.2 2-0.8 1.8-1-0.3-1-0.6v-0.2l-0.2-0.5-0.3-0.5-0.3-0.2-0.2-0.3h-1.5q-1.5 0-2 0.3l-0.5 0.2-0.2 1q-0.3 1 0 1h0.2l0.8 4.5q0.7 4.5-0.3 17.5t-2 17.5-1.5 7l-0.5 2.5-0.3 2-0.2 2h-0.2q-0.3 0-0.6 0.5l-0.2 0.5-4.8 8q-4.7 8-5.7 16t-8 25-7.3 18l-0.2 1 1 0.2q1 0.3 2.5 0.8l1.5 0.5 0.5 0.3 0.5 0.2v0.5h-3l-6 0.5q-6 0.5-7.2 2.8-1.3 2.2-0.3 26.2t1.3 28l0.2 4-0.2 5-0.3 5-0.3 0.2-0.2 0.3-0.2 0.3-0.3 0.2-0.5 1.5-0.5 1.5-0.3 0.2-0.2 0.3-0.2 0.3-0.3 0.2-0.3 1-0.2 1h-2l-0.2-3.5-0.3-3.5-0.5-1q-0.5-1-0.8-1.2-0.2-0.3-1.4-9-1.3-8.8-3.3-13.8t-2.7-4.2q-0.8 0.7-1.6-4-0.7-4.8-2.2-8.8l-1.5-4-0.3 0.2-0.2 0.3-0.2 0.3-0.3 0.2-0.3 0.2-0.2 0.3-1 0.3-1 0.2-0.2 1q-0.3 1-0.6 0.8l-0.2-0.3-0.2-0.3-0.3-0.2-0.5-1-0.5-1-0.3-0.2-0.2-0.3-0.2-0.3-0.3-0.2-0.3 0.2-0.2 0.3-0.2 0.3-0.3 0.2-3 4.5q-3 4.5-3.5 6l-0.5 1.5-0.5 1.5-0.5 1.5-0.3 0.2-0.2 0.3-0.2 0.3-0.3 0.2-0.5-2-0.5-2-0.3-4.5-0.2-4.5 0.2-3q0.3-3 2-15l1.8-12h0.5l0.5-3q0.5-3 1-7.5t5-10.5 13.8-19.5l9.2-13.5 0.5-0.2q0.5-0.3 0.7-0.6l0.3-0.2 0.3-0.2 0.2-0.3v-0.5l0.2-0.5 0.3-0.5 0.3-0.2q0.2-0.3 2.4-3 2.3-2.8 6.3-10.8t13-25 14.7-24.5l5.8-7.5 0.5-0.2q0.5-0.3 0.5-0.6v-0.2l0.5-0.2z" fill="#dd8e6e" stroke="#dd8e6e"/>
  <path d="m833.5 742.2l0.5-0.2v0.2q0 0.3 0.5 0.6l0.5 0.2 6.8 4.5q6.7 4.5 19.4 12.3 12.8 7.7 21 13 8.3 5.2 8.6 6.2 0.2 1 1.2 1t4.5 5 9.7 10q6.3 5 6.6 6 0.2 1 10.7 6.2 10.5 5.3 18.5 11.3t16 12 9 6.3q1 0.2 1.5 1.4 0.5 1.3 1.5 1.6 1 0.2 10.5 10.4 9.5 10.3 8.7 11-0.7 0.8 0 1.6 0.8 0.7 1 1l0.3 0.2 0.3 0.2 0.2 0.3 0.2 0.3 0.3 0.2 0.3-0.2 0.2-0.3 0.2-0.3 0.3-0.2 0.3 0.2 0.2 0.3 0.2 0.3 0.3 0.2 0.3 0.2 0.2 0.3 1.5 0.5 1.5 0.5 0.2 0.3 0.3 0.2 0.3-0.2 0.2-0.3 0.2-0.3 0.3-0.2 0.3-0.2 0.2-0.3 0.5-0.3 0.5-0.2v27l-0.5 0.2-0.5 0.3h-2l-0.2-0.3-0.3-0.2-0.3 0.2-0.2 0.3h-3l-0.2-0.3q-0.3-0.2-7-3.4-6.8-3.3-13.8-7.6-7-4.2-7.2-5.2-0.3-1-9-7.2-8.8-6.3-11.3-9-2.5-2.8-5.7-4.8-3.3-2-21-14.2-17.8-12.3-23-18.6-5.3-6.2-9.8-12.7t-9.2-9.3q-4.8-2.7-5.6-4-0.7-1.2-9-8.4-8.2-7.3-14.2-12.3t-13.5-6.3l-7.5-1.2-0.5-0.2q-0.5-0.3-11-3.6l-10.5-3.2-0.2-0.5q-0.3-0.5-0.6-0.5h-0.2l-0.2-0.5q-0.3-0.5-0.6-0.7l-0.2-0.3-0.2-0.3-0.3-0.2-0.3-0.2-0.2-0.3-0.2-0.3-0.3-0.2-0.3-0.2-0.2-0.3-0.2-0.3-0.3-0.2-0.3-0.2-0.2-0.3-0.2-0.3-0.3-0.2-0.3-1.5-0.2-1.5 1-0.2 1-0.3-0.2-0.3-0.3-0.2-0.3-0.2-0.2-0.3 4.5-1.5q4.5-1.5 8.5-1.8 4-0.2 4-1.2t3.8-1.5q3.7-0.5 7-1.3 3.2-0.7 4.7-0.7t2-0.3z" fill="#ac7351" stroke="#ac7351"/>
  <path d="m890 427l0.5-2 0.5 8q0.5 8 0.5 11v3l0.3-1q0.2-1 2 0 1.7 1 2.7 3t1.7 0q0.8-2 2.3-2.2 1.5-0.3 1.7-0.6l0.3-0.2 0.3-0.2 0.2-0.3 1-0.3 1-0.2 0.2 1 0.3 1 0.5 6.5q0.5 6.5 0.5 9.5v3l0.7-0.8q0.8-0.7 1-1l0.3-0.2 0.3-0.2 0.2-0.3 0.2-0.3 0.3-0.2 0.5 1.5 0.5 1.5 0.7 0.8q0.8 0.7 1.8 0.4l1-0.2-2.5 19q-2.5 19 4 20.2 6.5 1.3 9.3 2.6 2.7 1.2 3 1.4l0.2 0.3 0.2 0.3 0.3 0.2 0.3 0.2 0.2 0.3 0.2 0.3 0.3 0.2 0.3 0.2 0.2 0.3 1 0.5 1 0.5 1 0.5 1 0.5 0.2 0.3 0.3 0.2 0.3 1 0.2 1-1-0.2-1-0.3-0.2-0.3-0.3-0.2-0.3-0.2-0.2-0.3-1.5-0.5-1.5-0.5h-7.5q-7.5 0-10.5 0.7-3 0.8-4.8 6.8-1.7 6-6.2 12t-16 22-16.5 25.5-14.7 27l-9.8 17.5h-0.2q-0.3 0-0.6 1-0.2 1-1.7 1.2l-1.5 0.3-0.2 0.3-0.3 0.2-2 3q-2 3-2.3 4l-0.2 1-1.5-0.2-1.5-0.3-1-0.5q-1-0.5-6-6t-6.8-4.2l-1.7 1.2-0.3 0.2-0.2 0.3-0.2 0.3-0.3 0.2-0.3 0.2-0.2 0.3-1 0.3-1 0.2 0.2-1 0.3-1 0.3-0.2 0.2-0.3 0.2-0.3 0.3-0.2 0.3-0.2 0.2-0.3 0.2-0.3 0.3-0.2 0.3-0.2 0.2-0.3 0.2-0.3q0.3-0.2 2.6-1.7 2.2-1.5 2-16.5-0.3-15 2.2-23t5.5-13.5 6.5-17.5 5-14.5 2.8-2.7q1.2-0.3 2.2-0.8t3.5-1 4.7-1.2q2.3-0.8 6.3-7.8t4-11.5-2.7-5.3q-2.8-0.7-3.8-3-1-2.2 0.5-2.2t1.7-4q0.3-4-2-13.5l-2.2-9.5-0.2-0.5q-0.3-0.5-0.6-0.5h-0.2l-0.2-0.5q-0.3-0.5-0.6-0.7l-0.2-0.3-0.2-0.3q-0.3-0.2-0.3-4.2v-4l0.3-0.2 0.2-0.3 1-0.5 1-0.5h8l0.2 0.3 0.3 0.2 0.3 0.2 0.2 0.3 1.8 1.3q1.7 1.2 2.2 4.2l0.5 3 0.3 0.2 0.2 0.3 0.2 0.3 0.3 0.2 0.3 0.2 0.2 0.3 0.2 0.3 0.3 0.2 0.5 1.5 0.5 1.5 0.3 0.2 0.2 0.3 0.2 0.3 0.3 0.2v-8.5q0-8.5-1.3-20.5l-1.2-12h0.5l0.3-4.5 0.2-4.5 5.2-0.5q5.3-0.5 8.6 0.5 3.2 1 3.7 1.8 0.5 0.7 1.3 0 0.7-0.8 1.2-2.8z" fill="#8d4d33" stroke="#8d4d33"/>
  <path d="m320.2 708.5l-2.2-3.5 9.5 9.2q9.5 9.3 13.3 11.6 3.7 2.2 4 3.2 0.2 1 10.4 7.5 10.3 6.5 16.8 13.5t7 8l0.5 1 0.3 0.2 0.2 0.3 2 0.3 2 0.2v2l1-0.2 1-0.3 0.2-0.3 0.3-0.2 0.3-0.2 0.2-0.3 0.2-0.3 0.3-0.2v-3.5q0-3.5 0-5v-1.5l0.3-0.2 0.2-0.3 0.2-0.3 0.3-0.2 0.3-0.2 0.2-0.3h4l1 0.5 1 0.5 0.2 0.3 0.3 0.2 0.3 0.2 0.2 0.3 0.2 0.3 0.3 0.2 0.3 0.2 0.2 0.3 0.2 0.3 0.3 0.2 4.5 6q4.5 6 4.8 8l0.2 2 1-0.2 1-0.3 0.2-0.3 0.3-0.2 0.3-1.5q0.2-1.5 1-2 0.7-0.5 7 0.3 6.2 0.7 8.7 1.7t7.7 3.7q5.3 2.8 8.3 7.3t6.5 11.5 11.5 15 8.3 8.2l0.2 0.3 0.2 0.3 0.3 0.2 0.3 0.2 0.2 0.3 0.2 0.3 0.3 0.2 0.3 0.2 0.2 0.3 0.2 0.3 0.3 0.2 0.3 0.2 0.2 0.3 0.2 0.3 0.3 0.2 0.3 2 0.2 2-4.5-0.2q-4.5-0.3-20-0.3h-19.5l0.2 0.3 0.3 0.2 0.3 0.2 0.2 0.3 0.2 0.3 0.3 0.2 0.3 0.2 0.2 0.3 0.2 0.3 0.3 0.2 0.3 0.2 0.2 0.3-1.5 0.3-1.5 0.2 0.2 1 0.3 1 0.3 0.2 0.2 0.3 0.2 0.3 0.3 0.2 0.3 0.2 0.2 0.3 1 0.5 1 0.5 0.2 0.3 0.3 0.2 0.3 1 0.2 1-1-0.2-1-0.3-0.2-0.3-0.3-0.2-0.3-0.2-0.2-0.3-0.2-0.3-0.3-0.2-0.3-0.2-0.2-0.3-1-0.5q-1-0.5-6.5-1.8-5.5-1.2-5.3-0.2 0.3 1-0.4 1.8-0.8 0.7-7.3-1.3t-20-0.5l-13.5 1.5h-1l-1.5-0.5-1.5-0.5-1-0.3-1-0.2 0.2-0.5 0.3-0.5 0.3-0.2 0.2-0.3 0.2-0.3 0.3-0.2 0.3-0.2 0.2-0.3 0.2-0.3 0.3-0.2 0.3-0.2 0.2-0.3 0.2-0.3q0.3-0.2 0.8-0.7t0.8-4.5q0.2-4 2-5.5 1.7-1.5 0.7-5t-8.3-6.7l-7.2-3.3-1-0.3-1-0.2 0.2-1.5 0.3-1.5 0.3-0.2 0.2-0.3 0.2-0.3 0.3-0.2 0.3-0.2q0.2-0.3 1.4-2 1.3-1.8 3.6-3.6 2.2-1.7 2-3-0.3-1.2-3.3-7.7t-4.3-7.3q-1.2-0.7-2.2-3-1-2.2-2.2-2.7-1.3-0.5-0.6-1.3 0.8-0.7-1.2-2.2t-2.2-3.2q-0.3-1.8-3.6-6.6-3.2-4.7-5.4-7.4-2.3-2.8-4.6-4-2.2-1.3-5.2-4.3l-3-3-0.2-0.3-0.3-0.2-0.5-1-0.5-1v-2l0.3 0.2 0.2 0.3 1.2 1.3q1.3 1.2 1.6 1.4l0.2 0.3 0.2 0.3 0.3 0.2v-2l-0.3-0.2-0.2-0.3-0.2-0.3-0.3-0.2-0.3-0.2-0.2-0.3-0.2-0.3-0.3-0.2-0.5-1q-0.5-1-4.2-5.8l-3.8-4.7-0.2-0.3q-0.3-0.2-2.6-3.7z" fill="#cc8f67" stroke="#cc8f67"/>
  <path d="m465.8 10l-0.8-10h68v0.2q0 0.3-1 0.6-1 0.2-2.8 8.7-1.7 8.5-6.2 19.5t-5.8 11.5q-1.2 0.5-2 2.5-0.7 2-1.7 10t-2.5 13-2.2 13q-0.8 8-1.8 8t-1 1-20-1l-20-2 0.2-3q0.3-3 0.3-32.5t-0.7-39.5z" fill="#ba7652" stroke="#ba7652"/>
  <path d="m494.5 928.5l2.5-18 2-0.3 2-0.2 15.8 2q15.7 2 16 4.5l0.2 2.5 0.2 34q0.3 34 0.6 40.5l0.2 6.5h-61v-0.5l1.5-0.5 1.5-0.5-0.2-0.3-0.3-0.2-0.3-0.2-0.2-0.3 0.2-0.3 0.3-0.2 0.3-0.2 0.2-0.3 0.2-0.3q0.3-0.2 0.8-2.7t7.8-24.7q7.2-22.3 9.7-40.3z" fill="#875c3c" stroke="#875c3c"/>
  <path d="m125.8 555l0.2-5 1.8 4.5q1.7 4.5 2.7 15.5t7 38 6.5 29.5 0.8 5l0.2 2.5-0.2 14q-0.3 14-0.8 20.5l-0.5 6.5-0.3-0.2-0.2-0.3-0.2-0.3-0.3-0.2-0.3-1-0.2-1h-2l-0.2-2.5q-0.3-2.5-1.3-4.5l-1-2-0.3 0.2-0.2 0.3-0.2 0.3-0.3 0.2-0.5-1.5-0.5-1.5-0.5 2-0.5 2-0.3-0.2-0.2-0.3-0.2-0.3-0.3-0.2-0.5-1-0.5-1-0.3 3.2q-0.2 3.3-1.4 2.6-1.3-0.8-1.3 1.7v4.5h-0.5l-0.2-0.5-0.3-0.5-0.3-0.2-0.2-0.3-0.2-0.3-0.3-0.2-0.3-1.5-0.2-1.5h-1q-1 0-2-2.2-1-2.3-1.8-3.6-0.7-1.2-0.4-2.7 0.2-1.5-0.8-1.7-1-0.3-0.5-1.6 0.5-1.2-0.5-1.2t-1.2-2q-0.3-2-1.3-3t-2.5-7-0.8-12q0.8-6 2.3-6.2 1.5-0.3 2-1.6 0.5-1.2-1-1.4-1.5-0.3-0.5-0.6 1-0.2 0.5-7.2t-3.5-9.8q-3-2.7-2.5-6.7t1.5-6.7q1-2.8 2-2.8t1.8-14.5q0.7-14.5 2-16.5l1.2-2h2l0.2-1 0.3-1 0.3-0.2 0.2-0.3 0.2-0.3 0.3-0.2 0.5-1.5 0.5-1.5 0.3-0.2 0.2-0.3 0.2-0.3 0.3-0.2 0.3-5z" fill="#c97551" stroke="#c97551"/>
  <path d="m616 176.5h7l0.2 0.3 0.3 0.2v2l-1 4q-1 4-2.5 6.5t-1.2 5.7q0.2 3.3 6.2 6.8t7 3.8l1 0.2 0.2 1.5 0.3 1.5v1l-0.3 0.2-0.2 0.3-2.5 2.5q-2.5 2.5-4 2.8-1.5 0.2-0.3 3.7 1.3 3.5 4.8 9.5t5.2 7.5q1.8 1.5 1.8 3.3 0 1.7 4 7.7t9.8 11.7q5.7 5.8 6 6l0.2 0.3 0.2 0.3 0.3 0.2 0.3 0.2 0.2 0.3 0.2 0.3 0.3 0.2 0.3 0.2 0.2 0.3 0.2 0.3 0.3 0.2 0.3 0.2 0.2 0.3 0.2 0.3 0.3 0.2 0.3 0.2 0.2 0.3 1 0.3 1 0.2v2l-1-0.2-1-0.3-0.2-0.3-0.3-0.2-0.3-0.2-0.2-0.3-1-0.5-1-0.5-1-0.5-1-0.5-1-0.5q-1-0.5-7.5-4t-9.7-6.2q-3.3-2.8-7-5.8-3.8-3-3.8-4t-1-1.2q-1-0.3-5.2-6-4.3-5.8-10-6.8-5.8-1-5.8 0t-1 1-1 2.5v2.5l-1 0.2-1 0.3-0.2 0.3-0.3 0.2-0.3-0.2-0.2-0.3-0.2-0.3-0.3-0.2-0.3-0.2-0.2-0.3-0.2-0.3-0.3-0.2-0.3-1q-0.2-1-1.2-1t-3.2-4q-2.3-4-7.6-7.8-5.2-3.7-6.7-4.2t-2.5 0-8-1-11.5-4.2q-4.5-2.8-6.5-6.8t-12-13.2l-10-9.3-0.2-0.3-0.3-0.2-0.3-0.2-0.2-0.3-0.2-0.3-0.3-0.2-0.3-0.2-0.2-0.3-0.2-0.3-0.3-0.2-0.3-0.2-0.2-0.3-0.2-0.3-0.3-0.2-0.3-0.2-0.2-0.3-0.2-0.3-0.3-0.2v-2l0.3-0.2 0.2-0.3h10.5q10.5 0 11-0.5t8-0.5h12.5l-0.2-0.3-0.3-0.2-0.3-0.2-0.2-0.3-1.5-0.5-1.5-0.5-1-0.5-1-0.5-1-0.5q-1-0.5-1.8-1.8-0.7-1.2-4.7-4.2t-3.3-3.8q0.8-0.7-6-2.4-6.7-1.8-18-7l-11.2-5.3-1-0.5q-1-0.5-1.5-0.8l-0.5-0.2v-0.5l0.2-0.3 0.3-0.2v-2l-0.5-1.5q-0.5-1.5-0.8-1.5h-0.2l6 0.2q6 0.3 13.2 4.6 7.3 4.2 11.6 6.4 4.2 2.3 11.2 3.3t9.5 4 4.3 3.7q1.7 0.8 2 2.3 0.2 1.5 8.7 3.7 8.5 2.3 9.5 3.3t11 1.5 17 0.5z" fill="#c78766" stroke="#c78766"/>
  <path d="m769.8 353.5l0.2-0.5 9.5 6.8q9.5 6.7 13.3 10.4 3.7 3.8 8.7 13.8t5.3 11l0.2 1h-1q-1 0-1.2-1l-0.3-1-0.5 3-0.5 3v40q0 40-0.5 41.5l-0.5 1.5-0.5 1-0.5 1-0.3 0.2-0.2 0.3-1 0.5-1 0.5h-2l-2-0.5-2-0.5-0.2-0.3-0.3-0.2-0.3-0.2-0.2-0.3-0.2-0.3-0.3-0.2-0.3-0.2-0.2-0.3-0.2-0.3-0.3-0.2-0.3-1-0.2-1h0.5l0.3 0.2 0.2 0.3h8l0.2-0.3 0.3-0.2v-1l-0.5-1-0.5-1-0.3-0.2-0.2-0.3-0.2-0.3-0.3-0.2-0.3-0.2-0.2-0.3-0.2-0.3-0.3-0.2-0.5-1q-0.5-1-3.2-6.2-2.8-5.3-5-11-2.3-5.8-5.3-26.8t-5-25-5-26l-3-22-0.3-0.2-0.2-0.3-1.5-0.3-1.5-0.2v-0.5l1-0.5 1-0.5 0.2-0.3 0.3-0.2 0.3-0.2 0.2-0.3 0.2-0.3 0.3-0.2 0.3-0.5z" fill="#f3ae8f" stroke="#f3ae8f"/>
  <path d="m200.2 513.2l0.3-0.2 0.3 0.2 0.2 0.3 3.2 1.3q3.3 1.2 4.8 2.2t1.8 2l0.2 1-1-0.2q-1-0.3-4.5-0.8l-3.5-0.5-1 0.3-1 0.2 0.2 1 0.3 1 0.3 0.2 0.2 0.3 0.2 0.3 0.3 0.2 0.3 0.2 0.2 0.3 0.2 0.3 0.3 0.2 6 11.5q6 11.5 9.5 34.5t5 26 4 22.5 2.8 22.5l0.2 3h3v0.5l-0.2 0.3-0.3 0.2-0.3 0.2-0.2 0.3-0.2 0.3-0.3 0.2-0.3 1.5-0.2 1.5h-2l-0.2-1.5-0.3-1.5-0.3-0.2-0.2-0.3-1-0.5q-1-0.5-8.5-6t-11.5-9.5-9-14.7l-5-10.8h0.5l0.5 1 0.5 1 0.3 0.2 0.2 0.3 0.2 0.3 0.3 0.2 0.5-5.5q0.5-5.5 0.5-44v-38.5l0.5-1 0.5-1 0.3-0.2 0.2-0.3 0.2-0.3 0.3-0.2 0.3-0.2 0.2-0.3 0.2-0.3 0.3-0.2 0.3-0.2 0.2-0.3 0.2-0.3z" fill="#f2b68e" stroke="#f2b68e"/>
 </g>
</svg>
