<?xml version="1.0" encoding="UTF-8"?>
<svg viewBox="0 0 744.09448 350" xmlns="http://www.w3.org/2000/svg" xmlns:xlink="http://www.w3.org/1999/xlink">
 <defs>
  <linearGradient id="a">
   <stop offset="0"/>
   <stop stop-opacity="0" offset="1"/>
  </linearGradient>
  <linearGradient id="b">
   <stop stop-color="#969aa4" offset="0"/>
   <stop stop-color="#cdcdcf" offset="1"/>
  </linearGradient>
  <linearGradient id="c">
   <stop stop-color="#969aa4" offset="0"/>
   <stop stop-color="#d6d6d6" offset="1"/>
  </linearGradient>
  <linearGradient id="d">
   <stop stop-color="#969aa4" offset="0"/>
   <stop stop-color="#d7d7d7" offset="1"/>
  </linearGradient>
  <linearGradient id="z" x1="613.58" x2="563.87" gradientUnits="userSpaceOnUse">
   <stop stop-opacity="0" offset="0"/>
   <stop offset="1"/>
  </linearGradient>
  <linearGradient id="y" x1="621.02" x2="567.4" gradientUnits="userSpaceOnUse">
   <stop stop-color="#969aa4" offset="0"/>
   <stop stop-color="#d5d5d5" offset="1"/>
  </linearGradient>
  <linearGradient id="u" x1="244.42" x2="659.79" y1="539.11" y2="572.42" gradientUnits="userSpaceOnUse">
   <stop stop-color="#11264a" offset="0"/>
   <stop stop-color="#374c72" offset="1"/>
  </linearGradient>
  <linearGradient id="s" x1="246.27" x2="316.09" y1="571.66" y2="561.79" gradientUnits="userSpaceOnUse">
   <stop stop-color="#a8afbb" offset="0"/>
   <stop stop-color="#e1e1e1" offset="1"/>
  </linearGradient>
  <linearGradient id="r" x1="144.5" x2="817.58" y1="556.4" y2="555.87" gradientUnits="userSpaceOnUse">
   <stop stop-color="#243044" offset="0"/>
   <stop stop-color="#3d5f94" offset="1"/>
  </linearGradient>
  <linearGradient id="q" x1="278.9" x2="306.98" y1="504.87" y2="476.41" gradientUnits="userSpaceOnUse">
   <stop stop-color="#969aa4" offset="0"/>
   <stop stop-color="#d8d8d8" offset="1"/>
  </linearGradient>
  <linearGradient id="n" x1="353.5" x2="350.82" y1="630.28" y2="572.52" gradientUnits="userSpaceOnUse">
   <stop stop-color="#fff" offset="0"/>
   <stop stop-color="#fff" stop-opacity="0" offset="1"/>
  </linearGradient>
  <linearGradient id="m" x1="200.94" x2="545.82" y1="551.85" y2="572.85" gradientUnits="userSpaceOnUse">
   <stop stop-color="#5474ab" offset="0"/>
   <stop stop-color="#39527c" offset="1"/>
  </linearGradient>
  <linearGradient id="x" x1="472.7" x2="495.19" y1="547.37" y2="526.23" gradientUnits="userSpaceOnUse" xlink:href="#a"/>
  <linearGradient id="w" x1="379.73" x2="399.24" y1="526.5" y2="497.5" gradientUnits="userSpaceOnUse" xlink:href="#a"/>
  <linearGradient id="v" x1="272.83" x2="316.87" y1="498.8" y2="490.95" gradientUnits="userSpaceOnUse" xlink:href="#a"/>
  <linearGradient id="t" x1="253.15" x2="280.28" y1="508.92" y2="529.81" gradientTransform="matrix(1.0873 0 0 1 -21.091 52.813)" gradientUnits="userSpaceOnUse" xlink:href="#a"/>
  <linearGradient id="p" x1="379.73" x2="410.63" y1="530.02" y2="499.4" gradientUnits="userSpaceOnUse" xlink:href="#d"/>
  <linearGradient id="o" x1="471.61" x2="503.05" y1="548.18" y2="527.59" gradientUnits="userSpaceOnUse" xlink:href="#c"/>
  <linearGradient id="l" x1="379.73" x2="399.24" y1="473.69" y2="444.69" gradientTransform="matrix(1.0674 -.0022516 -.16393 -.97463 45.096 1076.6)" gradientUnits="userSpaceOnUse" xlink:href="#a"/>
  <linearGradient id="k" x1="379.73" x2="410.63" y1="477.21" y2="446.58" gradientTransform="matrix(1.0674 -.0022516 -.16393 -.97463 45.097 1076.6)" gradientUnits="userSpaceOnUse" xlink:href="#d"/>
  <linearGradient id="j" x1="472.7" x2="495.19" y1="494.56" y2="473.42" gradientTransform="matrix(.99904 .064152 -.037583 -.86287 21.304 985.57)" gradientUnits="userSpaceOnUse" xlink:href="#a"/>
  <linearGradient id="i" x1="471.61" x2="503.05" y1="495.37" y2="474.77" gradientTransform="matrix(.99904 .064152 -.037583 -.86287 21.304 985.57)" gradientUnits="userSpaceOnUse" xlink:href="#c"/>
  <linearGradient id="h" x1="251.96" x2="277.76" y1="615.29" y2="643.75" gradientUnits="userSpaceOnUse" xlink:href="#b"/>
  <linearGradient id="g" x1="247.41" x2="273.21" y1="616.05" y2="644.51" gradientUnits="userSpaceOnUse" xlink:href="#b"/>
  <linearGradient id="f" x1="251.96" x2="277.76" y1="562.48" y2="590.94" gradientTransform="matrix(.2765 0 -.51858 .53482 357.18 286.9)" gradientUnits="userSpaceOnUse" xlink:href="#b"/>
  <radialGradient id="e" cx="142.93" cy="425.06" r="11.806" gradientTransform="matrix(-.30774 1.1668 -1.044 -.27533 619.64 374.36)" gradientUnits="userSpaceOnUse">
   <stop stop-color="#ff0" offset="0"/>
   <stop stop-color="#fff" offset="1"/>
  </radialGradient>
 </defs>
 <g transform="matrix(1.3404 0 0 1.3404 -131.9 -573.58)">
  <path d="m142.42 586.85c-8.364 5.2536-11.937 11.682-13.885 16.706-1.6261-3.3077-0.38944-9.5455 5.3995-17.45l8.4852 0.74365z" fill="url(#f)" fill-rule="evenodd" stroke="#000" stroke-width="1.25"/>
  <path d="m253.1 613.4c3.5905 14.384 13.33 23.618 19.732 36.428-18.239-11.497-27.801-21.011-43.258-38.325l23.526 1.8973z" fill="url(#g)" fill-rule="evenodd" stroke="#000" stroke-width="1.25"/>
  <path d="m259.55 612.64c3.5905 14.384 13.33 24.377 23.906 33.772-17.48-6.1847-33.873-18.355-49.33-35.669l25.424 1.8973z" fill="url(#h)" fill-rule="evenodd" stroke="#000" stroke-width="1.25"/>
  <path d="m442.24 587.98c14.023 11.893 29.148 23.303 52.921 30.918 10.053-7.7953 22.365-13.868 25.595-26.11-6.0204-4.0404-16.874-8.391-15.101-11.931-25.792 0.59321-42.866 4.523-63.416 7.1224z" fill="url(#i)" fill-rule="evenodd" stroke="#000" stroke-width="1.25"/>
  <path d="m494.77 614.59c-16.02-7.3379-30.306-15.805-42.825-25.418l0.62626-0.63202c12.444 9.5551 26.624 17.99 42.571 25.294l-0.3718 0.75591zm5.2073-4.1023c-14.602-6.9433-28.209-14.266-38.634-22.836l0.62861-0.57809c10.297 8.4645 23.843 15.76 38.41 22.687l-0.4042 0.72694zm5.4894-4.0573c-13.098-6.0016-25.28-12.36-34.214-19.998l0.65865-0.60305c8.7855 7.5108 20.897 13.862 33.959 19.847l-0.40302 0.7539zm4.385-4.3972c-10.633-5.3163-21.156-10.684-28.389-17.069l0.66101-0.54911c7.062 6.234 17.536 11.58 28.164 16.893l-0.43542 0.72493zm4.1465-4.8696c-8.7866-3.9832-15.842-8.299-19.695-13.311l0.79176-0.40627c3.6598 4.7605 10.568 9.0141 19.275 12.961l-0.3718 0.75591z" fill="url(#j)" fill-rule="evenodd"/>
  <path d="m319.01 619c16.618 16.123 34.447 31.421 59.682 41.68 24.645-14.747 52.342-27.082 68.868-48.24-9.5923-6.2458-15.532-11.696-20.682-16.975l-107.87 23.535z" fill="url(#k)" fill-rule="evenodd" stroke="#000" stroke-width="1.25"/>
  <path d="m378.58 655.68c-16.694-10.229-32.73-21.54-47.596-34.603l0.69295-0.6413c14.797 13.002 30.759 24.252 47.404 34.451l-0.50057 0.79322zm6.5798-3.731c-16.566-10.377-32.655-20.917-44.949-32.75l0.73143-0.6109c12.165 11.709 28.205 22.23 44.756 32.598l-0.53904 0.76283zm6.5312-4.2184c-16.805-10.199-30.846-20.426-42.26-30.653l0.69296-0.6413c11.339 10.161 25.352 20.335 42.101 30.501l-0.53392 0.79329zm5.7459-3.7292c-16.244-9.682-28.18-19.382-38.258-29.077l0.73144-0.6109c10.021 9.641 21.873 19.266 38.027 28.895l-0.50056 0.79321zm6.4052-3.1822c-12.814-8.6332-25.737-17.259-35.215-28.048l0.80839-0.55012c9.3264 10.615 22.129 19.2 34.946 27.835l-0.53905 0.76284zm6.5261-4.2488c-12.671-8.2502-24.521-16.65-32.781-25.676l0.77505-0.55006c8.1179 8.8713 19.902 17.232 32.545 25.463l-0.53904 0.76284zm6.4052-3.1822c-11.792-7.5586-22.393-15.6-30.6-24.614l0.80839-0.55014c8.0963 8.8931 18.596 16.88 30.331 24.402l-0.53905 0.76284zm5.705-3.9729c-11.187-7.2679-20.886-14.757-26.862-22.825l0.89047-0.45888c5.8199 7.8565 15.381 15.29 26.511 22.521l-0.53905 0.76284zm5.4509-3.6981c-11.136-6.9629-19.421-13.944-23.658-21.034l0.90584-0.36752c4.0701 6.81 12.238 13.7 23.286 20.608l-0.53392 0.7933zm5.9206-4.278c-8.4315-5.6571-17.126-11.275-20.749-19.212l0.95967-0.24576c3.4327 7.5186 11.925 13.061 20.367 18.725l-0.57751 0.73245zm5.3976-5.8003c-7.6617-4.8273-14.222-9.8345-16.699-15.564l0.99816-0.21539c2.294 5.3058 8.642 10.23 16.24 15.017l-0.53904 0.76284z" fill="url(#l)" fill-rule="evenodd"/>
  <path d="m263.31 510.78c-6.7063 0.07571-12.874 0.56447-18.406 1.5312-66.943 11.698-94.139 25.937-124.84 45.156-3.1812 1.9912-4.9792 10.057 2.6961 16.073 4.1861 3.2816 15.042 4.6418 19.563 7.579-5.9987-1.0686-12.69-1.2744-13.846 0.18208-0.59349 1.4035 0.48863 2.6282 2.2116 4.3218 0 0 50.261 27.181 177.97 37.719 21.318 1.7738 83.967-12.548 132-27.688 42.222-13.308 79.438-16.406 79.438-16.406 37.895 11.156 76.324 29.717 113.69 35.062-13.776-26.404-28.238-45.271-0.53125-90.312-26.171-0.57379-65.58 16.623-112.62 32.938-25.774 8.9383-178.18-47.05-257.31-46.156z" fill="url(#m)" fill-rule="evenodd"/>
  <path d="m528.26 571.34c-33.075 1.5554-347.86-14.073-366.48 8.786-10.944 13.44 20.723 21.655 13.388 20.721 10.165 4.5091 40.416 9.5151 59.128 13.42 31.005 4.0936 62.343 10.92 93.696 8.0866 51.251-6.2955 99.873-24.352 149.8-36.403 19.321-2.8553 39.823-11.18 58.461-1.5697 11.419 4.3916 40.611 18.454 32.084-6.1722-11.613-9.1655-26-7.5312-40.078-6.8692z" fill="url(#n)" fill-rule="evenodd"/>
  <path d="m439.9 546.29c13.556-12.775 28.239-24.907 51.769-31.983 10.432 9.8097 23.056 17.786 26.833 32.254-5.8664 4.2463-16.57 8.4926-14.636 12.739-25.915-2.6142-43.225-8.4554-63.966-13.01z" fill="url(#o)" fill-rule="evenodd" stroke="#000" stroke-width="1.25"/>
  <path d="m328.61 521.57c13.023-16.573 27.311-32.302 49.33-42.879 25.404 15.072 53.287 27.664 72.097 49.33-7.9997 6.4269-12.704 12.03-16.696 17.455l-104.73-23.906z" fill="url(#p)" fill-rule="evenodd" stroke="#000" stroke-width="1.25"/>
  <path d="m246.11 514.03c16.157-23.738 38.096-46.272 71.555-66.405-1.2219 24.959 2.3079 49.126 9.7575 72.639-34.196-7.0013-59.473-8.6072-81.312-6.234z" fill="url(#q)" fill-rule="evenodd" stroke="#000" stroke-width="1.25"/>
  <path d="m239.07 571.81c7.7176 0.40448 54.853-25.126 71.175-22.312 4.8458 0.83528 15.327 17.071-29.197 39.832-3.1767 1.624-26.671-3.0077-35.615-3.1766-4.1632-0.0786 1.7157-4.9357 0.53124-7.4374-1.7031-3.5971-10.133-7.0758-6.8953-6.9061z" fill="url(#s)" fill-rule="evenodd" stroke="#000" stroke-width="1.25"/>
  <path d="m307.61 552.31-66.019 22.25 0.37376 0.9375 66.019-22.25-0.37376-0.9375zm-0.88343 4.3438-61.874 20.594 0.33978 0.9375 61.908-20.594-0.37376-0.9375zm-4.9608 7.8438-55.724 14.375 0.3058 0.96875 55.69-14.375-0.27182-0.96875zm-6.4558 7.3125-49.812 9.75 0.23785 1 49.778-9.7812-0.20387-0.96875zm-7.6111 7.3125-43.322 4.3438 0.10194 1 43.322-4.3438-0.10194-1zm-6.15 5.1562-37.444 1.0938 0.03398 0.96875 37.444-1.0625-0.03398-1z" fill="url(#t)" fill-rule="evenodd"/>
  <path d="m218.84 552.22c-3.0999 21.375-21.518 37.781-43.75 37.781-1.6609 0-3.2931-0.10289-4.9062-0.28125v1.1562c1.6114 0.17351 3.2491 0.28125 4.9062 0.28125 22.856-1e-5 41.824-16.934 44.938-38.938h-1.1875z"/>
  <path d="m215.12 538.44-0.84375 0.90625c14.467 4.3579 27.822 11.102 23.031 21.406-3.3286 5.6995-5.769 10.77-7.2188 15.094-12.229 13.957-28.297 17.667-43.875 23.438-5.4464 2.0176-14.219 0.75-14.219 0.75l-0.71875-0.09375v0.90625h0.59375l-0.0625 0.4375s8.8445 1.4099 14.844-0.8125c15.478-5.7337 31.892-9.5305 44.406-23.812l0.0625-0.09375 0.0625-0.125c1.4413-4.3706 3.9549-9.5697 7.4688-15.531l0.3125-0.53125-0.5-0.3125c3.1342-7.5557-5.0394-16.781-23.344-21.625z" fill-rule="evenodd"/>
  <path d="m233.47 567.56-4.2188 14c-7.7244 10.176-16.128 13.223-25.875 18.75-5.929 3.073-10.105 2.6804-15.344 4l0.3125 1.2188c5.0241-1.2656 9.446-0.92244 15.625-4.125v-0.03125c9.6721-5.4844 18.411-8.6326 26.344-19.125l0.0625-0.09375 0.03125-0.09375 4.25-14.156-1.1875-0.34375z" fill-rule="evenodd"/>
  <path d="m211.31 589.63c-3.6593 4.7975-8.1447 9.2277-14.344 13l0.625 1.0625c6.3425-3.8596 10.954-8.4183 14.688-13.312l-0.96875-0.75z" fill-rule="evenodd"/>
  <path d="m217.65 575.56c0 1.1969-0.97141 2.1683-2.1683 2.1683s-2.1683-0.97141-2.1683-2.1683 0.97142-2.1683 2.1683-2.1683 2.1683 0.97141 2.1683 2.1683z" fill="#405c89"/>
  <path d="m209.24 583.69c0 1.1969-0.97141 2.1683-2.1683 2.1683s-2.1683-0.97141-2.1683-2.1683 0.97141-2.1683 2.1683-2.1683 2.1683 0.97141 2.1683 2.1683z" fill="#405c89"/>
  <path d="m199.22 589.65c0 1.1969-0.97141 2.1683-2.1683 2.1683s-2.1683-0.97141-2.1683-2.1683 0.97141-2.1683 2.1683-2.1683 2.1683 0.97141 2.1683 2.1683z" fill="#405c89"/>
  <path d="m189.19 592.91c0 1.1969-0.97141 2.1683-2.1683 2.1683s-2.1683-0.97141-2.1683-2.1683 0.97141-2.1683 2.1683-2.1683 2.1683 0.97141 2.1683 2.1683z" fill="#405c89"/>
  <path d="m179.43 593.99c0 1.1969-0.97141 2.1683-2.1683 2.1683s-2.1683-0.97141-2.1683-2.1683 0.97142-2.1683 2.1683-2.1683 2.1683 0.97141 2.1683 2.1683z" fill="#405c89"/>
  <path d="m256.72 535.81c-11.566 0.3828-15.199 0.3673-24.919 2.1674-2.2265 0.74796-1.8492 4.5533 0.8125 4.3438 37.959-7.0294 80.924-2.5384 168.76 16.676 88.291 19.314 125.81 13.662 169.5 13.095 2.9095-0.45391 1.9845-4.2375-0.03125-4.4062-44.148 0.57211-80.758 6.231-168.54-12.97-66.055-14.449-110.9-20.055-145.59-18.906z" fill="url(#u)" fill-rule="evenodd"/>
  <path d="m313.72 453.5c-21.438 15.86-42.389 32.676-58.781 57.25l0.84375 0.53125c16.291-24.422 37.115-41.124 58.531-56.969l-0.59375-0.8125zm0 7.9375c-18.495 14.006-35.675 29.692-50.062 48.875l0.8125 0.625c14.316-19.087 31.398-34.719 49.844-48.688l-0.59375-0.8125zm0.5625 8.9062c-15.046 11.627-29.612 23.916-41.125 40.188l0.8125 0.5625c11.42-16.14 25.914-28.359 40.938-39.969l-0.625-0.78125zm0.8125 8.9062c-12.889 8.7947-24.35 19.224-33.625 31.656l0.8125 0.59375c9.1994-12.331 20.563-22.695 33.375-31.438l-0.5625-0.8125zm1.3438 8.3125c-9.6756 7.0087-19.183 14.988-26.812 24.094l0.78125 0.65625c7.5517-9.0125 16.99-16.958 26.625-23.938l-0.59375-0.8125zm1.375 7.9375c-7.9469 5.2719-14.663 11.31-20.031 17.094l0.71875 0.6875c5.3227-5.7338 12.006-11.717 19.875-16.938l-0.5625-0.84375zm1.9688 8.6875c-5.9651 3.0731-9.2155 6.7456-12.656 9.75l0.65625 0.75c3.5063-3.0617 6.659-6.6319 12.469-9.625l-0.46875-0.875zm2.3438 7.1562c-2.506 1.263-4.2698 2.9144-5.7188 4.125l0.65625 0.78125c1.4861-1.2417 3.1403-2.842 5.5-4.0312l-0.4375-0.875z" fill="url(#v)" fill-rule="evenodd"/>
  <path d="m378.62 483.81c-14.023 10.528-27.26 22.164-39.125 35.594l0.75 0.65625c11.81-13.368 24.987-24.941 38.969-35.438l-0.59375-0.8125zm6.75 3.8125c-13.88 10.679-27.288 21.525-36.938 33.688l0.78125 0.625c9.5489-12.036 22.914-22.862 36.781-33.531l-0.625-0.78125zm6.7812 4.3125c-14.132 10.498-25.671 21.017-34.75 31.531l0.75 0.65625c9.0193-10.446 20.54-20.912 34.625-31.375l-0.625-0.8125zm5.9688 3.8125c-13.688 9.9657-23.339 19.94-31.25 29.906l0.78125 0.625c7.8666-9.9101 17.45-19.808 31.062-29.719l-0.59375-0.8125zm6.5 3.25c-10.641 8.8825-21.385 17.758-28.562 28.844l0.84375 0.5625c7.0625-10.908 17.701-19.741 28.344-28.625l-0.625-0.78125zm6.7812 4.3438c-10.568 8.4894-20.343 17.131-26.656 26.406l0.8125 0.5625c6.2054-9.1166 15.924-17.717 26.469-26.188l-0.625-0.78125zm6.5 3.25c-9.8526 7.7781-18.515 16.049-24.781 25.312l0.84375 0.5625c6.1817-9.1389 14.757-17.353 24.562-25.094l-0.625-0.78125zm5.9688 4.0625c-9.3325 7.4787-17.236 15.181-21.562 23.469l0.90625 0.46875c4.213-8.0708 11.996-15.716 21.281-23.156l-0.625-0.78125zm5.6875 3.7812c-9.3328 7.1658-15.992 14.344-18.844 21.625l0.90625 0.375c2.7391-6.9936 9.3035-14.078 18.562-21.188l-0.625-0.8125zm6.2188 4.375c-7.0053 5.8206-14.263 11.601-16.406 19.75l0.9375 0.25c2.0305-7.719 9.1112-13.422 16.125-19.25l-0.65625-0.75zm5.9688 5.9375c-6.4151 4.9678-11.77 10.118-13.188 16l0.96875 0.21875c1.3127-5.447 6.4822-10.511 12.844-15.438l-0.625-0.78125z" fill="url(#w)" fill-rule="evenodd"/>
  <path d="m491.47 519.28c-15.76 7.3324-29.729 16.106-41.875 26.344l0.65625 0.78125c12.073-10.176 25.938-18.92 41.625-26.219l-0.40625-0.90625zm5.4062 5.1562c-14.353 6.9796-27.691 14.474-37.781 23.656l0.65625 0.71875c9.9654-9.0688 23.244-16.537 37.562-23.5l-0.4375-0.875zm5.6875 5.125c-12.885 5.9975-24.835 12.477-33.469 20.688l0.6875 0.75c8.4902-8.0732 20.37-14.55 33.219-20.531l-0.4375-0.90625zm4.5938 5.4375c-10.441 5.3849-20.769 10.838-27.75 17.719l0.6875 0.6875c6.816-6.718 17.096-12.149 27.531-17.531l-0.46875-0.875zm4.375 5.9688c-8.6456 3.9735-15.539 8.4627-19.188 14l0.8125 0.53125c3.4655-5.2594 10.214-9.6873 18.781-13.625l-0.40625-0.90625z" fill="url(#x)" fill-rule="evenodd"/>
  <path d="m631.69 523.97c-21.335 0.09052-51.057 11.315-86.312 24.125 2.153 0.28225 4.9262 1.1656 8.625 2.8125 9.2832 4.1334 19.968 12.198 22.219 15.969 1.3179 2.2079 0.94989 4.4768-1.625 7.5938-5.142 6.2246-11.943 12.181-20.906 16.031 26.851 9.6833 53.741 20.042 80.094 23.812-8.8271-18.981-12.016-66.442-0.53125-90.312-0.51115-0.01121-1.0413-0.03346-1.5625-0.03125z" fill="url(#y)" fill-rule="evenodd"/>
  <path d="m626.22 528.19-73.316 22.245 1.5258 0.66093 72.103-21.938-0.3125-0.96875zm-4.5625 9.75-61.437 16 1.2493 0.96875 60.438-16-0.25-0.96875zm-4.3125 10.562-52.995 8.125 1.4008 1 51.75-8.125-0.15625-1zm-2.125 8.125-45.548 3.25 0.92347 1 44.719-3.25-0.09375-1zm-1.0625 7.5938-39.584 0.53593 1.1376 1.4149 38.478-0.95079-0.03125-1zm-37.477 4.3172 0.32111 1.2766 37.156 2.7188 0.0625-1-37.54-2.9953zm-1.157 4.7633-0.74065 1.1383 40.375 7.5625 0.1875-0.96875-39.822-7.732zm-3.4906 4.232-1.111 0.79921 47.455 14.513 0.28125-0.96875-46.625-14.344zm-5.125 4.5938-1.0039 1.107 56.535 18.549 0.3125-0.9375-55.844-18.719zm-6.25 4.3438-1.1422 0.9375 68.048 22.25 0.3125-0.96875-67.219-22.219z" fill="url(#z)" fill-rule="evenodd"/>
  <path d="m548.52 546.92-4.6714 1.7872c1.9275 0.25268 5.9307 1.897 9.5601 3.5129 4.5114 2.0087 9.4603 5.018 13.5 7.9688s7.2504 6.0246 8.0938 7.4375c0.5177 0.86733 0.64929 1.5128 0.46875 2.4062s-0.76896 2.0789-1.9688 3.5312c-5.0325 6.092-11.663 11.883-20.375 15.625l-1.0738 0.71524 3.3755 1.3596 2.542-1.3874c7.3604-3.8822 13.22-9.0538 17.719-14.5 1.3751-1.6646 2.276-3.1778 2.5938-4.75s-0.04355-3.1594-0.84375-4.5c-1.4073-2.3576-4.6576-5.1923-8.8438-8.25s-9.2283-6.1566-14-8.2812c-1.627-0.72442-3.0193-1.2634-4.3438-1.7188 0.00784-0.00249-0.00782-0.02867 0-0.03125l-1.7325-0.92511z" fill-rule="evenodd"/>
  <path d="m263.31 510.78c-6.7063 0.07571-12.874 0.56447-18.406 1.5312-66.943 11.698-94.139 25.937-124.84 45.156-1.3262 0.83009-2.4484 2.3766-2.75 4.6562 5.0417-0.84082 10.083-2.5306 15.125-1.4688 8.592 2.2429 17.958 7.5833 26.938 11.375 6.907 1.9563 24.983 1.3237 26.938-15.938 0.97168-6.4903-1.9438-10.952-3.4062-15.938-0.75274-2.0957 29.778-17.363 65.25-20.5 43.07-3.8091 41.656 1.7054 107.78 13.281 65.941 11.544 93.338 23.766 156.72 28.469 18.994 1.4265 35.531-14.344 35.531-14.344-8.8502 3.2198-18.04 6.5727-27.562 9.875-25.774 8.9383-178.18-47.05-257.31-46.156z" fill="url(#r)" fill-rule="evenodd"/>
  <path transform="matrix(1.1673 0 0 1.1673 9.606 54.577)" d="m146.09 427.36a11.422 11.422 0 1 1 -22.843 0 11.422 11.422 0 1 1 22.843 0z" fill="url(#e)"/>
  <path d="m165.07 545.25c-3.0304 0.19228-5.5672 2.1613-6.6105 4.8739l4.5377 2.2689-4.8178 2.4089c0.85547 3.2717 3.8562 5.6862 7.3948 5.6862 4.2056 0 7.6189-3.4133 7.6189-7.6189s-3.4133-7.6189-7.6189-7.6189c-0.16428 0-0.34248-0.01026-0.50419 0z"/>
  <path d="m166.79 539.49c-7.6979 0-13.935 6.2371-13.935 13.935s6.2371 13.971 13.935 13.971 13.971-6.2736 13.971-13.971-6.2736-13.935-13.971-13.935zm0 1.2403c7.0216 1e-5 12.731 5.6731 12.731 12.695s-5.7096 12.731-12.731 12.731-12.695-5.7096-12.695-12.731 5.6731-12.695 12.695-12.695z"/>
  <path d="m263.31 510.28c-6.7271 0.07595-12.934 0.55854-18.5 1.5312-66.988 11.706-94.277 25.988-125 45.219-1.812 1.1342-3.0865 3.8039-2.9688 6.9688s1.6558 6.8505 5.5938 9.9375c2.2318 1.7495 6.037 2.8813 9.8438 4 2.5967 0.76307 4.9883 1.534 7.0625 2.375-1.9903-0.24507-4.0485-0.56054-5.75-0.5625-1.304-0.0015-2.473 0.10293-3.4062 0.28125s-1.6551 0.41626-2.0938 0.96875l-0.0625 0.03125-0.03125 0.0625c-0.35952 0.85021-0.17911 1.756 0.28125 2.5312s1.1954 1.4914 2.0625 2.3438l0.03125 0.0625 0.0625 0.03125s12.657 6.8155 41.219 14.938 73.085 17.572 136.97 22.844c10.81 0.89946 31.776-2.245 56.125-7.5s52.03-12.644 76.062-20.219c42.062-13.257 79.073-16.36 79.25-16.375 37.8 11.143 76.219 29.706 113.66 35.062l0.96875 0.125-0.46875-0.84375c-6.8987-13.222-14.348-67.383-0.53125-89.844l0.4375-0.71875-0.875-0.03125c-26.401-0.57883-65.757 16.661-112.78 32.969-3.0734 1.0658-8.2414 1.202-15 0.53125s-15.123-2.138-24.688-4.125c-19.13-3.974-43.078-10.084-68.688-16.469-51.218-12.769-109.09-26.573-148.78-26.125zm0 1c39.446-0.44529 97.321 13.327 148.53 26.094 25.605 6.3835 49.551 12.518 68.719 16.5 9.5839 1.991 17.994 3.417 24.812 4.0938s12.036 0.60625 15.406-0.5625c46.552-16.144 85.614-33.025 111.56-32.844-13.459 22.141-6.1893 76.278 0.53125 89.062-36.948-5.5091-75.002-23.768-112.62-34.844l-0.09375-0.03125h-0.09375s-37.281 3.111-79.562 16.438c-24 7.5646-51.655 14.909-75.969 20.156s-45.336 8.3743-55.844 7.5c-63.824-5.2664-108.29-14.678-136.78-22.781-28.457-8.0922-40.904-14.857-40.938-14.875-0.00594-0.00587-0.02533 0.00586-0.03125 0-0.80059-0.79175-1.4348-1.5104-1.7812-2.0938-0.34211-0.5761-0.40542-0.99034-0.21875-1.5 0.16597-0.1762 0.63929-0.44124 1.4375-0.59375 0.83398-0.15934 1.9556-0.25145 3.2188-0.25 2.5263 0.00291 5.6518 0.34532 8.625 0.875l0.375-0.9375c-0.04762-0.03094-0.13871-0.03195-0.1875-0.0625-2.3937-1.4989-6.1214-2.5624-9.8438-3.6562-3.7982-1.1162-7.5457-2.2805-9.5-3.8125-3.7373-2.9298-5.112-6.3177-5.2188-9.1875s1.0996-5.2055 2.4688-6.0625c30.686-19.207 57.79-33.404 124.69-45.094 5.4985-0.96085 11.627-1.4558 18.312-1.5312z" fill-rule="evenodd"/>
  <path d="m118.28125,567.46875c.09938.42899.44542,1.27331 1.03125,2.40625l.03125.0625 .03125.0625c.82365,1.2153 1.93827,2.40498 3.375,3.53125 3.62448,2.8413 12.25382,4.26872 17.4375,6.5v.75c-5.35842-.75308-10.6988-.75333-11.71875.53125-.12983.30703-.17649.61027-.15625.90625 .00145.02114.69925,1.74479.7014,1.76591 1.924,1.97022 3.35975,2.08502 5.6736,3.54659 .01299.00588.01819.02535.03125.03125h.03125c.02413.0109.03814.05151.0625.0625 4.04522-2.37005 12.97261-.98884 21.75.28125 7.56445,1.60458 6.83682-9.72108 1.8125-10.125-1.35512-.10895-38.29408-9.22988-40.0625-10.3125h-.03125z" fill="none" stroke="#000"/>
  <path d="m135.79 572.27s11.969 4.4622 18.179 7.1841 7.7566 5.9677 7.7566 5.9677" fill="none" stroke="#000" stroke-width=".95976"/>
 </g>
</svg>
