<?xml version="1.0" encoding="UTF-8"?>
<svg width="1052.4" height="1052.4" viewBox="0 0 1052.3622 744.09448" xmlns="http://www.w3.org/2000/svg">
 <path d="m332.19 216.55c23.88 4.1242 55.289 1.6836 82.242 0.71641 8.307 6.8121 11.557 18.819 19.686 20.818 26.98 8.6577 54.292 20.148 74.905 38.388 1.2642 7.5605 2.5285 11.803 3.7927 16.385 18.597 32.97 27.858 59.393 38.401 88.011-3.2877 8.069-0.93408 12.243-1.4223 15.917-29.531 16.219-47.676 16.277-66.846 17.789l-9.4817-20.598c-1.7275 41.118 5.0101 80.652 8.1568 122.14 1.4274 18.817 2.5001 34.384 4.6435 50.142 4.5715 8.233-151.64 12.477-230.41 0l8.0701-76.806 5.7609-59.888-0.55663-42.838-1.6053 11.077c-3.8364 6.9443-7.0236 13.248-10.247 19.586-24.602-2.9431-48.783-6.5814-67.794-18.726 1.7423-6.2675-0.48616-11.832 0.94817-20.598 9.2267-27.656 22.072-53.888 36.091-80.962 2.3065-4.4544 2.2386-10.122 3.8951-15.19 1.0408-3.1844 3.7666-5.8488 5.0524-8.7125 22.727-12.694 46.652-24.442 72.535-34.643 11.733-4.5167 16.145-23.152 24.178-22.003z" fill="#808080" stroke="#000" stroke-width=".93274"/>
 <path d="m310.03 238.32c7.0304 20.987 19.793 31.911 32.356 43.186 6.4491-5.0278 14.353-10.155 29.867-15.8-9.4141-4.7926-22.669-6.5076-37.824-29.473-2.8757-4.3575-3.8168-11.218-6.5025-17.575-5.5349 5.2987-9.8803 13.352-17.897 19.662z" fill="#808080" stroke="#000" stroke-width=".93274"/>
 <path d="m432.89 238.42c-6.8466 20.914-19.395 32.268-31.629 43.503-6.2806-5.0102-13.86-10.587-28.968-16.213 9.0028-4.7758 20.552-6.4848 36.836-29.37 2.9973-4.2122 3.717-11.179 6.3325-17.514 5.3902 5.2801 9.6221 13.306 17.429 19.593z" fill="#808080" stroke="#000" stroke-width=".91886"/>
 <path d="m328.16 218.19c4.0232-4.1131 6.2057-0.4743 8.4196-0.42059 26.587 0.64485 51.396 1.6574 77.982 0.0694l-3.7927 14.981c-25.877 2.5824-51.754 2.088-77.631 0l-4.9779-14.63z" fill="#808080" stroke="#000" stroke-width=".93274"/>
 <path d="m362.19 270.25 0.16761 52.964 18.773-0.33104-0.16763-53.13-8.7159-3.4758-10.057 3.9723z" stroke="#000" stroke-width=".93274"/>
 <path d="m374.17 274.82c0 1.3712-1.1256 2.4827-2.5142 2.4827s-2.5142-1.1116-2.5142-2.4827 1.1256-2.4827 2.5142-2.4827 2.5142 1.1116 2.5142 2.4827z" fill="#fff" stroke="#000" stroke-linecap="round" stroke-linejoin="round" stroke-width=".93274"/>
 <path d="m373.92 295.49c0 1.3712-1.1256 2.4827-2.5142 2.4827s-2.5142-1.1116-2.5142-2.4827 1.1256-2.4827 2.5142-2.4827 2.5142 1.1116 2.5142 2.4827z" fill="#fff" stroke="#000" stroke-linecap="round" stroke-linejoin="round" stroke-width=".93274"/>
 <path d="m364.07 317.21h15.044v0.91059h-15.044z" fill="#fff" opacity=".40639" stroke="#fbfbfb" stroke-linecap="round" stroke-width=".93247"/>
 <path d="m479.87 407.09c27.318-0.38045 49.46-8.002 69.216-18.96l0.82965 8.3096c-17.473 10.834-39.381 17.29-66.965 18.141l-3.0816-7.4903z" fill="#fff" stroke="#000" stroke-width=".93274"/>
 <path d="m190.32 389.42c28.143 17.539 49.108 18.435 70.165 19.545l-3.5556 8.3096c-45.308-4.0874-54.811-11.51-67.794-18.609l1.1852-9.2458z" fill="#fff" stroke="#000" stroke-width=".93274"/>
 <path d="m506.18 275.54c-18.624 39.78-29.096 79.909-33.186 120.31 2.6569-45.499 18.259-82.689 33.186-120.31z" fill="none" stroke="#000" stroke-width=".93274"/>
 <path d="m235.48 273.67c17.63 41.069 27.133 78.434 33.186 114.23-6.9029-39.445-15.664-78.278-33.186-114.23z" fill="none" stroke="#000" stroke-width=".93274"/>
 <path d="m255.85 566.3c80.049 8.8783 191.84 12.13 230.78 0.30065l-1.2178-7.2154c-72.06 12.039-151.87 8.4191-228.95-0.6013l-0.60891 7.516z" fill="#fff" stroke="#000" stroke-width="1.198"/>
 <path d="m333.2 232.33c26.147 2.2838 52.109 2.7824 77.395 0.53146-7.9704 15.455-20.956 25.923-38.428 32.632-14.326-3.5282-27.508-13.494-38.966-33.163z" fill="#fff" stroke="#000" stroke-width="1.198"/>
 <g transform="matrix(.13696 0 0 .13524 379.27 240.09)" fill="#1890de" font-family="Maagkramp" font-size="305.35" stroke="#fff" stroke-linecap="round" stroke-width="10.397">
  <path d="m284.96 574.23c6.1069 2.1e-4 12.01 3.9697 17.71 11.908 2.4427 3.4608 3.6641 9.6695 3.6642 18.626v27.786l-0.61069 0.61069v0.6107h26.87c8.9567 1.4e-4 15.878 6.4124 20.764 19.237v7.6337c-1.1e-4 8.9569-6.3106 15.98-18.931 21.069l-12.519 0.30535h-16.183v15.573c-6e-5 17.099 5.3944 27.074 16.183 29.924l16.489 3.0535c9.9745 5.9034 14.962 12.417 14.962 19.542v6.1069c-1.1e-4 8.9568-6.3106 15.878-18.931 20.764h-8.5497c-21.171 0-40-10.687-56.489-32.061-7.5319-12.824-11.298-24.835-11.298-36.031v-113.89c-2e-5 -8.9566 6.3105-15.878 18.931-20.764h7.939" fill="#1890de" stroke="#fff" stroke-linecap="round" stroke-width="10.397"/>
 </g>
 <text transform="scale(1.0063 .99371)" x="427.0864" y="347.21368" fill="#1890de" font-family="Maagkramp" font-size="8.1428" stroke="#fff" stroke-width=".28299">
  <tspan x="427.0864" y="347.21368" stroke-width=".28299">ikom</tspan>
 </text>
 <g transform="matrix(.23689 0 0 .23393 324.06 197.32)" fill="#fff" font-family="Maagkramp" font-size="150.93" stroke="#1890de" stroke-width="6.0108">
  <path d="m501.92 477.86h2.4149c10.062 1e-4 17.911 5.484 23.545 16.452 1.2074 3.1193 1.8111 6.0877 1.8112 8.905v2.4149c-7e-5 3.1193-0.90566 6.8423-2.7168 11.169 7.7478 7.3454 11.622 15.395 11.622 24.149v3.4714c-8e-5 10.565-5.333 19.923-15.999 28.073-6.3392 3.723-12.226 5.5845-17.659 5.5845h-3.6224c-10.465 0-19.772-5.2826-27.922-15.848-3.723-6.3391-5.5845-12.276-5.5845-17.81v-3.4714c-1e-5 -8.6534 3.8236-16.804 11.471-24.451v-0.30186c-1.8112-3.4211-2.7168-6.9428-2.7168-10.565v-2.4149c-1e-5 -10.062 5.5342-17.91 16.602-23.545 3.1192-1.2074 6.0372-1.8111 8.754-1.8112m-1.3584 26.262v0.60373c-4e-5 1.5094 0.75462 2.264 2.264 2.264h0.60373c1.6099 7e-5 2.4149-0.75459 2.4149-2.264v-0.60373c-4e-5 -1.6099-0.80501-2.4148-2.4149-2.4149h-0.60373c-1.5094 8e-5 -2.264 0.80505-2.264 2.4149m-8.905 39.997c-3e-5 4.3267 3.0689 7.6976 9.2068 10.112h3.7733c4.3267 3e-5 7.6472-3.0689 9.9615-9.2068v-3.7733c-5e-5 -4.4273-3.0187-7.7981-9.0559-10.112h-3.9242c-4.3267 5e-5 -7.6472 3.069-9.9615 9.2068v3.7733" fill="#fff" stroke="#1890de" stroke-width="6.0108"/>
 </g>
 <path d="m332.68 216.98c23.88 4.1242 55.289 1.6836 82.242 0.71639 8.307 6.8121 11.557 18.819 19.686 20.818 26.98 8.6577 54.292 20.148 74.905 38.388 1.2642 7.5605 2.5285 11.803 3.7927 16.385 18.597 32.97 27.858 59.393 38.401 88.011-3.2876 8.069-0.93408 12.243-1.4223 15.917-29.531 16.219-47.676 16.277-66.846 17.789l-9.4817-20.598c-1.7275 41.118 5.0101 80.652 8.1568 122.14 1.4274 18.818 2.5001 34.384 4.6435 50.142 4.5715 8.2329-151.64 12.477-230.41 0l8.0701-76.806 5.7609-59.888-0.55663-42.838-1.6053 11.077c-3.8364 6.9443-7.0236 13.248-10.247 19.586-24.602-2.9432-48.783-6.5814-67.794-18.726 1.7423-6.2675-0.48616-11.832 0.94817-20.598 9.2267-27.656 22.072-53.888 36.091-80.962 2.3065-4.4544 2.2386-10.122 3.8951-15.19 1.0408-3.1844 3.7666-5.8488 5.0524-8.7124 22.727-12.694 46.652-24.442 72.535-34.643 11.733-4.5167 16.145-23.152 24.178-22.003z" fill="#3b9698" stroke="#000" stroke-width=".93246"/>
 <path d="m310.52 238.74c7.0304 20.987 19.793 31.911 32.356 43.186 6.4492-5.0278 14.353-10.155 29.867-15.8-9.4141-4.7926-22.669-6.5076-37.825-29.473-2.8757-4.3575-3.8168-11.218-6.5025-17.575-5.5349 5.2986-9.8803 13.352-17.897 19.662z" fill="#3b9698" stroke="#000" stroke-width=".93274"/>
 <path d="m433.38 238.84c-6.8466 20.914-19.395 32.268-31.629 43.503-6.2806-5.0102-13.86-10.587-28.968-16.213 9.0027-4.7758 20.552-6.4848 36.836-29.37 2.9973-4.2122 3.717-11.179 6.3325-17.514 5.3902 5.2801 9.6221 13.306 17.429 19.593z" fill="#3b9698" stroke="#000" stroke-width=".91886"/>
 <path d="m328.65 218.61c4.0232-4.1131 6.2057-0.4743 8.4196-0.42062 26.587 0.64486 51.396 1.6575 77.982 0.0694l-3.7927 14.981c-25.877 2.5824-51.754 2.088-77.631 0l-4.9779-14.629z" fill="#3b9698" stroke="#000" stroke-width=".93274"/>
 <path d="m362.68 270.37 0.16762 52.964 18.773-0.33104-0.16763-53.13-8.7159-3.4758-10.057 3.9723z" fill="#3b9698" stroke="#000" stroke-width=".93274"/>
 <path d="m374.66 274.95c0 1.3712-1.1256 2.4827-2.5142 2.4827s-2.5142-1.1116-2.5142-2.4827 1.1256-2.4827 2.5142-2.4827 2.5142 1.1116 2.5142 2.4827z" fill="#fff" stroke="#000" stroke-linecap="round" stroke-linejoin="round" stroke-width=".93274"/>
 <path d="m374.41 295.62c0 1.3712-1.1256 2.4827-2.5142 2.4827s-2.5142-1.1116-2.5142-2.4827 1.1256-2.4827 2.5142-2.4827 2.5142 1.1116 2.5142 2.4827z" fill="#fff" stroke="#000" stroke-linecap="round" stroke-linejoin="round" stroke-width=".93274"/>
 <path d="m364.56 317.34h15.044v0.91059h-15.044z" fill="#fff" opacity=".40639" stroke="#fbfbfb" stroke-linecap="round" stroke-width=".93247"/>
 <path d="m480.36 407.51c27.318-0.38047 49.46-8.002 69.216-18.96l0.82964 8.3095c-17.473 10.834-39.381 17.29-66.965 18.141l-3.0816-7.4903z" fill="#fff" stroke="#000" stroke-width=".93274"/>
 <path d="m190.81 389.84c28.143 17.539 49.108 18.435 70.165 19.545l-3.5556 8.3096c-45.308-4.0874-54.811-11.51-67.794-18.609l1.1852-9.2458z" fill="#fff" stroke="#000" stroke-width=".93274"/>
 <path d="m506.67 275.96c-18.624 39.78-29.096 79.909-33.186 120.31 2.6569-45.499 18.259-82.689 33.186-120.31z" fill="none" stroke="#000" stroke-width=".93274"/>
 <path d="m235.97 274.09c17.63 41.069 27.133 78.434 33.186 114.23-6.9029-39.445-15.664-78.278-33.186-114.23z" fill="none" stroke="#000" stroke-width=".93274"/>
 <path d="m256.34 566.72c80.049 8.8783 191.84 12.13 230.78 0.30064l-1.2178-7.2154c-72.06 12.039-151.87 8.4191-228.95-0.60129l-0.60891 7.516z" fill="#fff" stroke="#000" stroke-width="1.198"/>
 <path d="m333.69 232.75c26.147 2.2837 52.109 2.7823 77.395 0.53144-7.9704 15.455-20.956 25.923-38.428 32.632-14.326-3.5282-27.508-13.494-38.966-33.163z" fill="#fff" stroke="#000" stroke-width="1.198"/>
 <path d="m712.26 218.11c30.187 4.3203 60.373 3.7201 90.56 0 4.4721 8.8224 8.9442 10.966 13.416 14.758-12.083 12.268-102.2 13.439-121.42 0.67081 6.362-1.8531 11.962-8.2764 17.441-15.429z" fill="#3b9698" stroke="#000" stroke-width=".93914"/>
 <path d="m702.2 236.9c52.257 10.879 83.516 6.0092 111.02-1.677 5.982 10.504 84.053 31.014 84.858 58.025 12.931 32.193 36.584 63.562 38.572 96.597l-1.0063 11.404c-17.61 9.2366-37.8 16.539-66.075 17.777l-10.062-21.801c-2.1157 41.496 6.5743 94.285 10.781 145.9 0.7979 9.7895 1.9097 19.424 2.6353 28.85-51.891 14.756-191.53 6.0009-231.1 0.33537 0.9533-43.818 18.277-109.45 13.416-181.12-2.524 13.825-7.2291 22.561-12.41 30.187-24.015-2.5054-47.667-5.7356-66.411-18.783l1.0062-8.7206c-8.4388-6.027 20.731-51.959 43.267-115.04 11.538-15.576 71.185-32.466 81.504-41.926z" fill="#3b9698" stroke="#000" stroke-width=".93914"/>
 <path d="m577.43 393.87c19.091 12.548 42.234 19.425 70.268 19.454l-4.6957 7.8821c-25.258-2.2654-49.183-6.3338-66.914-18.783l1.3416-8.5529z" fill="#fff" stroke="#000" stroke-width=".93914"/>
 <path d="m865.54 410.97c26.344 0.99262 49.847-6.535 71.274-20.292l-1.0062 10.398c-22.4 11.483-44.401 17.974-65.907 18.28l-4.3603-8.3852z" fill="#fff" stroke="#000" stroke-width=".93914"/>
 <path d="m641.92 572.05c46.5 8.0896 169.74 13.358 230.94-0.11862l-0.4744-5.692c-75.987 12.595-153.05 7.9198-230.29 0.53362l-0.1779 5.277z" fill="#fff" stroke="#000" stroke-width=".93914"/>
 <path d="m653.87 390.37c-1.2773-38.219-16.374-74.902-33.541-111.36 35.641 76.527 27.382 82.327 33.541 111.36z" fill="none" stroke="#000" stroke-width=".93914"/>
 <path d="m859.81 397.75c3.749-36.448 14.604-72.895 36.224-109.34-17.526 29.438-31.177 63.859-36.224 109.34z" fill="none" stroke="#000" stroke-width=".93914"/>
</svg>
